<svg width="24" height="24" viewBox="0 0 24 24" fill="none" xmlns="http://www.w3.org/2000/svg">
<path fill-rule="evenodd" clip-rule="evenodd" d="M12 18.5453C15.615 18.5453 18.5455 15.6147 18.5455 11.9998C18.5455 8.38484 15.615 5.45435 12 5.45435C8.38509 5.45435 5.45459 8.38484 5.45459 11.9998C5.45459 15.6147 8.38509 18.5453 12 18.5453ZM12 16.3634C14.41 16.3634 16.3637 14.4097 16.3637 11.9998C16.3637 9.58983 14.41 7.63616 12 7.63616C9.59007 7.63616 7.63641 9.58983 7.63641 11.9998C7.63641 14.4097 9.59007 16.3634 12 16.3634Z" fill="white"/>
<path d="M18.5455 4.36353C17.943 4.36353 17.4546 4.85195 17.4546 5.45443C17.4546 6.05692 17.943 6.54534 18.5455 6.54534C19.148 6.54534 19.6364 6.05692 19.6364 5.45443C19.6364 4.85195 19.148 4.36353 18.5455 4.36353Z" fill="white"/>
<path fill-rule="evenodd" clip-rule="evenodd" d="M0.713411 3.57388C0 4.97403 0 6.80694 0 10.4727V13.5273C0 17.1931 0 19.026 0.713411 20.4261C1.34095 21.6577 2.34227 22.6591 3.57388 23.2865C4.97403 24 6.80694 24 10.4727 24H13.5273C17.1931 24 19.026 24 20.4261 23.2865C21.6577 22.6591 22.6591 21.6577 23.2865 20.4261C24 19.026 24 17.1931 24 13.5273V10.4727C24 6.80694 24 4.97403 23.2865 3.57388C22.6591 2.34227 21.6577 1.34095 20.4261 0.713411C19.026 0 17.1931 0 13.5273 0H10.4727C6.80694 0 4.97403 0 3.57388 0.713411C2.34227 1.34095 1.34095 2.34227 0.713411 3.57388ZM13.5273 2.18182H10.4727C8.60383 2.18182 7.33336 2.18352 6.35136 2.26375C5.39481 2.3419 4.90564 2.48355 4.56441 2.65742C3.74333 3.07579 3.07579 3.74333 2.65742 4.56441C2.48355 4.90564 2.3419 5.39481 2.26375 6.35136C2.18352 7.33336 2.18182 8.60383 2.18182 10.4727V13.5273C2.18182 15.3962 2.18352 16.6666 2.26375 17.6486C2.3419 18.6052 2.48355 19.0944 2.65742 19.4356C3.07579 20.2567 3.74333 20.9242 4.56441 21.3425C4.90564 21.5164 5.39481 21.6581 6.35136 21.7363C7.33336 21.8164 8.60383 21.8182 10.4727 21.8182H13.5273C15.3962 21.8182 16.6666 21.8164 17.6486 21.7363C18.6052 21.6581 19.0944 21.5164 19.4356 21.3425C20.2567 20.9242 20.9242 20.2567 21.3425 19.4356C21.5164 19.0944 21.6581 18.6052 21.7363 17.6486C21.8164 16.6666 21.8182 15.3962 21.8182 13.5273V10.4727C21.8182 8.60383 21.8164 7.33336 21.7363 6.35136C21.6581 5.39481 21.5164 4.90564 21.3425 4.56441C20.9242 3.74333 20.2567 3.07579 19.4356 2.65742C19.0944 2.48355 18.6052 2.3419 17.6486 2.26375C16.6666 2.18352 15.3962 2.18182 13.5273 2.18182Z" fill="white"/>
</svg>
