<svg width="102" height="25" viewBox="0 0 102 25" fill="none" xmlns="http://www.w3.org/2000/svg">
<path d="M54.4071 4.96204C54.4052 5.42059 54.2676 5.86829 54.0115 6.24862C53.7555 6.62896 53.3925 6.92488 52.9686 7.09904C52.5445 7.27319 52.0784 7.31777 51.6292 7.22714C51.1798 7.13652 50.7675 6.91474 50.444 6.58983C50.1206 6.26492 49.9007 5.85142 49.8119 5.40155C49.7232 4.95167 49.7697 4.48558 49.9456 4.06212C50.1214 3.63866 50.4187 3.27682 50.7999 3.02225C51.1811 2.7677 51.6293 2.63184 52.0876 2.63184C52.3929 2.63247 52.6949 2.69324 52.9767 2.81069C53.2584 2.92814 53.5143 3.09996 53.7297 3.31634C53.9451 3.53272 54.1158 3.78942 54.232 4.0718C54.3482 4.35416 54.4077 4.65667 54.4071 4.96204Z" fill="#F9F9F9"/>
<path d="M60.4095 4.96204C60.4077 5.42059 60.27 5.86829 60.0139 6.24862C59.7579 6.62896 59.395 6.92488 58.971 7.09904C58.547 7.27319 58.0809 7.31777 57.6316 7.22714C57.1823 7.13652 56.7699 6.91474 56.4464 6.58983C56.1231 6.26492 55.9031 5.85142 55.8144 5.40155C55.7256 4.95167 55.7722 4.48558 55.948 4.06212C56.1238 3.63866 56.4211 3.27682 56.8024 3.02225C57.1836 2.7677 57.6317 2.63184 58.09 2.63184C58.3953 2.63247 58.6974 2.69324 58.9792 2.81069C59.2609 2.92814 59.5168 3.09996 59.7322 3.31634C59.9475 3.53272 60.1182 3.78942 60.2345 4.0718C60.3507 4.35416 60.4102 4.65667 60.4095 4.96204Z" fill="#F9F9F9"/>
<path d="M38.1936 12.8617L41.1192 9.30422C41.3309 9.04906 41.2106 8.76022 40.893 8.76022H38.6988C38.5833 8.76163 38.4696 8.78928 38.3663 8.84093C38.263 8.89265 38.1726 8.9671 38.1022 9.05867L36.1005 11.6148V9.20789C36.1102 9.14242 36.1045 9.07562 36.0837 9.01273C36.063 8.94991 36.0279 8.8928 35.9811 8.846C35.9343 8.79921 35.8772 8.76397 35.8144 8.74327C35.7515 8.72248 35.6847 8.71678 35.6193 8.72655H34.0121C33.9465 8.71569 33.8792 8.72069 33.816 8.741C33.7526 8.76139 33.695 8.79655 33.648 8.84358C33.601 8.89069 33.5658 8.94827 33.5454 9.01163C33.5251 9.07492 33.5201 9.14226 33.531 9.20789V17.4686C33.5201 17.5342 33.5251 17.6015 33.5454 17.6649C33.5658 17.7282 33.601 17.7858 33.648 17.8329C33.695 17.88 33.7526 17.9151 33.816 17.9355C33.8792 17.9558 33.9465 17.9608 34.0121 17.95H35.6289C35.6946 17.9608 35.7618 17.9558 35.8251 17.9355C35.8885 17.9151 35.946 17.88 35.993 17.8329C36.0401 17.7858 36.0753 17.7282 36.0956 17.6649C36.116 17.6015 36.1209 17.5342 36.1101 17.4686V14.277L38.8095 17.6467C38.8689 17.7386 38.949 17.8152 39.0435 17.8704C39.1379 17.9256 39.2441 17.9578 39.3532 17.9644H41.634C41.6953 17.9641 41.7551 17.9463 41.8066 17.9132C41.858 17.8801 41.899 17.8331 41.9247 17.7775C41.9505 17.7221 41.9599 17.6603 41.9518 17.5996C41.9438 17.539 41.9187 17.4818 41.8795 17.4349L38.1936 12.8617Z" fill="#F9F9F9"/>
<path d="M83.4985 8.72095H76.6316C76.5279 8.72095 76.4283 8.7622 76.3549 8.83564C76.2815 8.90908 76.2402 9.00869 76.2402 9.11252V10.8965C76.2402 11.0003 76.2815 11.0999 76.3549 11.1734C76.4283 11.2468 76.5279 11.2881 76.6316 11.2881H78.7965V17.5729C78.7965 17.6767 78.8379 17.7763 78.9113 17.8497C78.9847 17.9232 79.0839 17.9644 79.1877 17.9644H80.9565C81.0604 17.9644 81.1604 17.9232 81.2338 17.8497C81.3072 17.7763 81.3478 17.6767 81.3478 17.5729V11.2881H83.4891C83.593 11.2881 83.6921 11.2468 83.7656 11.1734C83.839 11.0999 83.8804 11.0003 83.8804 10.8965V9.11252C83.8804 9.00869 83.839 8.90908 83.7656 8.83564C83.6921 8.7622 83.593 8.72095 83.4891 8.72095" fill="#F9F9F9"/>
<path d="M63.2299 15.9044H61.0206V14.174H63.2299C64.5817 14.174 64.6834 15.9044 63.2299 15.9044ZM61.0206 10.7859H62.6872C62.88 10.7859 63.0649 10.8624 63.2012 10.9988C63.3374 11.1352 63.414 11.3201 63.414 11.5129C63.414 11.7057 63.3374 11.8907 63.2012 12.027C63.0649 12.1634 62.88 12.24 62.6872 12.24H61.0206V10.7859ZM65.197 12.9186C66.8298 11.3481 65.7396 8.72095 63.2299 8.72095H58.9178C58.8137 8.72095 58.7139 8.76228 58.6403 8.83595C58.5667 8.90955 58.5254 9.00947 58.5254 9.11354V17.5718C58.5254 17.6759 58.5667 17.7758 58.6403 17.8494C58.7139 17.923 58.8137 17.9644 58.9178 17.9644H63.6514C66.9364 17.9644 67.8133 14.174 65.197 12.9186Z" fill="#F9F9F9"/>
<path d="M56.5024 9.11354C56.5024 9.00947 56.4611 8.90955 56.3874 8.83595C56.3139 8.76228 56.2141 8.72095 56.11 8.72095H54.0702C53.9661 8.72095 53.8663 8.76228 53.7927 8.83595C53.7191 8.90955 53.6777 9.00947 53.6777 9.11354V17.5718C53.6777 17.6759 53.7191 17.7758 53.7927 17.8494C53.8663 17.923 53.9661 17.9644 54.0702 17.9644H56.11C56.2141 17.9644 56.3139 17.923 56.3874 17.8494C56.4611 17.7758 56.5024 17.6759 56.5024 17.5718V9.11354Z" fill="#F9F9F9"/>
<path d="M97.574 12.9798H96.1902V10.8503H97.5396C98.4494 10.8503 98.7641 11.2762 98.7641 11.8908C98.7641 12.4183 98.522 12.9652 97.574 12.9652V12.9798ZM97.7677 8.72095H94.0036C93.8997 8.72095 93.8005 8.76228 93.7271 8.83579C93.6529 8.90931 93.6123 9.009 93.6123 9.11291V17.5724C93.6123 17.6764 93.6529 17.7761 93.7271 17.8496C93.8005 17.9231 93.8997 17.9644 94.0036 17.9644H95.7888C95.8926 17.9644 95.9926 17.9231 96.066 17.8496C96.1394 17.7761 96.1808 17.6764 96.1808 17.5724V15.0752H97.6318C99.702 15.0752 101.274 13.9863 101.274 11.9247C101.274 9.98888 99.6638 8.73548 97.738 8.73548" fill="#F9F9F9"/>
<path d="M86.914 14.3203L87.9277 11.2977L88.9413 14.3203H86.914ZM92.7733 17.478L89.6457 9.07667C89.616 8.9662 89.5473 8.87002 89.4528 8.80549C89.3583 8.74088 89.2435 8.71213 89.1295 8.72416H86.75C86.636 8.71088 86.5196 8.73908 86.4243 8.80377C86.3291 8.86846 86.2596 8.96526 86.2291 9.07667L83.0921 17.478C83.0601 17.5294 83.0437 17.5887 83.0445 17.649C83.0452 17.7093 83.0632 17.7681 83.096 17.8187C83.1288 17.8693 83.1757 17.9094 83.2303 17.9346C83.285 17.9598 83.3459 17.9689 83.406 17.9609H85.4037C85.488 17.9563 85.5692 17.9275 85.6379 17.8778C85.7067 17.8281 85.759 17.7598 85.7902 17.6808L86.2002 16.4496H89.6457L90.0518 17.6808C90.0823 17.7598 90.1346 17.8281 90.2033 17.8778C90.272 17.9275 90.3532 17.9563 90.4376 17.9609H92.436C92.4961 17.97 92.557 17.9617 92.6125 17.9369C92.6687 17.9123 92.7156 17.8721 92.7491 17.8213C92.7827 17.7705 92.8007 17.7112 92.8015 17.6504C92.803 17.5896 92.7858 17.5297 92.7538 17.478" fill="#F9F9F9"/>
<path d="M51.7186 17.5718V9.11354C51.7186 9.00947 51.6772 8.90955 51.6037 8.83595C51.53 8.76228 51.4302 8.72095 51.3261 8.72095H49.3882C49.3159 8.72181 49.245 8.74032 49.1817 8.77501C49.1184 8.80962 49.0645 8.85931 49.0248 8.9197L45.391 13.8735V9.11354C45.391 9.00947 45.3496 8.90955 45.2761 8.83595C45.2024 8.76228 45.1026 8.72095 44.9985 8.72095H43.2059C43.1018 8.72095 43.002 8.76228 42.9284 8.83595C42.8548 8.90955 42.8135 9.00947 42.8135 9.11354V17.5718C42.8135 17.6759 42.8548 17.7758 42.9284 17.8494C43.002 17.923 43.1018 17.9644 43.2059 17.9644H45.173C45.2444 17.9628 45.3143 17.9439 45.3767 17.9093C45.4392 17.8747 45.4923 17.8254 45.5315 17.7657L49.1653 12.8119V17.5718C49.1653 17.6759 49.2066 17.7758 49.2802 17.8494C49.3538 17.923 49.4537 17.9644 49.5577 17.9644H51.3456C51.4501 17.9644 51.5504 17.9233 51.6248 17.8497C51.6991 17.7762 51.7416 17.6764 51.7428 17.5718H51.7186Z" fill="#F9F9F9"/>
<path d="M75.6402 16.2116L74.5818 15.0948C74.5451 15.0495 74.4987 15.0129 74.446 14.9879C74.3934 14.9627 74.3358 14.9497 74.2774 14.9498C74.1789 14.9518 74.0844 14.9896 74.0117 15.0561C73.4455 15.5617 72.712 15.8391 71.953 15.8345C71.2956 15.8345 70.6651 15.5732 70.2002 15.1081C69.7353 14.643 69.474 14.0122 69.474 13.3544C69.474 12.6967 69.7353 12.0658 70.2002 11.6007C70.6651 11.1356 71.2956 10.8744 71.953 10.8744C72.7116 10.867 73.4455 11.1428 74.0117 11.6478C74.0834 11.716 74.1785 11.7541 74.2774 11.7542C74.3358 11.7542 74.3934 11.7413 74.446 11.7162C74.4987 11.6911 74.5451 11.6545 74.5818 11.6092L75.6402 10.4924C75.7092 10.4212 75.7474 10.3257 75.7464 10.2265C75.7468 10.1744 75.7367 10.1228 75.7168 10.0747C75.6969 10.0265 75.6675 9.98278 75.6305 9.94614C75.1554 9.46096 74.5875 9.0765 73.9607 8.81563C73.3338 8.55484 72.6609 8.42304 71.982 8.42812C70.706 8.46812 69.4955 9.00345 68.607 9.92067C67.7185 10.8379 67.2217 12.065 67.2217 13.3423C67.2217 14.6196 67.7185 15.8468 68.607 16.764C69.4955 17.6812 70.706 18.2166 71.982 18.2566C72.6612 18.2657 73.3352 18.1377 73.9638 17.8802C74.5923 17.6227 75.1625 17.241 75.6402 16.7579C75.6776 16.7216 75.7072 16.6779 75.7271 16.6297C75.7471 16.5815 75.757 16.5297 75.7561 16.4775C75.7571 16.3783 75.7188 16.2828 75.6498 16.2116H75.6402Z" fill="#F9F9F9"/>
<path d="M12.8821 9.5996L12.8747 9.59952C13.0906 9.59811 13.3041 9.55467 13.5033 9.47155C13.7049 9.38756 13.8878 9.26459 14.0419 9.10982C14.1959 8.95505 14.318 8.77137 14.4011 8.56941C14.4842 8.36745 14.5267 8.15104 14.5262 7.93259V1.81556C14.548 1.58549 14.5214 1.35343 14.4483 1.13422C14.3751 0.915013 14.2571 0.713498 14.1016 0.542586C13.9462 0.371673 13.7567 0.235128 13.5454 0.141695C13.3341 0.048262 13.1057 0 12.8747 0C12.6437 0 12.4153 0.048262 12.204 0.141695C11.9927 0.235128 11.8033 0.371673 11.6478 0.542586C11.4923 0.713498 11.3742 0.915013 11.3011 1.13422C11.228 1.35343 11.2015 1.58549 11.2231 1.81556V7.93259C11.2227 8.15104 11.2652 8.36745 11.3483 8.56941C11.4314 8.77137 11.5535 8.95505 11.7075 9.10982C11.8615 9.26459 12.0446 9.38756 12.2461 9.47155C12.4454 9.55467 12.6589 9.59811 12.8747 9.59952L12.8674 9.5996H12.8821Z" fill="#F9F9F9"/>
<path d="M9.00699 12.4301C8.94069 12.638 8.83409 12.8307 8.69313 12.9973C8.55217 13.1639 8.37966 13.3009 8.1856 13.4005C7.99154 13.5001 7.77972 13.5604 7.56229 13.5779C7.34486 13.5953 7.12613 13.5696 6.91867 13.5022L1.13457 11.6112C0.719155 11.4714 0.375581 11.1733 0.178301 10.7817C-0.0189788 10.3901 -0.0540735 9.93649 0.0806221 9.51922C0.215317 9.10194 0.508952 8.7545 0.897895 8.55231C1.28685 8.35012 1.73977 8.30933 2.15853 8.43895L7.94265 10.3299C8.36186 10.4676 8.7093 10.7661 8.9089 11.1598C9.10843 11.5535 9.14365 12.0103 9.00699 12.4301Z" fill="#F9F9F9"/>
<path d="M17.0725 12.9984C16.9313 12.8316 16.8245 12.6384 16.7583 12.4301C16.6226 12.0103 16.6583 11.554 16.8577 11.1604C17.0572 10.767 17.404 10.4684 17.8226 10.3299L23.6104 8.43895C24.0291 8.30933 24.4821 8.35012 24.871 8.55231C25.26 8.7545 25.5536 9.10194 25.6883 9.51922C25.823 9.93649 25.7879 10.3901 25.5906 10.7817C25.3933 11.1733 25.0498 11.4714 24.6343 11.6112L18.8503 13.5022C18.6425 13.5701 18.4235 13.5963 18.2056 13.5791C17.9878 13.5619 17.7756 13.5018 17.581 13.4021C17.3866 13.3025 17.2137 13.1653 17.0725 12.9984Z" fill="#F9F9F9"/>
<path d="M4.95929 24.6692C4.60275 24.4079 4.36404 24.016 4.29528 23.5792C4.22652 23.1424 4.33329 22.6961 4.59227 22.3378L8.16694 17.4067C8.2947 17.2301 8.45596 17.0806 8.64159 16.9665C8.82722 16.8524 9.03354 16.7762 9.24869 16.7421C9.46384 16.708 9.68359 16.7167 9.89538 16.7678C10.1072 16.8188 10.3068 16.9111 10.4828 17.0395C10.8394 17.3008 11.078 17.6927 11.1468 18.1295C11.2156 18.5663 11.1088 19.0127 10.8498 19.371L7.2788 24.2985C7.15073 24.4751 6.9891 24.6247 6.80315 24.7389C6.61721 24.8529 6.4106 24.9292 6.19516 24.9633C5.97971 24.9974 5.75965 24.9886 5.54759 24.9376C5.33552 24.8865 5.13561 24.7941 4.95929 24.6656V24.6692Z" fill="#F9F9F9"/>
<path d="M21.4712 23.5773C21.4024 24.0142 21.1636 24.406 20.8071 24.6674V24.6821C20.6311 24.8104 20.4315 24.9029 20.2197 24.9539C20.0079 25.0049 19.7882 25.0136 19.573 24.9795C19.3579 24.9454 19.1516 24.8691 18.9659 24.755C18.7803 24.6411 18.619 24.4914 18.4913 24.3149L14.9166 19.3655C14.7879 19.189 14.6952 18.9889 14.6439 18.7766C14.5925 18.5643 14.5834 18.3439 14.6171 18.1281C14.6509 17.9122 14.7268 17.7052 14.8405 17.5187C14.9542 17.3322 15.1036 17.17 15.2799 17.0413C15.4563 16.9125 15.6564 16.8198 15.8686 16.7684C16.0808 16.717 16.3011 16.7079 16.5168 16.7417C16.7325 16.7754 16.9395 16.8514 17.1259 16.9651C17.3123 17.0789 17.4744 17.2283 17.6031 17.4048L21.1742 22.3359C21.4331 22.6942 21.5399 23.1405 21.4712 23.5773Z" fill="#F9F9F9"/>
</svg>
