<svg width="79" height="25" viewBox="0 0 79 25" fill="none" xmlns="http://www.w3.org/2000/svg">
<g clip-path="url(#clip0_743_1882)">
<path fill-rule="evenodd" clip-rule="evenodd" d="M75.46 15.9075V6.45804C75.46 6.33888 75.4126 6.2793 75.2824 6.2793H73.187C73.0686 6.2793 73.0095 6.33888 73.0095 6.45804V16.5867C73.0095 18.4099 73.7079 18.7197 75.3061 18.7197C75.3534 18.7197 75.4008 18.7078 75.4363 18.6721C75.4718 18.6363 75.46 18.541 75.46 18.541V15.9075ZM36.9739 15.979V15.2521V6.52954C36.9739 6.41037 36.9148 6.35079 36.7964 6.35079H34.701C34.5826 6.35079 34.5234 6.41037 34.5234 6.52954V16.6582C34.5234 18.4814 35.2219 18.7912 36.82 18.7912C36.8674 18.7912 36.9148 18.7912 36.9503 18.7435C36.9858 18.7078 36.9858 18.6125 36.9858 18.6125L36.9739 15.979ZM43.3903 18.7316C43.2719 18.7316 43.2127 18.684 43.2127 18.5529V11.9037C43.2127 11.8322 43.1772 11.7965 43.1061 11.7965H42.5734C42.455 11.7965 42.3958 11.7488 42.3958 11.6177V10.152C42.3958 10.0329 42.4432 9.97329 42.5734 9.97329H43.1061C43.1772 9.97329 43.2127 9.93754 43.2127 9.86605V9.24641C43.2127 7.173 44.1597 6.2793 46.2078 6.2793H47.5336C47.652 6.2793 47.7112 6.32696 47.7112 6.45804V8.0548C47.7112 8.18587 47.6638 8.23354 47.5336 8.23354H46.6339C45.8526 8.23354 45.6632 8.4242 45.6632 9.163V9.86605C45.6632 9.93754 45.6987 9.97329 45.7697 9.97329H46.8944C47.0127 9.97329 47.0719 10.0329 47.0719 10.152V11.6296C47.0719 11.7488 47.0127 11.8084 46.8944 11.8084H45.7697C45.6987 11.8084 45.6632 11.8441 45.6632 11.9156V18.5648C45.6632 18.6959 45.604 18.7435 45.4856 18.7435L43.3903 18.7316ZM38.8089 18.7316C38.6905 18.7316 38.6313 18.684 38.6313 18.5529V10.152C38.6313 10.0329 38.6905 9.97329 38.8089 9.97329H40.9279C41.0463 9.97329 41.1055 10.0329 41.1055 10.152V18.5529C41.1055 18.684 41.0463 18.7316 40.9279 18.7316H38.8089ZM38.8089 8.22162C38.6905 8.22162 38.6313 8.17396 38.6313 8.04288V6.45804C38.6313 6.32696 38.6905 6.2793 38.8089 6.2793H40.9279C41.0463 6.2793 41.1055 6.32696 41.1055 6.45804V8.04288C41.1055 8.16204 41.0581 8.22162 40.9279 8.22162H38.8089ZM56.7201 16.3246C56.5425 15.8122 56.4833 15.1211 56.4833 14.2631C56.4833 13.417 56.5425 12.714 56.7201 12.2016C57.2173 10.6168 58.5668 9.77072 60.4018 9.77072C61.8105 9.77072 62.9943 10.4142 63.6218 11.3794C63.6691 11.4747 63.6691 11.5581 63.5862 11.6296L62.0473 12.6425C61.9407 12.714 61.8579 12.7021 61.7868 12.6068C61.4317 12.1063 60.97 11.856 60.4254 11.856C59.7388 11.856 59.3008 12.1539 59.0996 12.7736C58.993 13.0715 58.9457 13.572 58.9457 14.2393C58.9457 14.9185 58.993 15.407 59.0996 15.7169C59.289 16.3365 59.727 16.6344 60.4254 16.6344C60.97 16.6344 61.4317 16.3842 61.7868 15.8956C61.8579 15.8122 61.9407 15.7884 62.0473 15.8599L63.5862 16.8727C63.6691 16.9442 63.6691 17.0276 63.6218 17.123C62.9943 18.1001 61.8105 18.7316 60.4018 18.7316C58.5787 18.7555 57.2173 17.8975 56.7201 16.3246ZM69.3515 13.3575C69.4225 13.3575 69.458 13.3217 69.458 13.2502C69.458 13.0238 69.4225 12.8093 69.3751 12.6068C69.162 11.9871 68.7359 11.6654 67.9901 11.6654C67.339 11.6654 66.7352 11.9871 66.5221 12.6068C66.4748 12.7974 66.4393 13.0119 66.4393 13.2502C66.4393 13.3217 66.4748 13.3575 66.5458 13.3575H69.3515ZM64.2729 16.3007C64.0834 15.693 63.9887 15.0257 63.9887 14.2631C63.9887 13.4647 64.0598 12.7736 64.2492 12.2016C64.7464 10.6644 66.0959 9.77072 67.9072 9.77072C69.754 9.77072 71.0917 10.6763 71.5889 12.1897C71.7783 12.7855 71.8138 13.6792 71.8138 14.8351C71.8138 14.9542 71.7428 15.0138 71.6125 15.0138H66.5458C66.4748 15.0138 66.4393 15.0496 66.4393 15.1211C66.4629 15.2998 66.4511 15.4547 66.4984 15.5977C66.7234 16.3603 67.3271 16.7297 68.2623 16.7297C68.949 16.7297 69.4935 16.5152 69.8368 16.2769C70.1446 16.0624 70.1446 15.979 70.3222 16.122L71.6362 17.0634C71.7546 17.1468 71.7428 17.2183 71.6481 17.3136C70.7484 18.2669 69.5527 18.7555 68.0256 18.7555C66.1196 18.7555 64.7701 17.8618 64.2729 16.3007ZM53.0976 13.3575C53.1686 13.3575 53.2041 13.3217 53.2041 13.2502C53.2041 13.0238 53.1686 12.8093 53.1213 12.6068C52.9082 11.9871 52.482 11.6654 51.7362 11.6654C51.0733 11.6654 50.4695 11.9871 50.2683 12.6068C50.2091 12.7974 50.1854 13.0119 50.1854 13.2502C50.1854 13.3217 50.2209 13.3575 50.2919 13.3575H53.0976ZM48.019 16.3007C47.8296 15.693 47.7467 15.0257 47.7467 14.2631C47.7467 13.4647 47.8177 12.7736 48.0072 12.2016C48.5044 10.6644 49.8539 9.77072 51.677 9.77072C53.5238 9.77072 54.8615 10.6763 55.3587 12.1897C55.5481 12.7855 55.5836 13.6792 55.5836 14.8351C55.5836 14.9542 55.5126 15.0138 55.3942 15.0138H50.3274C50.2564 15.0138 50.2209 15.0496 50.2209 15.1211C50.2327 15.2998 50.2327 15.4547 50.2801 15.5977C50.505 16.3603 51.1088 16.7297 52.044 16.7297C52.7306 16.7297 53.2752 16.5152 53.6185 16.2769C53.9263 16.0624 53.9263 15.979 54.1038 16.122L55.4179 17.0634C55.5363 17.1468 55.5244 17.2183 55.4416 17.3136C54.5419 18.2669 53.3462 18.7555 51.8072 18.7555C49.8776 18.7555 48.5162 17.8618 48.019 16.3007Z" fill="#F9F9F9"/>
<mask id="mask0_743_1882" style="mask-type:luminance" maskUnits="userSpaceOnUse" x="76" y="6" width="4" height="13">
<path fill-rule="evenodd" clip-rule="evenodd" d="M76.5508 6.28516H79.0013V18.7256H76.5508V6.28516Z" fill="white"/>
</mask>
<g mask="url(#mask0_743_1882)">
<path fill-rule="evenodd" clip-rule="evenodd" d="M79.0013 15.9134V15.1865V6.4639C79.0013 6.34474 78.9421 6.28516 78.8237 6.28516H76.7284C76.61 6.28516 76.5508 6.34474 76.5508 6.4639V16.5926C76.5508 18.4158 77.2492 18.7256 78.8474 18.7256C78.8947 18.7256 78.9421 18.7137 78.9776 18.6779C79.0131 18.6422 79.0131 18.5468 79.0131 18.5468V15.9134H79.0013Z" fill="#F9F9F9"/>
</g>
<mask id="mask1_743_1882" style="mask-type:luminance" maskUnits="userSpaceOnUse" x="0" y="0" width="25" height="25">
<path fill-rule="evenodd" clip-rule="evenodd" d="M0 0H24.4696V25H0V0Z" fill="white"/>
</mask>
<g mask="url(#mask1_743_1882)">
<path fill-rule="evenodd" clip-rule="evenodd" d="M22.5516 5.8507C21.6401 4.40885 20.5391 3.21724 19.2487 2.2997C17.9584 1.38216 16.4904 0.726776 14.8331 0.333544C12.1221 -0.309926 9.48222 -0.0120231 6.93701 1.13192C5.52826 1.76348 4.28525 2.63335 3.21981 3.75347C1.88209 5.13574 0.91136 6.70866 0.319449 8.46033L0.307611 8.508C0.283935 8.56758 0.272097 8.62716 0.24842 8.69865C-0.355329 10.7244 0.212905 11.8445 1.10077 10.9031C1.13629 10.8674 1.1718 10.8197 1.20732 10.784C1.21915 10.7721 1.23099 10.7482 1.24283 10.7363C2.28459 9.42554 3.9301 8.32926 3.9301 8.32926C4.35628 8.03135 4.78245 7.75728 5.24414 7.50704C5.76503 7.19722 6.30958 6.92315 6.81863 6.7325C6.81863 6.7325 7.29216 6.51801 7.41054 5.86262L7.42238 5.82687C7.42238 5.81496 7.42238 5.81496 7.42238 5.80304C7.50524 5.2549 8.08532 3.74155 9.74267 3.64622C10.2635 3.57473 10.7726 3.67006 11.2224 3.88455C12.0156 4.26586 12.6312 5.02849 12.7496 5.94603C12.8443 6.67292 12.6785 7.36405 12.2997 7.91219C12.276 7.94794 12.2524 7.97177 12.2287 8.00752L12.205 8.03135C11.8972 8.4365 11.471 8.74632 10.962 8.92506C10.6542 9.04422 10.3464 9.09189 10.0505 9.1038C9.86105 9.12763 9.6598 9.1038 9.44671 9.05614C9.20995 9.00847 8.99686 8.92506 8.81929 8.82973C8.49965 8.67482 8.23921 8.508 8.14451 8.42458C8.07348 8.35309 7.99061 8.31734 7.90774 8.29351C7.73017 8.26967 7.58811 8.29351 7.48157 8.34117C7.42238 8.365 7.37502 8.40075 7.35135 8.42458C6.96069 8.75823 6.58186 9.1038 6.22672 9.4732C5.2915 10.4622 4.49834 11.5943 4.13135 12.1424C3.94194 12.4522 3.75253 12.7859 3.57496 13.1076C3.40922 13.4174 3.26716 13.7273 3.12511 14.0371C2.91202 14.5375 2.69893 15.0738 2.50952 15.6457L2.48584 15.7292L2.45033 15.8364L2.41481 15.9436C1.27834 19.864 3.32635 22.1281 5.0429 19.7687C5.1376 19.6138 5.23231 19.4708 5.32701 19.3278C7.12642 16.1939 10.8081 13.9298 10.8081 13.9298C11.033 13.7868 11.258 13.6438 11.4947 13.5128L11.5421 13.4889C12.1695 13.1195 12.8206 12.7978 13.4954 12.5118C14.0873 12.2497 14.7266 11.9994 15.2474 11.8683C15.2474 11.8683 15.863 11.7015 16.0288 10.9508C16.1471 10.4027 16.5378 9.60428 17.4257 9.1753C17.6388 9.06805 17.8518 8.98464 18.0768 8.93698C18.3135 8.88931 18.5503 8.86548 18.7871 8.8774C18.941 8.8774 19.0593 8.88931 19.1777 8.92506C20.3023 9.13955 21.2257 10.069 21.3678 11.2964C21.5335 12.7859 20.5036 14.1324 19.0357 14.3111C18.3017 14.4065 17.6388 14.2396 17.0705 13.8107C16.4313 13.5485 15.9459 13.7153 15.7683 13.7987C15.2119 14.0967 14.6792 14.4422 14.1702 14.8116C13.2231 15.5147 12.4773 16.2535 12.1813 16.5633C11.5302 17.2425 10.9502 17.9694 10.453 18.732L10.3701 18.8631L10.3464 18.8988C9.82553 19.733 9.28098 20.7935 8.83112 22.0685C8.79561 22.1639 8.76009 22.2711 8.72458 22.3664C8.23921 24.0109 9.29281 24.6662 10.5003 24.9046C10.5003 24.9046 11.4474 25.0833 12.8206 24.988C12.9035 24.9761 12.9745 24.9761 13.0337 24.9641C13.377 24.9165 13.7203 24.8807 14.0636 24.8212C16.4194 24.416 18.5148 23.427 20.2905 21.8183C22.5279 19.7926 23.8893 17.2663 24.3037 14.2635C24.7654 11.2368 24.1734 8.41267 22.5516 5.8507Z" fill="#F9F9F9"/>
</g>
</g>
<defs>
<clipPath id="clip0_743_1882">
<rect width="79" height="25" fill="white"/>
</clipPath>
</defs>
</svg>
