<svg width="40" height="50" viewBox="0 0 40 50" fill="none" xmlns="http://www.w3.org/2000/svg">
<path d="M20 0.75C25.2108 0.750053 29.7244 2.58601 33.5293 6.25488C37.2252 9.81871 39.1286 14.4459 39.2441 20.1143L39.25 20.667C39.2499 24.725 37.6368 29.1517 34.4541 33.9404C31.3056 38.6777 26.6057 43.7799 20.3652 49.25H19.6348C13.3943 43.7799 8.69443 38.6777 5.5459 33.9404C2.36321 29.1517 0.750131 24.725 0.75 20.667C0.750053 14.7463 2.65473 9.93369 6.46973 6.25488C10.1558 2.70062 14.5076 0.866981 19.5137 0.755859L20 0.75Z" fill="#967437" stroke="#231F20" stroke-width="1.5"/>
<path d="M6.74707 20.002C6.98712 19.7738 7.24644 19.581 7.49414 19.4063C7.82663 19.1718 8.1185 18.9823 8.39746 18.7618C7.72896 19.1034 7.16404 19.4901 6.74707 20.002ZM28.207 19.6046L27.417 19.043C26.9627 18.7204 26.4623 18.7558 26.0146 19.044C25.5512 19.3425 25.1786 19.9012 25.0947 20.5372C25.0312 21.0174 25.0992 21.5123 25.124 22.1309C25.1357 22.4235 25.1348 22.7455 25.0811 23.0665C25.3204 23.0063 25.4866 22.913 25.5967 22.7647V22.7637C25.6206 22.7313 25.651 22.6653 25.6846 22.5294C25.7007 22.4639 25.7149 22.3942 25.7314 22.3126C25.7472 22.2346 25.766 22.1439 25.7881 22.0547C25.8307 21.8831 25.9 21.6591 26.0479 21.4649C26.2114 21.2501 26.447 21.1022 26.7529 21.0567L27.249 20.9835L27.3213 21.4796C27.4406 22.301 27.1966 22.9945 26.7246 23.5147C26.2648 24.0212 25.6131 24.3396 24.9355 24.4942C23.6124 24.796 21.9424 24.5178 21.0537 23.4337L21.0527 23.4327C21.0071 23.3767 20.9589 23.2962 20.9238 23.2344C20.8817 23.1602 20.8327 23.0671 20.7812 22.962C20.6788 22.7528 20.5603 22.4816 20.4736 22.2042C20.3914 21.9411 20.3178 21.6106 20.3564 21.3087C20.3767 21.1505 20.4317 20.966 20.5664 20.8077C20.6728 20.6828 20.8075 20.599 20.9551 20.5518L21.1064 20.5167C21.2931 20.4885 21.4777 20.5248 21.6367 20.6251C21.7845 20.7183 21.8803 20.8477 21.9424 20.96C22.0616 21.1756 22.1179 21.44 22.1514 21.6514C22.1862 21.8713 22.2068 22.1094 22.2246 22.2784C22.2341 22.3683 22.2419 22.4384 22.251 22.4913C22.2549 22.5142 22.258 22.5286 22.2598 22.5362C22.3641 22.7481 22.4391 22.7856 22.5098 22.8145C22.527 22.8215 22.546 22.8274 22.5664 22.834C22.6212 22.2586 22.8583 21.754 23.0869 21.3243C23.261 20.9971 23.4143 20.7408 23.5508 20.4561C23.6487 20.2519 23.721 20.0658 23.7617 19.8887L23.792 19.7139C23.869 19.021 23.6033 18.6612 23.2539 18.4874C22.8587 18.2909 22.2427 18.2785 21.582 18.5567L20.2549 19.1163L20.9502 17.8546C21.0243 17.7202 21.0901 17.5896 21.126 17.4571C21.1603 17.3303 21.1605 17.2277 21.127 17.1368L20.8701 16.4434L21.6094 16.4639C23.3621 16.5124 25.0209 16.6748 26.5332 17.0049C25.0397 16.6124 23.3553 16.3956 21.5967 16.2188L20.8359 16.1426L21.2109 15.4766C21.4569 15.0397 21.4233 14.6119 21.2373 14.2452C21.0427 13.8616 20.6872 13.5622 20.3398 13.4395L20.1064 13.3575L20.0312 13.1221C19.9682 12.9264 19.9354 12.7059 19.957 12.4424L19.9883 12.0635L20.3613 11.9922C20.7615 11.9157 21.0619 11.9955 21.3076 12.1485C21.3172 12.1544 21.3257 12.1619 21.335 12.168C21.3687 12.0605 21.3896 11.9272 21.3818 11.7706C21.3756 11.6449 21.3524 11.5383 21.3223 11.4503C21.2964 11.4642 21.27 11.477 21.2441 11.4883C20.9842 11.6027 20.6425 11.6318 20.3291 11.4698L20.1416 11.3721L20.0801 11.169C20.0134 10.9466 20.0481 10.7452 20.1211 10.5831C20.0365 10.5625 19.9376 10.5354 19.8418 10.5001H19.2275C19.2019 10.5072 19.1766 10.5147 19.1514 10.5215C19.2177 10.6209 19.2765 10.7325 19.3213 10.8594L19.4297 11.1641L19.1943 11.3878C19.003 11.5698 18.7671 11.6696 18.5088 11.6505C18.2766 11.6332 18.095 11.5241 17.9824 11.4415C17.9813 11.4406 17.9797 11.4404 17.9785 11.4395C17.9625 11.4746 17.9481 11.51 17.9355 11.544C17.9083 11.6178 17.8984 11.6652 17.8965 11.6807C17.8784 11.8293 17.9048 12.0033 17.9658 12.1924C18.0359 12.1393 18.1184 12.0903 18.2178 12.0567C18.4275 11.9858 18.6487 11.9968 18.8682 12.0518L19.2158 12.1387L19.2451 12.4962C19.2725 12.8339 19.1823 13.115 19.0068 13.3428C18.8497 13.5467 18.6404 13.6841 18.4922 13.7784C18.147 13.9981 17.9948 14.0919 17.9287 14.3047C17.8115 14.6825 17.8959 14.9554 18.2051 15.543L18.5664 16.2296L17.792 16.2745C15.8234 16.3904 14.0446 16.6931 12.4473 17.1739C14.0442 16.8091 15.7112 16.4589 17.7109 16.463L18.4287 16.4649L18.1787 17.1378C18.156 17.1988 18.1459 17.3144 18.1729 17.4424C18.1854 17.5019 18.203 17.5487 18.2188 17.5792C18.2366 17.6136 18.2404 17.6061 18.2129 17.586L17.7393 18.4561C17.2649 18.2752 16.7249 18.2728 16.2949 18.4171C15.9166 18.544 15.682 18.7585 15.5898 19.0059L15.5586 19.1133C15.4354 19.7247 15.7068 20.3033 16.0811 21.086C16.3352 21.6176 16.6423 22.2569 16.6709 22.9688C16.6963 22.9581 16.7216 22.9486 16.7451 22.9366C16.895 22.8598 17.0265 22.7434 17.1416 22.5421C17.1497 22.4957 17.1589 22.4311 17.1709 22.3467C17.1941 22.1841 17.2254 21.9628 17.2656 21.7442C17.3049 21.5311 17.3583 21.2892 17.4365 21.0899C17.475 20.9918 17.5308 20.8732 17.6143 20.7706C17.6863 20.682 17.816 20.5622 18.0078 20.5235L18.0938 20.5118C18.2821 20.5001 18.4817 20.5426 18.6504 20.6749C18.8124 20.802 18.8941 20.9713 18.9346 21.1153C19.0104 21.3855 18.9785 21.6945 18.9336 21.9346C18.8855 22.1919 18.8061 22.4519 18.7285 22.6631C18.6743 22.8106 18.6106 22.9622 18.5479 23.0792L18.4863 23.1827C17.8373 24.1325 16.6134 24.5666 15.4707 24.5821C14.326 24.5975 13.0829 24.1964 12.3867 23.251C12.2617 23.0815 12.088 22.8094 11.999 22.4854C11.907 22.1502 11.9004 21.7266 12.167 21.3272L12.3672 21.0274L12.7158 21.1231C13.289 21.2814 13.4828 21.7481 13.5752 22.0674C13.5986 22.1482 13.6178 22.2293 13.6348 22.2999C13.6525 22.3738 13.6672 22.436 13.6836 22.4962C13.7004 22.5577 13.7164 22.6057 13.7314 22.6436L13.7754 22.7305C13.8975 22.9133 14.0348 23.0016 14.3018 23.0714C14.2641 22.7909 14.2606 22.5095 14.2646 22.2481C14.2739 21.6532 14.3212 21.1407 14.2617 20.6378C14.1813 19.9544 13.8709 19.4671 13.4629 19.209C13.0614 18.9551 12.4904 18.8759 11.7822 19.1553L11.0986 19.4258V17.6358L11.0801 17.6426L10.8564 17.4483C10.4662 17.1091 10.0276 16.8934 9.48926 16.5421C9.3546 16.4542 9.21817 16.3591 9.08398 16.2549C9.05885 16.4081 9.02976 16.5557 8.99902 16.6983C8.88073 17.2471 8.76357 17.6965 8.7832 18.2403L8.79395 18.5626L8.70215 18.6085L8.8291 18.629C8.99644 18.656 9.12282 18.741 9.20898 18.8389C9.24223 18.8768 9.2679 18.9174 9.28809 18.9512L10.5127 19.2891L9.20605 19.8516C8.83798 20.01 8.63072 20.1001 8.50781 20.2315C8.44291 20.301 8.3515 20.4307 8.45605 20.8311C8.59552 21.364 8.9809 21.8441 9.45508 22.4229C9.716 22.7414 10.0117 23.1016 10.2422 23.503C10.2442 23.0967 10.1323 22.6619 10.0693 22.2803L9.89258 21.2061L10.8223 21.7715C11.599 22.2435 11.806 23.0548 11.6455 23.7598C11.4998 24.3995 11.0433 25.008 10.3818 25.2725L10.2471 25.3204C8.56309 25.8527 7.04212 24.62 6.70898 23.2335L6.42383 22.0469L7.45996 22.6924C7.70325 22.8441 7.89331 23.0574 8.04492 23.2413C8.11619 23.3277 8.17746 23.4065 8.23633 23.4805C8.17518 23.327 8.11596 23.1649 8.06348 22.9922C7.98759 22.7426 7.91262 22.4341 7.84766 22.2022C7.77639 21.9479 7.70389 21.729 7.61426 21.5489C7.52536 21.3704 7.4317 21.2561 7.33301 21.1866C7.24198 21.1226 7.11265 21.0723 6.90137 21.0792L5.74414 21.1172L6.24512 20.5489L5.89746 20.2667C5.334 19.8113 4.77676 19.3904 4.15625 19.0538C4.27242 19.2968 4.38528 19.5427 4.49219 19.7813C4.63881 20.1085 4.81743 20.4369 5.00293 20.8077C5.17874 21.1591 5.3583 21.5432 5.45312 21.9122V21.9131C5.49713 22.085 5.52887 22.2643 5.55371 22.3858C5.58207 22.5245 5.60417 22.6033 5.62695 22.6534C5.63029 22.6607 5.63351 22.666 5.63574 22.67C5.65335 22.6735 5.69058 22.6773 5.75684 22.6719L6.05273 22.6485L6.21484 22.8965C6.85418 23.872 7.52019 24.8555 8.1416 25.8799L8.25684 26.0704L8.19238 26.2833C8.12936 26.494 8.16071 26.6449 8.20312 26.7217C8.23679 26.7827 8.28808 26.8244 8.39453 26.8262L8.72949 26.8321L8.85156 27.1436C8.90943 27.2909 9.00058 27.414 9.13867 27.5899C9.21315 27.6848 9.30314 27.8009 9.3916 27.9366C15.6504 26.6601 23.6273 26.8543 30.0596 27.8057C30.1295 27.6748 30.2013 27.5512 30.2715 27.4346C30.4052 27.2125 30.5237 27.0259 30.6328 26.8214L30.7764 26.5508L31.083 26.5567C31.1911 26.5587 31.2654 26.5095 31.3125 26.4171C31.3643 26.3153 31.3808 26.1526 31.2969 25.9776L31.1611 25.6944L31.3564 25.4493C31.6833 25.0402 31.9678 24.58 32.2744 24.087C32.5746 23.6044 32.8959 23.0913 33.2803 22.6329L33.4297 22.4551L33.6611 22.4542C33.7464 22.4537 33.8107 22.438 33.8877 22.4053C34.0084 21.7076 34.0957 21.2276 34.3965 20.5411C34.6254 20.0189 34.8508 19.5049 35.0732 19.003C35.0125 19.0342 34.9525 19.0651 34.8936 19.0958C34.3888 19.358 33.942 19.6108 33.5801 19.9297L33.2363 20.2315L33.8398 20.7569L32.6729 20.8614C32.1646 20.9072 31.8088 21.3173 31.5039 22.1212C31.358 22.506 31.2423 22.9311 31.1279 23.3633C31.1558 23.3261 31.1859 23.2887 31.2158 23.2481C31.2764 23.1659 31.3438 23.0743 31.415 22.9874C31.5538 22.818 31.744 22.6172 32.0078 22.4981L33.1426 21.9854L32.6768 23.1407C32.4795 23.6303 32.2308 24.324 31.627 24.7618C30.9424 25.2586 30.026 25.3293 29.2832 25.1407C28.5631 24.9578 27.79 24.4633 27.6777 23.6143V23.6133C27.5523 22.6569 28.0963 21.8505 28.792 21.5284L29.8896 21.0206L29.4707 22.1553C29.3335 22.5277 29.1793 23.0003 29.1689 23.378V23.379C29.3108 23.1357 29.4828 22.9246 29.6484 22.7374C30.0136 22.3245 30.3196 22.0439 30.54 21.6729H30.541C30.7651 21.2968 30.9927 20.782 31.0068 20.3917C31.0134 20.21 30.9716 20.1143 30.9238 20.0606C30.8765 20.0076 30.7504 19.914 30.417 19.8907L29.9258 19.8565L29.9531 19.3643C29.9667 19.1194 30.0736 18.9585 30.1396 18.8682C30.1618 18.838 30.175 18.8198 30.1816 18.8106L30.334 18.2296L30.8887 18.5167C31.6801 18.9259 32.3444 19.4532 32.9561 19.9864L33.0107 20.0352L32.8809 19.8926C32.3637 19.3292 31.6786 18.9594 30.9072 18.4639L30.6602 18.3047L30.6787 18.0118C30.7135 17.4481 30.6319 17.0068 30.5225 16.5547C30.4712 16.3429 30.4101 16.1165 30.3545 15.8731C30.0977 16.038 29.8303 16.1888 29.585 16.3292C29.0531 16.6334 28.5926 16.91 28.2812 17.2481L28.1143 17.4297L28.207 17.4571V19.6046Z" fill="#231F20" stroke="#231F20"/>
</svg>
