<svg width="21" height="25" viewBox="0 0 21 25" fill="none" xmlns="http://www.w3.org/2000/svg">
<path d="M10.0996 0.25C12.7666 0.25 15.0795 1.17664 17.0244 3.02441C18.9787 4.8811 19.9502 7.30875 19.9502 10.2822C19.9502 12.3323 19.1235 14.558 17.5078 16.9531C15.8914 19.3493 13.4731 21.9279 10.2627 24.6895H9.93652C6.72627 21.928 4.30877 19.3492 2.69238 16.9531C1.07672 14.558 0.250036 12.3323 0.25 10.2822C0.25 7.30871 1.22145 4.88111 3.17578 3.02441C5.12061 1.17674 7.43283 0.250091 10.0996 0.25ZM10.0996 2.63184C7.98139 2.63192 6.21889 3.34915 4.79492 4.78223C3.3733 6.21306 2.6582 8.03936 2.6582 10.2822C2.65824 11.7395 3.28995 13.4697 4.59766 15.4814C5.87239 17.4424 7.7044 19.4964 10.0996 21.6436C12.4951 19.4962 14.3277 17.4425 15.6025 15.4814C16.9102 13.4697 17.542 11.7395 17.542 10.2822C17.542 8.03941 16.8268 6.21304 15.4053 4.78223C13.9812 3.34906 12.218 2.63184 10.0996 2.63184Z" fill="#F9F9F9" stroke="#F9F9F9" stroke-width="0.5" stroke-linejoin="bevel"/>
<path d="M9.99902 7.45001C10.6991 7.45001 11.3046 7.69875 11.8008 8.19122C12.297 8.6838 12.5488 9.28559 12.5488 9.98224C12.5488 10.6789 12.297 11.2807 11.8008 11.7733C11.3046 12.2657 10.6991 12.5145 9.99902 12.5145C9.29915 12.5144 8.69429 12.2655 8.19824 11.7733C7.70202 11.2807 7.4502 10.6789 7.4502 9.98224C7.4502 9.28559 7.70202 8.6838 8.19824 8.19122C8.69428 7.69896 9.29916 7.45008 9.99902 7.45001Z" fill="#F9F9F9" stroke="#F9F9F9" stroke-width="0.5" stroke-linejoin="bevel"/>
</svg>
