<svg width="32" height="32" viewBox="0 0 32 32" fill="none" xmlns="http://www.w3.org/2000/svg">
<path d="M16 32C24.8366 32 32 24.8366 32 16C32 7.16344 24.8366 0 16 0C7.16344 0 0 7.16344 0 16C0 24.8366 7.16344 32 16 32Z" fill="url(#paint0_linear_743_803)"/>
<path d="M23.9848 9.38148C24.1272 8.46094 23.252 7.73434 22.4334 8.09371L6.13129 15.2512C5.54433 15.5089 5.58727 16.3981 6.19603 16.5919L9.5579 17.6625C10.1996 17.8669 10.8944 17.7611 11.4547 17.3741L19.0344 12.1375C19.2629 11.9795 19.5121 12.3046 19.3168 12.5058L13.8608 18.131C13.3315 18.6767 13.4365 19.6014 14.0732 20.0006L20.1818 23.8312C20.8669 24.2608 21.7483 23.8293 21.8764 23.0013L23.9848 9.38148Z" fill="white"/>
<defs>
<linearGradient id="paint0_linear_743_803" x1="16" y1="0" x2="16" y2="32" gradientUnits="userSpaceOnUse">
<stop stop-color="#37BBFE"/>
<stop offset="1" stop-color="#007DBB"/>
</linearGradient>
</defs>
</svg>
