<svg width="24" height="24" viewBox="0 0 24 24" fill="none" xmlns="http://www.w3.org/2000/svg">
<path d="M13.0294 0.0200094C14.3487 7.60314e-08 15.6582 0.0104049 16.967 0C17.0105 1.62556 17.6746 3.08864 18.7311 4.17235L18.7295 4.17075C19.8667 5.18802 21.3463 5.84753 22.9774 5.95958L23 5.96118V9.99186C21.4591 9.95344 20.0101 9.60048 18.7037 8.9938L18.7698 9.02101C18.138 8.71927 17.6037 8.40952 17.096 8.06376L17.1379 8.09098C17.1282 11.0115 17.1475 13.9321 17.1177 16.8423C17.0347 18.3254 16.5383 19.678 15.7421 20.8073L15.7582 20.7825C14.4268 22.6762 12.2702 23.9192 9.81788 23.9928H9.80659C9.70747 23.9976 9.59061 24 9.47295 24C8.07874 24 6.7756 23.6142 5.66507 22.9443L5.69731 22.9627C3.67611 21.755 2.2819 19.6884 2.02401 17.2849L2.02079 17.2521C2.00064 16.7518 1.99097 16.2516 2.01111 15.7618C2.40601 11.9368 5.63283 8.97779 9.55515 8.97779C9.99598 8.97779 10.4279 9.01541 10.8478 9.08664L10.8027 9.08024C10.8228 10.5601 10.7624 12.0408 10.7624 13.5207C10.4215 13.3983 10.0282 13.327 9.61801 13.327C8.11259 13.327 6.83201 14.2827 6.35815 15.6169L6.35089 15.6409C6.24371 15.9827 6.18165 16.3756 6.18165 16.7822C6.18165 16.9471 6.19213 17.1104 6.21147 17.2705L6.20986 17.2513C6.47742 18.8888 7.89097 20.1246 9.59545 20.1246C9.64461 20.1246 9.69296 20.1238 9.74132 20.1214H9.73406C10.9131 20.0862 11.9366 19.4563 12.5152 18.5254L12.5233 18.511C12.7385 18.2133 12.8859 17.8531 12.9351 17.4617L12.9359 17.4505C13.0366 15.6601 12.9964 13.8801 13.006 12.0896C13.0157 8.05896 12.9964 4.03788 13.0262 0.0176083L13.0294 0.0200094Z" fill="white"/>
</svg>
