<svg width="17" height="24" viewBox="0 0 17 24" fill="none" xmlns="http://www.w3.org/2000/svg">
<path d="M8.40173 24C7.48459 24 6.58927 23.8667 5.7158 23.6C4.85324 23.344 4.11625 22.9867 3.50482 22.528C2.74053 21.984 2.14547 21.2907 1.71965 20.448C1.29383 19.6053 1.08092 18.6987 1.08092 17.728C1.08092 16.8853 1.25016 16.1227 1.58863 15.44C1.93802 14.7573 2.42389 14.144 3.04624 13.6C3.08992 13.5787 3.14451 13.536 3.21002 13.472C3.27553 13.408 3.35196 13.3387 3.43931 13.264H8.46725C7.98683 13.5307 7.54464 13.7547 7.14066 13.936C6.74759 14.1173 6.37091 14.2987 6.0106 14.48C5.65029 14.6507 5.3009 14.864 4.96243 15.12C4.51477 15.4827 4.17084 15.872 3.93064 16.288C3.69043 16.704 3.57033 17.216 3.57033 17.824C3.57033 18.3893 3.67405 18.896 3.8815 19.344C4.09987 19.792 4.40013 20.1813 4.78227 20.512C5.30636 20.96 5.90141 21.2747 6.56744 21.456C7.23346 21.6373 7.86127 21.728 8.45087 21.728C9.26975 21.728 9.99583 21.5733 10.6291 21.264C11.2733 20.9547 11.8356 20.5173 12.316 19.952C12.5999 19.664 12.8346 19.328 13.0202 18.944C13.2168 18.56 13.3532 18.16 13.4297 17.744H15.8863C15.8099 18.384 15.6352 19.0133 15.3622 19.632C15.0893 20.24 14.7399 20.7947 14.3141 21.296C13.6262 22.16 12.7746 22.8267 11.7592 23.296C10.7437 23.7653 9.6246 24 8.40173 24ZM0 15.28V13.264H17V15.28H0ZM0 10.768V8.752H17V10.768H0ZM8.51638 10.768C8.82209 10.6187 9.14965 10.4587 9.49904 10.288C9.85934 10.1173 10.2087 9.94667 10.5472 9.776C10.8857 9.59467 11.1914 9.408 11.4644 9.216C11.7482 9.024 11.9666 8.82667 12.1195 8.624C12.4361 8.28267 12.6654 7.92 12.8073 7.536C12.9493 7.14133 13.0202 6.73067 13.0202 6.304C13.0202 5.68533 12.9056 5.136 12.6763 4.656C12.4579 4.176 12.1631 3.77067 11.7919 3.44C11.4316 3.10933 10.973 2.832 10.4162 2.608C9.87026 2.384 9.26975 2.272 8.61464 2.272C7.92678 2.272 7.30443 2.40533 6.74759 2.672C6.20167 2.928 5.73218 3.248 5.33911 3.632C4.98972 3.984 4.70039 4.384 4.4711 4.832C4.25273 5.28 4.11625 5.75467 4.06166 6.256H1.57225C1.63777 5.456 1.83976 4.69867 2.17823 3.984C2.52762 3.26933 2.96435 2.65067 3.48844 2.128C4.12171 1.456 4.87508 0.933332 5.74856 0.559999C6.63295 0.186666 7.58831 0 8.61464 0C9.54271 0 10.4326 0.154666 11.2842 0.463999C12.1358 0.762665 12.8674 1.18933 13.4788 1.744C14.1012 2.29867 14.5925 2.976 14.9528 3.776C15.324 4.56533 15.5096 5.424 15.5096 6.352C15.5096 7.04533 15.395 7.69067 15.1657 8.288C14.9364 8.88533 14.587 9.46667 14.1175 10.032C13.9101 10.288 13.659 10.5333 13.3642 10.768H8.51638Z" fill="#F9F9F9"/>
</svg>
