<svg width="31" height="32" viewBox="0 0 31 32" fill="none" xmlns="http://www.w3.org/2000/svg">
<path d="M14.9998 5.82824C16.1346 5.80186 17.2624 6.01299 18.3107 6.44809C19.3591 6.88319 20.305 7.53266 21.0876 8.3548C21.8702 9.17695 22.4723 10.1536 22.8553 11.2222C23.2382 12.2907 23.3936 13.4275 23.3114 14.5596C23.2954 14.7795 23.1042 14.9447 22.8843 14.9288C22.6644 14.9128 22.499 14.7216 22.515 14.5017C22.5892 13.4806 22.4491 12.4553 22.1037 11.4915C21.7582 10.5278 21.2152 9.6468 20.5093 8.90526C19.8034 8.16373 18.9503 7.57795 18.0047 7.18551C17.0591 6.79307 16.0419 6.6026 15.0184 6.6264C14.798 6.63153 14.6151 6.45705 14.61 6.23664C14.6048 6.01623 14.7794 5.83337 14.9998 5.82824ZM15.7272 7.90399C16.4729 7.90317 17.211 8.05376 17.8968 8.34662C18.5826 8.63947 19.2017 9.06847 19.7168 9.60767C20.2319 10.1469 20.6321 10.7851 20.8933 11.4836C21.1544 12.1821 21.2711 12.9263 21.2361 13.6711C21.2258 13.8914 21.0389 14.0615 20.8187 14.0512C20.5984 14.0408 20.4283 13.8539 20.4386 13.6337C20.4685 12.9968 20.3688 12.3604 20.1455 11.7632C19.9222 11.1659 19.5799 10.6203 19.1395 10.1592C18.699 9.69815 18.1696 9.33126 17.5832 9.08084C16.9968 8.83044 16.3657 8.70169 15.7281 8.70238C15.5076 8.70263 15.3287 8.52405 15.3285 8.30358C15.3282 8.08313 15.5067 7.90425 15.7272 7.90399ZM16.273 10.0599C16.6557 10.0469 17.037 10.1127 17.3932 10.2533C17.7494 10.3938 18.0729 10.6059 18.3436 10.8767C18.6144 11.1474 18.8266 11.471 18.9671 11.8272C19.1077 12.1834 19.1735 12.5647 19.1605 12.9474C19.153 13.1677 18.9683 13.3403 18.748 13.3328C18.5277 13.3253 18.3551 13.1406 18.3626 12.9203C18.3719 12.647 18.3249 12.3746 18.2245 12.1202C18.1241 11.8658 17.9725 11.6347 17.7791 11.4413C17.5857 11.2478 17.3546 11.0963 17.1002 10.9959C16.8458 10.8955 16.5734 10.8485 16.3001 10.8578C16.0797 10.8653 15.895 10.6927 15.8876 10.4723C15.8801 10.252 16.0526 10.0674 16.273 10.0599Z" fill="#665CA7"/>
<path d="M17.8042 17.4848C18.3365 16.7929 18.9752 16.6864 19.7203 17.1655L22.5946 19.3211C23.0204 19.8534 22.8341 20.5986 22.0357 21.5567C21.2373 22.5147 20.4921 22.9139 19.8002 22.7542C16.9792 22.1155 14.2646 20.5187 11.6566 17.9639C9.04847 15.409 7.42507 12.6412 6.78635 9.66057C6.78635 8.59605 7.45168 7.6912 8.78234 6.94603C9.47428 6.467 10.0598 6.60006 10.5388 7.34523L12.5348 10.1396C12.8541 10.7783 12.6679 11.3638 11.9759 11.8961C8.86218 13.0937 16.0477 20.8381 17.8042 17.4848ZM2.39518 14.1316C2.39518 20.3591 3.51294 21.7163 5.2694 23.5526C5.82828 24.1115 7.82427 25.0696 8.3033 25.0696V30.5785C8.3033 30.8979 8.62266 31.1374 8.94202 30.818L13.1735 25.7881L15.2493 25.868C26.7462 25.868 28.1035 21.397 28.1035 14.1316C28.1035 6.86619 26.7462 2.39518 15.2493 2.39518C3.75245 2.39518 2.39518 6.86619 2.39518 14.1316ZM0 14.1316C0 4.07181 4.39117 0 15.2493 0C26.1075 0 30.4987 4.07181 30.4987 14.1316C30.4987 24.1914 26.1075 28.2632 15.2493 28.2632C14.4509 28.2632 13.8122 28.2632 12.6945 28.1035L9.66057 31.5366C9.1017 32.1753 7.42507 32.4148 7.42507 30.4987V27.1454C6.94603 27.1454 5.82828 26.6664 4.31133 25.7083C2.79438 24.6704 0 22.1954 0 14.1316Z" fill="#665CA7"/>
</svg>
