<svg width="102" height="25" viewBox="0 0 102 25" fill="none" xmlns="http://www.w3.org/2000/svg">
<path d="M12.1416 0H12.878C14.5056 0.0749086 16.0586 0.441088 17.5372 1.09854C14.6332 1.07599 12.0609 1.91235 9.82019 3.60761C6.73187 5.94541 4.84026 10.0461 5.79589 13.8883C6.43733 16.4704 8.39221 18.6206 10.9907 19.2686C15.435 20.378 19.4626 16.8621 19.2717 12.4352C19.1233 8.99666 16.9143 7.25995 13.7965 6.40468C13.7594 6.39377 13.7405 6.36905 13.7398 6.3305C13.7103 3.9087 15.3445 1.87308 17.6572 1.24799C17.6884 1.23926 17.7023 1.21563 17.6986 1.17708C20.7815 2.46326 23.176 5.38142 24.2483 8.42067C26.6047 15.0992 22.7527 22.562 15.9477 24.4918C12.9252 25.3493 9.99801 25.1216 7.16605 23.8089C-0.846564 20.0955 -2.50145 9.25739 4.045 3.29234C6.29151 1.24435 8.99038 0.146908 12.1416 0Z" fill="#F9F9F9"/>
<path d="M72.0886 9.77435H73.848C73.8989 9.77435 73.9244 9.79981 73.9244 9.85072L73.9315 11.5677C73.9315 11.6215 73.9046 11.6484 73.8509 11.6484H72.0829C72.0358 11.6484 72.0122 11.6719 72.0122 11.7191V18.6975C72.0122 18.7129 72.0062 18.7276 71.9956 18.7385C71.985 18.7494 71.9706 18.7555 71.9556 18.7555H69.8058C69.7807 18.7555 69.7566 18.7456 69.7388 18.7281C69.7211 18.7106 69.7111 18.6869 69.7111 18.6621L69.7153 11.7544C69.7153 11.7263 69.704 11.6993 69.6838 11.6794C69.6637 11.6595 69.6363 11.6484 69.6078 11.6484H68.5994C68.5409 11.6484 68.5117 11.6187 68.5117 11.5593V9.86628C68.5127 9.80499 68.5438 9.77435 68.6051 9.77435H69.6404C69.6951 9.77435 69.721 9.747 69.7182 9.69232C69.6488 7.94276 70.175 6.41102 72.1437 6.1522C73.0084 6.03905 73.841 6.14513 74.6415 6.47043C74.6801 6.48646 74.6966 6.51521 74.691 6.5567L74.4378 8.29918C74.4284 8.36707 74.3916 8.38875 74.3275 8.36424C72.9414 7.84376 71.9853 8.09269 72.0051 9.69232C72.0061 9.747 72.0339 9.77435 72.0886 9.77435Z" fill="#F9F9F9"/>
<path d="M54.642 18.9337H53.8995C50.7865 18.5207 49.9577 14.7345 50.8883 12.2028C51.6988 10.0006 54.0112 9.10676 56.1794 9.81252C56.1906 9.81606 56.2024 9.81693 56.214 9.81506C56.2255 9.81319 56.2365 9.80863 56.246 9.80176C56.2555 9.79488 56.2632 9.78587 56.2686 9.77546C56.274 9.76505 56.2769 9.75352 56.277 9.7418V6.41666C56.277 6.36952 56.3005 6.34595 56.3477 6.34595H58.4692C58.5399 6.34595 58.5753 6.38131 58.5753 6.45202V18.6508C58.5753 18.6789 58.5641 18.7059 58.5442 18.7258C58.5243 18.7457 58.4973 18.7569 58.4692 18.7569H56.574C56.5383 18.7567 56.5039 18.7435 56.4776 18.7197C56.4512 18.6959 56.4346 18.6633 56.4311 18.6282L56.3859 18.177C56.3774 18.0921 56.3425 18.0794 56.2812 18.1388C55.822 18.5848 55.2756 18.8497 54.642 18.9337ZM52.8599 15.2267C53.2262 16.7598 54.6335 17.5278 55.9998 16.4996C56.1827 16.3628 56.2741 16.2285 56.2741 16.0965C56.2789 14.6878 56.2793 13.2786 56.2756 11.869C56.2756 11.8228 56.2543 11.7898 56.2119 11.77C53.6746 10.606 52.3536 13.1023 52.8599 15.2267Z" fill="#F9F9F9"/>
<path d="M45.5893 18.9341H44.5639C40.6731 18.3797 39.6067 13.3093 42.1327 10.7139C43.6701 9.13693 46.626 9.20058 48.1097 10.8299C50.4815 13.4366 49.4024 18.4547 45.5893 18.9341ZM45.0606 16.995C45.3294 16.996 45.5957 16.9254 45.8445 16.7874C46.0933 16.6494 46.3196 16.4466 46.5106 16.1906C46.7015 15.9347 46.8533 15.6306 46.9573 15.2956C47.0613 14.9607 47.1155 14.6015 47.1168 14.2386C47.1181 13.8756 47.0664 13.5161 46.9647 13.1804C46.863 12.8448 46.7133 12.5396 46.5242 12.2823C46.3351 12.025 46.1102 11.8206 45.8623 11.6809C45.6145 11.5411 45.3487 11.4687 45.0799 11.4678C44.8111 11.4669 44.5448 11.5374 44.296 11.6754C44.0472 11.8134 43.8209 12.0162 43.63 12.2722C43.439 12.5282 43.2872 12.8323 43.1832 13.1672C43.0792 13.5022 43.025 13.8614 43.0237 14.2243C43.0225 14.5872 43.0741 14.9468 43.1758 15.2824C43.2775 15.6181 43.4272 15.9233 43.6163 16.1805C43.8055 16.4378 44.0304 16.6422 44.2782 16.7819C44.526 16.9217 44.7919 16.9941 45.0606 16.995Z" fill="#F9F9F9"/>
<path d="M63.3041 18.9333H62.5616C60.1883 18.6193 58.9098 15.7128 60.8998 14.0821C61.8884 13.2716 63.6068 12.9902 64.9476 12.9605C64.9642 12.9602 64.9801 12.9537 64.9924 12.9422C65.0046 12.9308 65.0124 12.9151 65.0141 12.8982C65.106 11.9704 64.5657 11.474 63.6634 11.4528C62.8827 11.4339 62.1524 11.6866 61.4726 12.2109C61.4018 12.2656 61.3472 12.2524 61.3085 12.1713L60.631 10.7286C60.6215 10.709 60.6195 10.6866 60.6252 10.6655C60.6309 10.6445 60.644 10.6262 60.6621 10.6141C62.5871 9.28882 66.345 8.81642 67.1667 11.7059C67.2553 12.018 67.3001 12.5574 67.3011 13.324C67.3048 15.0928 67.3124 16.8622 67.3237 18.632C67.3237 18.6867 67.2963 18.7145 67.2417 18.7155L65.3351 18.7338C65.2977 18.7342 65.2617 18.7199 65.2347 18.694C65.2077 18.6681 65.192 18.6326 65.1909 18.5952L65.1781 18.1893C65.1753 18.0865 65.1366 18.0705 65.0622 18.1412C64.5709 18.6023 63.9849 18.8663 63.3041 18.9333ZM64.9688 14.5474C64.2546 14.5969 63.0708 14.6747 62.5559 15.1867C61.9351 15.8033 62.143 16.8499 63.1047 16.9687C63.8326 17.0593 64.4625 16.8669 64.9943 16.3917C65.0282 16.3615 65.0452 16.3243 65.0452 16.2799V14.6195C65.0452 14.5686 65.0197 14.5445 64.9688 14.5474Z" fill="#F9F9F9"/>
<path d="M79.1821 18.9335H78.192C73.024 18.2461 73.1612 9.90851 78.3688 9.58746C84.0629 9.2367 84.6089 18.1655 79.1821 18.9335ZM78.6695 16.993C78.9379 16.9935 79.2037 16.9224 79.4519 16.784C79.7001 16.6455 79.9258 16.4424 80.116 16.1861C80.3062 15.9298 80.4573 15.6254 80.5606 15.2902C80.6639 14.9551 80.7174 14.5958 80.718 14.2329C80.7187 13.87 80.6664 13.5105 80.5643 13.175C80.4622 12.8396 80.3122 12.5346 80.1228 12.2777C79.9335 12.0207 79.7086 11.8168 79.4609 11.6774C79.2131 11.5381 78.9475 11.4662 78.6791 11.4657C78.4107 11.4652 78.1449 11.5363 77.8967 11.6747C77.6485 11.8132 77.4228 12.0163 77.2326 12.2726C77.0424 12.5289 76.8913 12.8333 76.788 13.1685C76.6847 13.5036 76.6312 13.8629 76.6306 14.2258C76.6299 14.5887 76.6822 14.9482 76.7843 15.2837C76.8864 15.6191 77.0364 15.9241 77.2258 16.181C77.4151 16.438 77.64 16.6419 77.8878 16.7813C78.1355 16.9206 78.4011 16.9925 78.6695 16.993Z" fill="#F9F9F9"/>
<path d="M86.6644 10.4495C89.1084 8.62644 92.36 9.61366 92.3727 13.0166C92.3793 14.7996 92.3826 16.6764 92.3826 18.6471C92.3826 18.6616 92.3797 18.6759 92.3742 18.6893C92.3687 18.7027 92.3605 18.7149 92.3503 18.7251C92.34 18.7354 92.3279 18.7435 92.3145 18.749C92.3011 18.7546 92.2868 18.7574 92.2723 18.7574H90.2512C90.2306 18.7574 90.2102 18.7533 90.1912 18.7453C90.1722 18.7373 90.155 18.7256 90.1407 18.7108C90.1263 18.696 90.115 18.6785 90.1075 18.6593C90.1 18.6401 90.0965 18.6196 90.097 18.599C90.1291 16.9291 90.1263 15.3064 90.0885 13.7308C90.0735 13.133 90.0117 12.7068 89.9033 12.4523C89.2781 10.9898 87.6233 11.4452 86.7592 12.3476C86.73 12.3787 86.7153 12.416 86.7153 12.4593L86.721 18.6768C86.721 18.6982 86.7127 18.7187 86.6978 18.7338C86.6829 18.7489 86.6628 18.7574 86.6418 18.7574H84.5443C84.5113 18.7574 84.4797 18.7443 84.4563 18.721C84.433 18.6976 84.4199 18.666 84.4199 18.633L84.4185 9.85268C84.4185 9.80176 84.4439 9.77631 84.4948 9.77631H86.4212C86.4806 9.77631 86.514 9.80601 86.5216 9.86541L86.5965 10.4212C86.5975 10.4286 86.6004 10.4357 86.6049 10.4416C86.6094 10.4475 86.6154 10.4522 86.6223 10.455C86.6292 10.4579 86.6367 10.4589 86.6441 10.4579C86.6515 10.457 86.6585 10.4541 86.6644 10.4495Z" fill="#F9F9F9"/>
<path d="M101.89 14.0982V14.8365L96.1849 14.8662C96.1302 14.8662 96.1042 14.8931 96.1071 14.9468C96.2117 17.5322 99.3487 17.2465 100.852 16.2282C100.892 16.2018 100.919 16.2112 100.934 16.2565L101.508 17.982C101.517 18.0083 101.516 18.0368 101.506 18.0625C101.496 18.0883 101.477 18.1098 101.453 18.1234C100.622 18.5864 99.7273 18.8565 98.7703 18.9339H97.6388C95.6851 18.7019 94.4622 17.6638 93.97 15.8195C93.2006 12.9398 94.6164 9.5553 97.9995 9.57085C100.647 9.58358 101.852 11.7037 101.89 14.0982ZM96.2471 13.2001L99.4831 13.2057C99.4966 13.2057 99.5096 13.2004 99.5191 13.1908C99.5287 13.1813 99.534 13.1683 99.534 13.1548V13.1195C99.5344 12.8979 99.4917 12.6784 99.4084 12.4735C99.3251 12.2687 99.2028 12.0824 99.0485 11.9255C98.8941 11.7686 98.7108 11.644 98.509 11.5588C98.3072 11.4737 98.0908 11.4297 97.8722 11.4293H97.8637C97.4222 11.4286 96.9985 11.6056 96.6858 11.9215C96.3731 12.2374 96.1969 12.6663 96.1962 13.1138V13.1492C96.1962 13.1627 96.2015 13.1756 96.2111 13.1852C96.2206 13.1947 96.2336 13.2001 96.2471 13.2001Z" fill="#F9F9F9"/>
<path d="M38.2702 9.77491H40.5077C40.5161 9.77494 40.5244 9.77705 40.5317 9.78104C40.5391 9.78503 40.5454 9.79078 40.55 9.79777C40.5546 9.80477 40.5574 9.8128 40.5582 9.82115C40.559 9.82949 40.5577 9.8379 40.5544 9.84562L36.9464 18.7249C36.9425 18.7341 36.9361 18.7419 36.9278 18.7475C36.9195 18.753 36.9097 18.756 36.8997 18.756H34.9692C34.9592 18.756 34.9495 18.753 34.9412 18.7475C34.9329 18.7419 34.9264 18.7341 34.9225 18.7249L31.2042 9.84562C31.2009 9.8379 31.1996 9.82949 31.2004 9.82115C31.2012 9.8128 31.204 9.80477 31.2086 9.79777C31.2132 9.79078 31.2195 9.78503 31.2269 9.78104C31.2343 9.77705 31.2425 9.77494 31.2509 9.77491H33.6015C33.6119 9.77478 33.622 9.77783 33.6306 9.78365C33.6392 9.78946 33.6459 9.79776 33.6496 9.80744L35.9239 15.6176C35.9276 15.6271 35.9341 15.6353 35.9426 15.641C35.951 15.6468 35.961 15.6499 35.9712 15.6499C35.9815 15.6499 35.9914 15.6468 35.9999 15.641C36.0083 15.6353 36.0149 15.6271 36.0186 15.6176L38.2222 9.80744C38.2259 9.79776 38.2325 9.78946 38.2411 9.78365C38.2497 9.77783 38.2599 9.77478 38.2702 9.77491Z" fill="#F9F9F9"/>
</svg>
