<svg width="35" height="36" viewBox="0 0 35 36" fill="none" xmlns="http://www.w3.org/2000/svg">
<path fill-rule="evenodd" clip-rule="evenodd" d="M17.3793 36C26.9777 36 34.7586 28.2191 34.7586 18.6207C34.7586 9.02241 26.9777 1.24145 17.3793 1.24145C7.78098 1.24145 0 9.02241 0 18.6207C0 21.7377 0.820552 24.663 2.25741 27.1924L0 36L9.08052 33.8944C11.5466 35.237 14.3738 36 17.3793 36ZM17.3793 33.3263C25.501 33.3263 32.0849 26.7424 32.0849 18.6207C32.0849 10.4991 25.501 3.91519 17.3793 3.91519C9.25765 3.91519 2.67375 10.4991 2.67375 18.6207C2.67375 21.7566 3.65524 24.6631 5.3278 27.0499L4.01061 31.9894L9.03716 30.7327C11.4075 32.3685 14.2816 33.3263 17.3793 33.3263Z" fill="#BFC8D0"/>
<path d="M32.2752 17.3789C32.2752 25.606 25.6057 32.2754 17.3786 32.2754C14.2406 32.2754 11.3292 31.3051 8.92812 29.6483L3.83629 30.9212L5.17059 25.9176C3.4763 23.4997 2.48206 20.5554 2.48206 17.3789C2.48206 9.15175 9.15147 2.48236 17.3786 2.48236C25.6057 2.48236 32.2752 9.15175 32.2752 17.3789Z" fill="url(#paint0_linear_743_811)"/>
<path fill-rule="evenodd" clip-rule="evenodd" d="M17.3793 34.7585C26.9777 34.7585 34.7586 26.9776 34.7586 17.3793C34.7586 7.78096 26.9777 0 17.3793 0C7.78098 0 0 7.78096 0 17.3793C0 20.4962 0.820552 23.4216 2.25741 25.951L0 34.7585L9.08052 32.6529C11.5466 33.9956 14.3738 34.7585 17.3793 34.7585ZM17.3793 32.0849C25.501 32.0849 32.0849 25.501 32.0849 17.3793C32.0849 9.25763 25.501 2.67374 17.3793 2.67374C9.25765 2.67374 2.67375 9.25763 2.67375 17.3793C2.67375 20.5151 3.65524 23.4217 5.3278 25.8085L4.01061 30.7479L9.03716 29.4913C11.4075 31.127 14.2816 32.0849 17.3793 32.0849Z" fill="white"/>
<path d="M13.0358 9.31044C12.6227 8.48048 11.9887 8.55395 11.3484 8.55395C10.204 8.55395 8.41943 9.92478 8.41943 12.4761C8.41943 14.5669 9.34079 16.8557 12.4454 20.2795C15.4416 23.5838 19.3785 25.293 22.6468 25.2348C25.9151 25.1767 26.5876 22.3641 26.5876 21.4144C26.5876 20.9934 26.3263 20.7834 26.1464 20.7263C25.0326 20.1917 22.9784 19.1958 22.511 19.0087C22.0436 18.8216 21.7996 19.0747 21.6479 19.2124C21.2241 19.6162 20.3839 20.8067 20.0962 21.0745C19.8085 21.3422 19.3796 21.2067 19.2011 21.1055C18.5443 20.842 16.7636 20.0498 15.3442 18.6738C13.5886 16.9721 13.4856 16.3865 13.1549 15.8654C12.8903 15.4484 13.0845 15.1927 13.1813 15.0809C13.5596 14.6445 14.0818 13.9707 14.316 13.6359C14.5502 13.301 14.3643 12.7926 14.2527 12.4761C13.7729 11.1143 13.3664 9.97434 13.0358 9.31044Z" fill="white"/>
<defs>
<linearGradient id="paint0_linear_743_811" x1="30.4131" y1="6.20649" x2="2.48211" y2="32.2755" gradientUnits="userSpaceOnUse">
<stop stop-color="#5BD066"/>
<stop offset="1" stop-color="#27B43E"/>
</linearGradient>
</defs>
</svg>
