<svg width="118" height="80" viewBox="0 0 118 80" fill="none" xmlns="http://www.w3.org/2000/svg">
<path d="M48.5816 76.383C48.6663 77.2082 48.2787 78.5051 49.1273 78.5658C49.6929 77.4527 51.3074 74.9284 50.4914 74.2012C50.2241 75.298 49.6798 76.1167 48.5816 76.383ZM46.3992 78.8384C46.8557 77.6583 48.4842 77.6502 48.309 75.8378C47.9454 75.1685 47.4857 76.3296 47.2181 75.5652C47.2357 75.1232 48.3837 73.8516 47.2181 73.9285C47.2299 75.72 44.1857 77.393 46.3992 78.8384ZM42.0346 79.6572C43.5979 78.0188 46.854 76.1666 45.3079 73.1098C44.6051 73.9367 44.1862 76.249 43.1261 75.8378C43.4357 74.8895 45.4089 72.4341 43.9444 72.291C42.9431 74.2021 41.4931 77.1122 42.0346 79.6572ZM37.67 78.5658C39.6038 77.2244 42.9367 75.8323 42.3073 72.8363C41.8345 73.1822 41.5926 73.7583 40.6707 73.655C40.8128 73.2511 41.0741 72.9676 41.2164 72.5636C40.7304 72.7267 40.0833 71.7649 39.8523 72.5636C40.7006 74.8977 35.9446 75.3452 37.67 78.5658ZM40.1254 69.563C39.885 68.8938 39.8795 67.9907 39.034 67.9264C38.4843 69.1093 36.3816 70.178 36.8513 71.4732C37.4654 70.9959 37.4799 69.919 38.4879 69.8356C37.3621 72.1579 34.2102 75.0815 34.942 77.4745C36.5628 76.0036 38.5698 74.9194 39.5793 72.8363C38.4743 72.3897 38.3239 74.28 37.67 73.3824C37.9616 71.7649 40.0548 71.9477 39.5793 69.563C39.4117 69.1853 38.5295 69.5222 38.4879 69.0178C39.245 68.257 39.3683 69.5222 40.1254 69.563ZM31.3957 71.4732C31.0728 71.1589 30.4316 71.1643 29.7586 71.2005C29.3238 72.2195 28.2986 72.6497 28.122 73.9285C32.291 73.3679 34.0785 68.9734 36.8513 67.9264C34.4253 70.0467 32.6261 72.7946 31.1227 75.8378C34.63 74.4348 35.9238 70.8184 37.67 67.6537C34.8233 66.1503 33.3244 70.284 31.3957 71.4732ZM27.8493 69.0178C28.1927 67.8159 30.1694 68.2461 30.3043 66.835C27.2743 67.5333 25.0806 69.0685 23.4847 71.2005C28.8194 70.9624 30.822 68.9517 33.8506 66.2898C31.4387 66.787 30.6127 68.8711 27.8493 69.0178ZM21.0294 67.6537C24.5 67.6266 28.5359 67.7815 30.5773 65.1984C28.5594 65.3678 28.0174 66.2699 26.4853 66.0171C27.084 65.4339 27.8407 65.0082 28.3947 64.3806C29.525 65.2246 30.5905 63.6749 30.85 62.7432C28.784 64.7229 21.5497 63.7321 21.0294 67.6537ZM18.3013 64.107C19.4951 64.5508 20.8971 64.7854 22.1208 65.1984C23.3692 63.6279 26.422 63.8616 28.122 62.7432C25.3931 62.3819 22.9739 63.7746 21.302 63.5618C22.6162 62.4209 25.6884 63.0376 26.4853 61.3792C23.598 61.0401 19.6771 62.0259 18.3013 64.107ZM27.0306 62.1975C28.6537 62.3162 30.8079 62.8972 31.6683 61.6524C31.1851 61.5902 30.302 61.9272 30.5773 61.1066C31.7511 61.1899 32.7788 61.1256 32.7592 60.0153C30.6353 60.5279 27.2434 59.7734 27.0306 62.1975ZM25.6666 58.9243C27.1932 59.163 30.8817 60.8594 31.9414 58.9243C31.3943 58.471 29.918 58.9469 29.486 58.3786C29.6934 57.5856 31.734 58.6264 31.9414 57.8334C30.4053 55.7788 27.1945 57.7836 25.6666 58.9243ZM15.0276 57.0146C17.147 58.9465 22.724 62.6441 25.1213 60.0153C26.5415 59.8472 27.2136 61.6555 27.8493 60.0153C24.9022 59.5071 22.0012 58.9528 19.6653 57.8334C20.6901 57.9837 23.1379 58.8659 23.2117 57.5599C21.282 56.2348 17.5279 56.3978 15.0276 57.0146ZM22.3934 54.5593C23.7057 56.1701 27.853 57.6776 30.0316 55.9232C29.549 54.4057 26.066 55.8879 25.394 54.5593C26.3205 54.6335 27.6057 54.3482 28.122 54.8318C28.1745 51.8004 22.9775 52.8012 22.3934 54.5593ZM11.7539 52.1043C13.3552 53.9678 15.9447 57.1016 19.1197 55.6507C18.4399 55.512 17.474 55.6597 17.4831 54.8318C18.5441 54.9532 19.6409 55.0383 20.4837 55.378C19.807 52.2198 14.8736 51.9155 11.7539 52.1043ZM20.4837 49.1032C21.306 51.3802 23.5989 52.996 26.4853 52.3769C26.3296 50.9871 24.2432 51.5269 24.0301 50.1946C24.7102 50.0004 25.1513 51.3956 25.6666 50.4677C25.2287 50.0873 25.3764 49.1214 24.8488 48.8306C23.2239 48.8764 21.551 48.0843 20.4837 49.1032ZM30.0316 50.7408C30.0158 50.9065 29.9905 51.0632 29.7586 51.0133C28.2855 50.5769 27.6855 49.2671 25.6666 49.3763C26.777 51.506 27.8208 54.9641 30.5773 54.5593C30.485 53.6512 29.4633 53.673 29.486 52.65C29.6386 52.2569 29.9117 51.9843 30.3043 51.8312C31.8182 53.773 33.3117 55.7348 35.7603 56.742C36.3975 53.9333 34.8048 51.4544 33.3054 49.9221C32.2348 51.6166 35.1344 52.9425 34.3963 54.2867C33.6722 52.1917 32.1751 50.8703 30.0316 50.1946C30.6607 49.5615 30.9112 50.6995 31.9414 50.4677C31.7131 48.9094 29.107 48.471 29.486 47.194C30.6906 47.99 31.6226 49.0584 32.4866 50.1946C32.7601 47.1704 29.1377 45.7403 26.2127 45.0117C26.8821 47.5246 28.2624 49.327 30.0316 50.7408ZM25.9397 48.2854C24.6677 46.9196 22.3861 46.565 21.302 45.0117C23.3897 45.743 24.6105 47.3411 26.758 48.0128C26.3395 44.4298 22.7013 44.067 19.3927 43.3746C19.9914 46.4142 22.512 48.9828 25.9397 48.2854ZM27.8493 44.7386C27.4962 43.6368 26.3277 43.3501 25.1213 43.1019C25.7998 44.4683 26.816 43.8029 27.8493 44.7386ZM22.3934 43.3746C23.1415 44.043 24.2981 43.4651 24.5757 42.8291C24.1015 42.4354 22.646 42.7141 22.3934 43.3746ZM25.6666 41.4653C23.963 38.9276 21.4636 34.7831 17.4831 36.2822C18.4137 38.9889 20.1137 40.926 22.666 42.011C23.2479 40.8352 25.1893 41.4791 25.6666 41.4653ZM17.2099 34.3727C17.2009 33.6361 16.1576 32.54 15.5733 33.2814C16.1729 33.5911 16.4795 34.1936 17.2099 34.3727ZM17.2099 31.6445C17.1783 30.9487 17.1588 30.2408 16.3917 30.2805C16.2626 31.1373 16.7317 31.3954 17.2099 31.6445ZM17.2099 29.735C17.1927 28.6613 16.3486 28.4143 15.5733 28.0984C15.8894 28.8735 16.1367 29.7175 17.2099 29.735ZM18.8465 49.1032C18.2438 48.9932 18.4821 47.5047 19.3927 48.0128C19.548 47.1985 18.3629 46.3426 18.8465 46.1026C19.4833 45.8694 20.0222 47.0567 20.2105 46.3757C18.5916 45.0329 15.0865 44.5719 13.391 42.5566C15.2182 42.9113 16.5212 43.7913 18.3013 44.1933C18.8013 42.7617 20.1273 43.0819 21.302 42.8291C19.6726 42.3677 18.2252 41.7228 17.2099 40.6471C16.5189 36.9612 11.1163 35.6555 9.02595 32.4631C12.2186 33.5447 13.3145 36.7224 16.9373 37.3733C17.1411 35.7143 15.8228 35.5778 14.7551 35.1908C11.3926 32.9154 8.55227 30.1181 5.20695 27.8253C4.95927 26.5276 3.57896 26.3619 3.29727 25.0973C2.82228 25.1179 2.44909 25.0364 2.20634 24.8247C1.99208 24.4674 1.71141 22.8083 1.11497 23.7335C1.88071 25.8776 3.2049 27.4633 4.38864 29.1893C3.46027 29.2955 3.78089 28.4279 2.75209 28.0984C2.33547 29.1363 3.66408 29.3367 4.11602 30.0078C4.48283 30.5529 4.4349 31.6558 4.93396 32.4631C6.48495 34.9669 9.87363 36.0148 12.5727 38.1918C10.5258 37.9362 8.00064 35.8742 6.29789 34.3727C7.45133 36.2201 8.05139 38.6209 10.663 39.01C11.7721 41.7214 18.3068 40.4577 18.0287 43.6477C14.5209 40.5171 7.55726 40.8424 4.11602 37.6462C5.0797 40.5017 7.28877 42.1116 10.1173 43.1019C10.0521 43.4914 9.66815 43.5621 9.572 43.9207C11.5782 44.5511 14.0005 44.7658 15.0276 46.3757C13.7084 46.2331 12.1081 44.9392 11.2087 45.2843C13.5124 46.6193 16.9111 48.3094 18.8465 49.1032ZM1.66065 17.1864C2.02565 20.4584 4.75002 21.3717 5.48009 24.2792C4.48827 23.5434 4.07259 22.2312 3.02472 21.551C4.0699 24.8712 6.4917 26.8132 8.75325 28.9165C8.40645 31.0988 11.8984 31.5134 13.391 32.7356C14.1002 31.5634 13.9122 32.8851 14.7551 33.0085C15.0417 31.812 13.8325 32.1126 13.9367 31.099C14.2854 31.1139 14.3144 31.4485 14.7551 31.3716C14.3583 27.13 9.96513 25.4332 9.02595 22.6421C11.0729 24.1432 13.1985 27.0151 15.3007 27.5527C14.1069 27.7542 15.2536 26.5931 15.3007 26.7344C14.8116 25.2599 13.4054 25.3819 12.3001 24.5519C10.4429 23.1582 7.35939 19.8947 5.20695 17.1864C2.51833 13.8037 1.57553 9.93361 0.569282 6.27435C-0.0710968 14.5102 3.36971 18.509 6.57095 23.4606C4.39771 21.9055 3.54539 19.0295 1.66065 17.1864ZM16.119 50.4677C16.0081 50.9934 15.0616 50.6828 15.3007 51.5586C18.5241 51.5179 20.2613 52.9629 22.666 53.7413C22.7466 53.1853 23.4041 53.2061 23.4847 52.65C21.6525 52.6355 20.6797 52.2677 20.7567 50.7408C16.5891 49.5914 11.7657 45.3957 7.1167 44.7386C8.94438 47.8212 12.2819 49.394 16.119 50.4677ZM29.7586 35.1908C30.177 39.0638 31.5728 41.4284 33.8506 43.9207C34.1957 42.4838 32.6035 41.8011 33.3054 40.374C34.0653 42.2513 34.7527 44.2006 35.7603 45.8299C35.1553 40.888 33.4725 37.0239 29.7586 35.1908ZM17.4831 30.0078C18.496 35.0873 23.228 36.4477 26.4853 39.2828C26.686 39.6535 26.7018 41.5776 27.3037 40.6471C27.1615 38.452 24.9411 36.3915 23.4847 34.6453C25.2545 35.5128 26.2607 37.1431 28.122 37.9188C28.8819 37.1268 27.2267 37.2114 27.5768 36.0094C28.4807 35.763 28.7596 37.5248 29.2134 36.8277C26.3223 33.7105 22.2729 30.3197 17.4831 30.0078ZM28.3947 27.2799C28.7882 30.9792 32.7366 33.485 34.3963 36.8277C32.551 35.5812 30.5873 34.4531 29.7586 32.1902C29.217 31.7357 29.4117 32.2149 28.6677 32.1902C26.0212 28.5624 20.7124 27.5969 18.574 23.4606C21.4197 26.3436 24.9344 28.558 28.6677 30.5536C26.768 27.9067 24.4919 25.636 21.302 24.2792C19.8148 21.0377 16.3224 19.8016 13.6641 17.7318C10.5806 13.1768 6.87395 9.24487 5.75271 2.72828C3.13609 10.2052 7.26614 17.3892 12.3001 20.4601C10.706 20.6856 9.14639 18.5243 7.93495 17.4592C8.07626 20.4599 12.9558 23.2547 16.119 26.1887C16.3441 26.9597 15.7346 26.8954 15.8459 27.5527C16.632 28.3635 16.3196 26.8698 17.2099 27.007C20.0249 31.0121 26.3192 31.5381 28.9403 35.7364C29.395 35.4636 29.1336 34.4748 29.7586 34.3727C34.2966 36.8365 35.7703 42.3647 37.1243 48.0128C36.307 48.7867 36.0692 46.2394 35.4873 46.6482C34.568 47.4978 36.1285 48.1744 35.7603 49.3763C34.5716 47.8089 32.3929 45.8708 32.214 44.1933C33.0486 44.5407 33.0165 45.7552 33.8506 46.1026C32.6641 43.3791 31.5311 40.6026 28.3947 39.8285C26.7353 44.1644 31.5138 46.6832 34.3963 48.2854C36.1566 52.2941 37.0985 57.1541 37.3974 61.3792C35.9243 58.5657 34.0254 54.7657 30.3043 55.1049C30.6326 56.8144 32.4079 58.0969 34.3963 57.2873C34.5408 58.5226 32.8598 57.934 32.4866 58.6513C32.5523 59.9835 33.6251 59.7023 34.6694 59.47C34.3923 60.1933 33.4078 60.2091 33.0323 60.834C32.9241 61.8516 34.7364 60.9481 34.942 61.6524C34.529 62.7324 31.0058 61.7429 30.85 63.8344C30.9016 64.0554 31.1235 64.107 31.1227 64.3806C32.7095 65.1413 35.0371 64.2991 35.7603 63.2891C36.5623 64.2863 34.2663 64.5119 33.8506 65.1984C34.7161 66.5171 36.8404 65.1096 37.67 64.6532C37.7298 63.7746 37.1873 63.4984 37.3974 62.4706C35.6313 62.5237 34.6653 63.3761 33.0323 63.5618C34.1658 62.2995 37.6266 61.1342 38.7615 63.0163C35.9913 65.9863 42.6478 68.6555 41.2164 71.2005C44.6368 71.4868 48.7116 74.1042 52.401 74.2012C52.7746 75.778 50.6389 75.9202 51.5827 77.2018C53.3144 76.9328 53.1695 74.7872 54.3107 73.9285C54.606 75.2065 52.9667 76.7127 52.401 78.0196C51.3454 78.257 51.4305 77.354 50.7639 77.2018C49.7514 77.6438 49.9334 79.2804 48.5816 79.3837C48.1111 79.2188 48.6029 78.0903 48.0359 78.0196C47.0025 78.1682 46.8077 79.1554 46.1267 79.6572C45.4238 79.4498 45.1788 78.7859 45.3079 77.747C43.6885 77.9998 42.9503 80.4071 41.489 79.9298C41.0411 79.2143 41.5279 77.5486 41.762 76.6557C40.1697 76.3921 39.3293 79.0939 37.3974 79.3837C37.0501 78.7306 36.4011 78.3792 36.5786 77.2018C35.3831 77.1882 35.3437 78.3312 34.1233 78.2932C33.6568 77.3367 34.419 75.5878 34.6694 74.4738C33.0766 74.9728 32.2466 76.2345 30.5773 76.6557C30.5584 74.8189 31.6959 74.1378 32.214 72.8363C30.8872 72.5156 29.6273 74.6106 27.5768 74.4738C27.3335 72.4124 29.0639 72.3237 29.486 70.9271C27.8285 70.543 24.9575 72.4586 22.666 71.4732C23.0632 69.9607 24.7084 69.6961 25.394 68.4726C24.2292 67.7271 21.3129 68.7343 20.4837 67.6537C20.1259 66.2961 21.3237 66.4927 21.302 65.472C20.2025 64.8425 18.2226 65.0951 17.4831 64.107C18.295 62.9185 19.4381 62.0613 21.0294 61.6524C19.1228 59.6489 15.4474 59.4139 14.2093 56.742C14.8877 56.7841 15.0539 56.3131 15.5733 56.1963C14.2827 54.2133 11.0429 54.1797 10.663 51.286C11.1154 51.7425 12.2648 51.5028 13.1179 51.5586C11.4066 48.4507 7.44857 47.5889 6.29789 43.9207C7.32589 43.4615 8.41639 44.9931 9.8447 45.0117C7.07407 42.4173 3.94309 40.1836 2.75209 36.0094C4.54359 37.0366 5.71465 38.6841 7.93495 39.2828C4.73189 33.6239 1.76709 29.5853 0.296727 21.551C1.8156 22.3963 2.31278 24.2637 3.84296 25.0973C1.98084 19.9919 -1.91146 10.0052 1.11497 3.27367C1.92646 9.19122 3.19496 14.6518 6.84401 17.7318C5.68202 13.3709 1.81777 4.25192 6.57095 6.86646e-05C6.83408 14.7486 19.0427 19.8947 27.3037 27.5527C27.8082 27.5115 27.4708 26.6289 27.8493 26.4613C31.1824 28.4028 33.4906 31.3682 35.4873 34.6453C35.835 34.5835 35.845 33.8311 35.4873 33.827C37.3041 34.3768 38.0541 38.3518 38.2153 41.4653C38.6722 41.947 39.1296 41.2231 40.1254 41.4653C38.3656 44.2581 39.0223 50.5949 39.3066 54.5593C39.553 55.4785 39.9171 54.5918 40.3981 55.1049C40.6181 55.8698 40.7544 56.3245 40.1254 55.9232C38.7346 56.1701 38.9434 58.015 38.4879 59.1969C37.7102 58.0444 38.3312 55.9563 39.3066 55.6507C39.1219 55.1103 38.4 54.451 38.2153 55.378C37.7325 54.5878 37.7579 53.2894 37.3974 52.3769C37.9535 52.4571 37.9318 53.1155 38.4879 53.1957C38.3665 49.3777 37.8194 45.3182 39.034 42.2836C37.7543 42.3681 38.3747 44.3528 37.1243 44.466C36.8459 42.0163 37.7316 38.4027 36.5786 36.8277C35.8269 37.1671 36.9246 39.356 35.4873 39.01C35.4818 32.7415 31.8811 30.0678 28.3947 27.2799Z" fill="#231F20"/>
<path d="M46.4258 71.057C54.0265 69.5542 63.7556 69.784 71.5791 70.9027C71.673 70.7295 71.7702 70.5665 71.8662 70.4134C72.0269 70.1572 72.1723 69.9376 72.3057 69.6976L72.4521 69.4349L72.752 69.4408C72.9377 69.4441 73.0611 69.3563 73.1299 69.2269C73.2031 69.0889 73.2229 68.8798 73.1123 68.6585L72.9658 68.3665L73.1748 68.1156C73.5745 67.6356 73.9205 67.0954 74.291 66.5238C74.655 65.9622 75.0429 65.3707 75.5039 64.8431L75.6523 64.6732L75.877 64.6722C76.02 64.6715 76.1248 64.6403 76.249 64.5843C76.399 63.7516 76.5015 63.1961 76.8682 62.3929C77.1812 61.7076 77.4898 61.0356 77.793 60.3812C77.6298 60.4618 77.4695 60.5417 77.3135 60.6195C76.7013 60.9246 76.1498 61.2226 75.7012 61.6019L75.3418 61.9056L75.0166 61.5658C74.379 60.8993 73.5313 60.46 72.6064 59.89L72.3506 59.7318L72.3701 59.432C72.4129 58.7683 72.3129 58.2483 72.1797 57.7201C72.1071 57.4321 72.0208 57.1238 71.9463 56.7904C71.5996 57.0138 71.2244 57.2159 70.8789 57.4056C70.2366 57.7582 69.6653 58.0871 69.2764 58.4925L69.0537 58.7249L68.751 58.6185C66.5995 57.8652 64.005 57.5262 61.2773 57.263L60.498 57.1878L60.8936 56.513C61.2045 55.9829 61.1612 55.4646 60.9268 55.0208C60.6825 54.5587 60.2348 54.1922 59.7842 54.0394L59.5488 53.9603L59.4707 53.7249C59.397 53.5055 59.3583 53.2576 59.3838 52.9593L59.417 52.5794L59.792 52.5101C60.2445 52.4271 60.5767 52.5125 60.8506 52.6761C60.9047 52.7085 60.9551 52.7451 61.001 52.7786C61.0762 52.6246 61.1231 52.4166 61.1104 52.1702C61.0998 51.9669 61.0511 51.798 60.9863 51.6673C60.9213 51.7101 60.8542 51.7458 60.7881 51.7738C60.5002 51.8953 60.1269 51.9248 59.7852 51.7552L59.5947 51.6605L59.5303 51.4564C59.4495 51.1977 59.4977 50.9644 59.5918 50.7835C59.5994 50.7689 59.609 50.7555 59.6172 50.7415C59.492 50.7139 59.322 50.6738 59.1631 50.6156H58.3789C58.3001 50.637 58.2217 50.6579 58.1465 50.6771C58.2494 50.8074 58.3417 50.957 58.4072 51.1351L58.5234 51.4505L58.2754 51.6771C58.06 51.8738 57.8044 51.9728 57.5332 51.9535C57.286 51.9357 57.0885 51.8227 56.958 51.7308C56.9185 51.703 56.881 51.6716 56.8447 51.6419C56.7998 51.7207 56.7595 51.8075 56.7285 51.888C56.6944 51.9765 56.6799 52.0372 56.6768 52.0619C56.6497 52.2763 56.699 52.5292 56.8037 52.7972C56.8075 52.807 56.8115 52.8168 56.8154 52.8265C56.9135 52.7288 57.0419 52.6366 57.2119 52.5814C57.4367 52.5085 57.6788 52.5172 57.9297 52.5775L58.2803 52.6615L58.3105 53.0218C58.3426 53.4008 58.2374 53.711 58.0381 53.9593C57.8589 54.1826 57.6185 54.3343 57.4395 54.4437C57.0269 54.6957 56.8099 54.8221 56.7197 55.1009C56.5696 55.5653 56.6824 55.9021 57.0586 56.5882L57.4395 57.2835L56.6484 57.3275C53.6976 57.4943 51.0948 57.9924 48.8213 58.805L48.5518 58.9007L48.333 58.7181C47.8535 58.3181 47.3051 58.0559 46.666 57.6556C46.4532 57.5223 46.2371 57.3767 46.0303 57.2103C45.9963 57.4467 45.9509 57.6718 45.9023 57.888C45.7598 58.5228 45.6146 59.0535 45.6387 59.6947L45.6514 60.0238L45.3535 60.1654C44.3912 60.6235 43.5844 61.1512 43.0312 61.8949L42.7266 62.304L42.3232 61.9915C41.5599 61.3995 40.8009 60.8508 39.9268 60.4349C40.1103 60.7871 40.2823 61.1547 40.4482 61.5101C40.6267 61.8922 40.8453 62.2785 41.0684 62.7064C41.2279 63.0123 41.3883 63.3366 41.5059 63.6576L41.6074 63.9769C41.6603 64.1748 41.6979 64.3801 41.7285 64.5238C41.7629 64.685 41.791 64.783 41.8223 64.849C41.8479 64.9029 41.8626 64.9062 41.8633 64.9066C41.8723 64.9113 41.9289 64.9376 42.0898 64.9251L42.3779 64.9027L42.541 65.1419C43.3162 66.2769 44.1204 67.4187 44.8721 68.6077L44.9951 68.8031L44.9268 69.0238C44.8466 69.2807 44.8828 69.4734 44.9453 69.5824C44.9998 69.677 45.0954 69.7514 45.2725 69.7542L45.6025 69.7591L45.7275 70.0648C45.8022 70.2468 45.9187 70.3975 46.0859 70.6019C46.1878 70.7265 46.3104 70.8783 46.4258 71.057ZM65.2812 66.8831C64.4754 67.0595 63.5944 67.0597 62.7891 66.8724C61.9866 66.6858 61.2223 66.3041 60.6943 65.6859L60.6934 65.6849C60.6434 65.6261 60.5896 65.5385 60.5469 65.4661C60.4966 65.3812 60.4369 65.2741 60.375 65.1527C60.252 64.9117 60.1105 64.5999 60.0068 64.2816C59.9081 63.9784 59.8221 63.6046 59.8672 63.2669C59.8909 63.0897 59.9552 62.8902 60.1045 62.722C60.2207 62.5912 60.3658 62.5043 60.5254 62.4554L60.6895 62.4193C60.8864 62.3908 61.0802 62.4264 61.249 62.5286C61.408 62.625 61.5141 62.7616 61.5859 62.8861C61.7236 63.1249 61.7906 63.4221 61.8311 63.6673C61.8729 63.9207 61.8972 64.1948 61.9189 64.3929C61.9304 64.4975 61.9408 64.5803 61.9521 64.6439C61.9587 64.6809 61.9648 64.7007 61.9668 64.7083C62.1014 64.9729 62.2075 65.0365 62.3242 65.0824C62.382 65.105 62.4481 65.1242 62.5352 65.1458C62.5781 64.4454 62.8764 63.8321 63.167 63.3079C63.3756 62.9318 63.5644 62.6288 63.7305 62.2962C63.8903 61.9763 63.996 61.69 64.0283 61.4134C64.0779 60.9865 64.0107 60.6689 63.8896 60.4378C63.7692 60.208 63.5787 60.031 63.3262 59.9105C62.8075 59.6631 62.0217 59.6572 61.1992 59.9896L59.8564 60.5316L60.5781 59.2767C60.7753 58.9336 60.8945 58.6431 60.7969 58.389L60.5273 57.6898L61.2764 57.7093C64.03 57.7825 66.5859 58.0783 68.8066 58.7327L69.165 58.8382V61.099L68.3838 60.5658C67.7881 60.1596 67.1249 60.2083 66.5498 60.5638C65.9613 60.9277 65.5003 61.5995 65.3965 62.3548C65.3186 62.9201 65.4019 63.5063 65.4316 64.2181C65.4474 64.5966 65.4432 65.0105 65.3555 65.4154C65.7473 65.3455 66.0235 65.2189 66.1992 64.9915C66.2382 64.9412 66.2781 64.8533 66.3193 64.6927C66.3393 64.6151 66.3569 64.5326 66.377 64.4378C66.3961 64.3471 66.418 64.2438 66.4443 64.1419C66.4955 63.9439 66.5773 63.6945 66.7461 63.4818C66.9303 63.25 67.1909 63.0943 67.5283 63.0462L68.0195 62.9769L68.0938 63.4671C68.2357 64.4054 67.9437 65.1909 67.3896 65.7767C66.8497 66.3475 66.0833 66.7075 65.2812 66.8831ZM53.8428 66.9827C52.4841 67.0003 51.02 66.5437 50.2012 65.4769C50.0528 65.2838 49.8476 64.9759 49.7432 64.6107C49.6349 64.2322 49.6284 63.7604 49.9355 63.3187L50.1357 63.0316L50.4746 63.1204C51.1095 63.2886 51.3331 63.7866 51.4453 64.1585C51.4731 64.2507 51.497 64.3431 51.5176 64.4251C51.539 64.5107 51.5569 64.5845 51.5771 64.6556C51.6184 64.8005 51.6561 64.8905 51.6973 64.9495H51.6982C51.8868 65.2205 52.1132 65.3304 52.5537 65.4212C52.4913 65.0618 52.4837 64.6945 52.4893 64.3519C52.499 63.7519 52.5445 63.2148 52.5068 62.6947L52.4854 62.473C52.3864 61.6665 52.0032 61.0744 51.4775 60.7552C50.9548 60.438 50.2201 60.3476 49.332 60.6839L48.6543 60.9408V58.8724L49.0488 58.7865C51.3515 58.2864 53.6648 57.7037 56.5576 57.7093L57.2871 57.7103L57.0234 58.39C56.9903 58.4754 56.9793 58.6219 57.0137 58.7786C57.0299 58.8525 57.0525 58.9133 57.0752 58.9554C57.0998 59.0008 57.1123 59.0042 57.0957 58.9925L56.6367 59.8704C56.0359 59.6506 55.3517 59.6472 54.8037 59.8236C54.25 60.0018 53.9257 60.326 53.8477 60.6956C53.6933 61.43 54.034 62.1219 54.4854 63.0277C54.8095 63.6783 55.1949 64.4539 55.1943 65.3148C55.5399 65.2111 55.7846 65.0339 55.9707 64.7171C55.9715 64.7129 55.9727 64.7084 55.9736 64.7035C55.9837 64.6484 55.9952 64.5727 56.0098 64.4749C56.0379 64.2855 56.0746 64.0293 56.123 63.7767C56.1705 63.5296 56.2349 63.2531 56.3271 63.0277C56.3727 62.9164 56.4363 62.7878 56.5293 62.6781C56.6225 62.5681 56.7876 62.429 57.0293 62.4144H57.0303C57.2331 62.4024 57.4437 62.4463 57.623 62.5814C57.7981 62.7132 57.8907 62.8919 57.9375 63.0521C58.0251 63.3517 57.9885 63.699 57.9346 63.9759C57.8771 64.2705 57.7824 64.5689 57.6895 64.8119C57.6022 65.0399 57.4968 65.2695 57.4043 65.3997V65.4007L57.2529 65.5941C56.4609 66.5314 55.1147 66.9663 53.8428 66.9827ZM73.1904 67.3119C72.4143 67.7764 71.4233 67.8353 70.6055 67.6361C69.7616 67.4305 68.8656 66.878 68.7354 65.931H68.7344C68.5854 64.8426 69.2323 63.94 70.0303 63.5853L71.1328 63.096L70.7002 64.222C70.5341 64.6545 70.3439 65.2123 70.3311 65.6624C70.3267 65.8154 70.3447 65.9262 70.3721 66.0042C70.5567 65.5956 70.8341 65.2574 71.1025 64.9661C71.5374 64.4944 71.92 64.1569 72.1924 63.7171V63.7161C72.466 63.2755 72.7499 62.6654 72.7676 62.1956C72.7758 61.9764 72.724 61.8453 72.6465 61.762C72.5662 61.6759 72.3825 61.5592 71.957 61.5306L71.4629 61.4974L71.4912 61.0033C71.5066 60.7356 71.6276 60.5612 71.7031 60.4622C71.7389 60.4154 71.7552 60.3934 71.7617 60.3851L71.9189 59.8119L72.4639 60.0824C73.4107 60.5522 74.2072 61.1594 74.9463 61.7777L75.876 62.555L74.6689 62.6595C73.9783 62.7192 73.5301 63.2524 73.1631 64.181C72.9844 64.633 72.8438 65.132 72.7051 65.6351C72.6673 65.772 72.6275 65.9098 72.5889 66.0472C72.6556 65.9832 72.7216 65.9114 72.7881 65.8314C72.8606 65.7441 72.9298 65.653 73.0059 65.554C73.0794 65.4582 73.1604 65.3535 73.2451 65.2542C73.4113 65.0595 73.6292 64.8413 73.9248 64.7132L75.0654 64.2191L74.584 65.3656C74.3417 65.9429 74.0476 66.7231 73.3428 67.2132L73.1904 67.3119ZM47.4805 67.847C45.5321 68.4381 43.7354 67.0739 43.3369 65.4827L43.0439 64.3128L44.0781 64.932C44.3575 65.0991 44.5795 65.3369 44.7627 65.5501C44.9643 65.7848 45.1091 65.9756 45.2988 66.1742C45.3457 66.2232 45.3929 66.2704 45.4414 66.3148C45.2698 65.9878 45.1098 65.6184 44.9766 65.1976C44.8847 64.9077 44.7947 64.555 44.7148 64.2816C44.6282 63.9848 44.5387 63.7248 44.4268 63.5091C44.316 63.2958 44.1948 63.1492 44.0566 63.056C43.9248 62.9671 43.7418 62.9027 43.4609 62.9115L42.2725 62.9486L43.0771 62.0736C43.4333 61.6863 43.8526 61.3797 44.2529 61.1087C44.6687 60.8273 45.0436 60.5967 45.3984 60.3226L45.5684 60.1917L45.7803 60.224C45.9506 60.2504 46.0822 60.3347 46.1748 60.4359C46.2222 60.4877 46.2565 60.5435 46.2803 60.5853L47.5781 60.929L46.209 61.4945C45.7711 61.6753 45.4939 61.7882 45.3271 61.9593C45.2602 62.028 45.2178 62.1016 45.1982 62.1995C45.1772 62.3049 45.1767 62.4688 45.2451 62.7201C45.4188 63.3569 45.8985 63.9277 46.4707 64.598C46.8565 65.0498 47.2972 65.5636 47.5811 66.1449C47.6019 66.063 47.6176 65.9584 47.6191 65.8265C47.6248 65.3428 47.483 64.82 47.4072 64.3792L47.2256 63.3226L48.1523 63.8626C49.0482 64.3852 49.298 65.2917 49.1074 66.0951C48.9231 66.8718 48.3232 67.5916 47.4805 67.847Z" fill="#231F20" stroke="#231F20"/>
<path d="M67.466 74.209C66.65 74.9362 68.2644 77.4605 68.83 78.5736C69.6787 78.5129 69.291 77.2159 69.3757 76.3908C68.2775 76.1245 67.7332 75.3058 67.466 74.209ZM70.7393 73.9363C69.5736 73.8594 70.7216 75.131 70.7393 75.5729C70.4716 76.3373 70.012 75.1763 69.6483 75.8456C69.4731 77.6579 71.1016 77.6661 71.5581 78.8462C73.7716 77.4007 70.7275 75.7278 70.7393 73.9363ZM74.0129 72.2988C72.5485 72.4419 74.5216 74.8973 74.8313 75.8456C73.7711 76.2568 73.3523 73.9445 72.6494 73.1176C71.1034 76.1743 74.3594 78.0265 75.9227 79.6649C76.4643 77.1199 75.0143 74.2099 74.0129 72.2988ZM78.1049 72.5714C77.8741 71.7726 77.2269 72.7345 76.741 72.5714C76.8832 72.9753 77.1444 73.2588 77.2867 73.6628C76.3647 73.7661 76.1229 73.19 75.6501 72.844C75.0206 75.8401 78.3536 77.2322 80.2873 78.5736C82.0127 75.3529 77.2568 74.9054 78.1049 72.5714ZM79.4694 69.0256C79.4278 69.53 78.5456 69.1931 78.3781 69.5708C77.9025 71.9555 79.9957 71.7726 80.2873 73.3902C79.6334 74.2878 79.483 72.3975 78.3781 72.844C79.3875 74.9271 81.3946 76.0113 83.0153 77.4823C83.7471 75.0893 80.5953 72.1656 79.4694 69.8434C80.4775 69.9267 80.492 71.0037 81.1061 71.481C81.5757 70.1858 79.4731 69.117 78.9233 67.9342C78.0777 67.9985 78.0724 68.9016 77.8319 69.5708C78.5891 69.53 78.7123 68.2648 79.4694 69.0256ZM80.2873 67.6615C82.0335 70.8262 83.3273 74.4426 86.8347 75.8456C85.3312 72.8024 83.5321 70.0545 81.1061 67.9342C83.8789 68.9812 85.6664 73.3757 89.8354 73.9363C89.6587 72.6575 88.6334 72.2272 88.1987 71.2083C87.5258 71.1721 86.8845 71.1667 86.5617 71.481C84.6329 70.2918 83.134 66.1581 80.2873 67.6615ZM84.1067 66.2976C87.1354 68.9595 89.138 70.9701 94.4726 71.2083C92.8767 69.0763 90.683 67.5411 87.6531 66.8428C87.788 68.2539 89.7647 67.8237 90.1079 69.0256C87.3446 68.8788 86.5187 66.7948 84.1067 66.2976ZM87.1074 62.751C87.3669 63.6827 88.4324 65.2324 89.5627 64.3884C90.1166 65.016 90.8733 65.4417 91.472 66.0249C89.9399 66.2776 89.3979 65.3756 87.3799 65.2062C89.4214 67.7892 93.4574 67.6344 96.928 67.6615C96.4077 63.7398 89.1733 64.7306 87.1074 62.751ZM91.472 61.387C92.269 63.0454 95.3412 62.4286 96.6554 63.5696C94.9835 63.7824 92.5642 62.3897 89.8354 62.751C91.5354 63.8693 94.588 63.6357 95.8366 65.2062C97.0602 64.7932 98.4623 64.5586 99.656 64.1148C98.2802 62.0337 94.3593 61.0478 91.472 61.387ZM85.1981 60.0231C85.1786 61.1334 86.2062 61.1977 87.3799 61.1143C87.6553 61.935 86.7722 61.598 86.2891 61.6601C87.1495 62.905 89.3037 62.324 90.9267 62.2053C90.7139 59.7812 87.322 60.5356 85.1981 60.0231ZM86.0159 57.8412C86.2234 58.6341 88.264 57.5934 88.4713 58.3864C88.0393 58.9547 86.563 58.4788 86.0159 58.9321C87.0756 60.8671 90.7642 59.1707 92.2907 58.9321C90.7628 57.7913 87.552 55.7866 86.0159 57.8412ZM94.7457 57.5676C94.8195 58.8737 97.2672 57.9915 98.292 57.8412C95.9562 58.9606 93.0552 59.5149 90.1079 60.0231C90.7438 61.6633 91.4159 59.855 92.8359 60.0231C95.2334 62.6518 100.81 58.9542 102.93 57.0224C100.429 56.4056 96.6754 56.2426 94.7457 57.5676ZM89.8354 54.8396C90.3516 54.3559 91.6368 54.6413 92.5634 54.5671C91.8913 55.8957 88.4084 54.4134 87.9257 55.931C90.1044 57.6854 94.2517 56.1778 95.564 54.5671C94.9799 52.8089 89.7828 51.8082 89.8354 54.8396ZM97.4737 55.3858C98.3165 55.0461 99.4132 54.961 100.474 54.8396C100.483 55.6674 99.5174 55.5198 98.8377 55.6584C102.013 57.1094 104.602 53.9756 106.203 52.1121C103.084 51.9233 98.1502 52.2275 97.4737 55.3858ZM93.1086 48.8384C92.581 49.1292 92.7287 50.0951 92.2907 50.4755C92.8061 51.4034 93.2472 50.0082 93.9273 50.2023C93.7141 51.5346 91.6277 50.9949 91.472 52.3847C94.3585 53.0038 96.6514 51.388 97.4737 49.111C96.4063 48.0921 94.7334 48.8842 93.1086 48.8384ZM91.7446 45.0195C88.8196 45.7481 85.1972 47.1782 85.4707 50.2023C86.3347 49.0661 87.2667 47.9978 88.4713 47.2018C88.8504 48.4788 86.2442 48.9172 86.0159 50.4755C87.0462 50.7073 87.2966 49.5693 87.9257 50.2023C85.7822 50.8781 84.2852 52.1995 83.561 54.2945C82.8229 52.9503 85.7225 51.6244 84.6519 49.9299C83.1526 51.4622 81.5598 53.9411 82.197 56.7497C84.6455 55.7426 86.1391 53.7808 87.6531 51.839C88.0456 51.9921 88.3187 52.2647 88.4713 52.6578C88.494 53.6808 87.4724 53.659 87.3799 54.5671C90.1365 54.9719 91.1803 51.5138 92.2907 49.3841C90.2719 49.2749 89.6719 50.5847 88.1987 51.0211C87.9669 51.071 87.9415 50.9143 87.9257 50.7486C89.695 49.3347 91.0753 47.5324 91.7446 45.0195ZM98.5646 43.3824C95.256 44.0748 91.6179 44.4375 91.1994 48.0205C93.3468 47.3489 94.5677 45.7508 96.6554 45.0195C95.5712 46.5728 93.2897 46.9273 92.0177 48.2932C95.4453 48.9905 97.9659 46.422 98.5646 43.3824ZM92.8359 43.1097C91.6296 43.3579 90.4612 43.6446 90.1079 44.7464C91.1414 43.8107 92.1576 44.4761 92.8359 43.1097ZM93.3817 42.8368C93.6593 43.4729 94.8159 44.0508 95.564 43.3824C95.3113 42.7218 93.8558 42.4432 93.3817 42.8368ZM95.2913 42.0188C97.8437 40.9337 99.5437 38.9967 100.474 36.2899C96.4937 34.7908 93.9944 38.9353 92.2907 41.4731C92.768 41.4869 94.7094 40.843 95.2913 42.0188ZM102.384 33.2892C101.8 32.5478 100.756 33.6439 100.747 34.3805C101.478 34.2014 101.784 33.5988 102.384 33.2892ZM101.566 30.2883C100.799 30.2486 100.779 30.9565 100.747 31.6523C101.226 31.4032 101.695 31.1451 101.566 30.2883ZM102.384 28.1062C101.609 28.4221 100.765 28.6691 100.747 29.7427C101.821 29.7253 102.068 28.8813 102.384 28.1062ZM106.749 45.2921C105.849 44.947 104.249 46.2409 102.93 46.3834C103.957 44.7736 106.379 44.5589 108.385 43.9285C108.289 43.5699 107.905 43.4992 107.84 43.1097C110.669 42.1194 112.878 40.5094 113.841 37.654C110.4 40.8502 103.436 40.5249 99.9287 43.6554C99.6506 40.4655 106.185 41.7292 107.294 39.0177C109.906 38.6287 110.506 36.2279 111.659 34.3805C109.957 35.8819 107.432 37.944 105.385 38.1996C108.084 36.0225 111.472 34.9747 113.023 32.4707C113.522 31.6636 113.474 30.5607 113.841 30.0156C114.293 29.3444 115.622 29.1441 115.205 28.1062C114.176 28.4356 114.497 29.3033 113.569 29.1971C114.752 27.471 116.077 25.8854 116.842 23.7413C116.246 22.8161 115.965 24.4752 115.751 24.8325C115.508 25.0442 115.135 25.1257 114.66 25.1051C114.378 26.3697 112.998 26.5354 112.75 27.8331C109.405 30.1259 106.565 32.9232 103.202 35.1986C102.135 35.5855 100.816 35.7221 101.02 37.3811C104.643 36.7302 105.739 33.5524 108.931 32.4707C106.841 35.6632 101.438 36.969 100.747 40.6549C99.7321 41.7306 98.2848 42.3754 96.6554 42.8368C97.8301 43.0897 99.156 42.7695 99.656 44.2011C101.436 43.7991 102.739 42.9191 104.566 42.5644C102.871 44.5797 99.3657 45.0407 97.7468 46.3834C97.9352 47.0645 98.474 45.8772 99.1108 46.1104C99.5943 46.3503 98.4094 47.2063 98.5646 48.0205C99.4753 47.5125 99.7135 49.001 99.1108 49.111C101.046 48.3171 104.445 46.6271 106.749 45.2921ZM111.386 23.4684C114.588 18.5167 118.028 14.518 117.388 6.28215C116.382 9.94141 115.439 13.8115 112.75 17.1942C110.598 19.9025 107.514 23.1659 105.657 24.5596C104.552 25.3896 103.146 25.2677 102.657 26.7422C102.704 26.6008 103.85 27.762 102.657 27.5605C104.759 27.0229 106.884 24.1509 108.931 22.6499C107.992 25.4408 103.599 27.1378 103.202 31.3794C103.643 31.4563 103.672 31.1217 104.021 31.1068C104.125 32.1203 102.916 31.8198 103.202 33.0163C104.045 32.8928 103.857 31.5712 104.566 32.7434C106.059 31.5212 109.551 31.1066 109.204 28.9242C111.466 26.821 113.887 24.8789 114.933 21.5588C113.885 22.239 113.469 23.5511 112.477 24.287C113.207 21.3795 115.932 20.4662 116.297 17.1942C114.412 19.0373 113.56 21.9133 111.386 23.4684ZM110.841 44.7464C106.192 45.4035 101.368 49.5992 97.2006 50.7486C97.2776 52.2755 96.3048 52.6433 94.4726 52.6578C94.5532 53.2138 95.2107 53.193 95.2913 53.7491C97.696 52.9707 99.4332 51.5257 102.657 51.5664C102.896 50.6906 101.949 51.0012 101.838 50.4755C105.675 49.4017 109.013 47.829 110.841 44.7464ZM82.197 45.8377C83.2045 44.2084 83.8921 42.2591 84.6519 40.3818C85.3539 41.8089 83.7616 42.4916 84.1067 43.9285C86.3846 41.4362 87.7803 39.0716 88.1987 35.1986C84.4849 37.0317 82.8021 40.8958 82.197 45.8377ZM88.744 36.8354C89.1977 37.5326 89.4767 35.7708 90.3805 36.0172C90.7306 37.2192 89.0755 37.1346 89.8354 37.9266C91.6966 37.1508 92.7029 35.5206 94.4726 34.6531C93.0162 36.3993 90.7959 38.4598 90.6537 40.6549C91.2555 41.5854 91.2714 39.6612 91.472 39.2906C94.7293 36.4555 99.4612 35.0951 100.474 30.0156C95.6845 30.3274 91.635 33.7183 88.744 36.8354ZM82.4701 39.0177C81.0327 39.3638 82.1304 37.1748 81.3787 36.8354C80.2257 38.4104 81.1115 42.024 80.8329 44.4737C79.5826 44.3606 80.2031 42.3759 78.9233 42.2914C80.1379 45.326 79.5908 49.3855 79.4694 53.2035C80.0256 53.1233 80.0038 52.4648 80.5599 52.3847C80.1994 53.2972 80.2248 54.5956 79.7421 55.3858C79.5573 54.4588 78.8354 55.1181 78.6507 55.6584C79.6261 55.9641 80.247 58.0522 79.4694 59.2047C79.0139 58.0227 79.2227 56.1778 77.8319 55.931C77.2029 56.3323 77.3393 55.8776 77.5593 55.1127C78.0403 54.5996 78.4043 55.4863 78.6507 54.5671C78.9351 50.6027 79.5917 44.2659 77.8319 41.4731C78.8278 41.2309 79.2851 41.9547 79.7421 41.4731C79.9033 38.3595 80.6532 34.3846 82.4701 33.8348C82.1123 33.8389 82.1223 34.5913 82.4701 34.6531C84.4667 31.376 86.7749 28.4105 90.1079 26.4691C90.4865 26.6367 90.1492 27.5192 90.6537 27.5605C98.9146 19.9025 111.123 14.7564 111.386 0.00786591C116.14 4.25965 112.275 13.3787 111.113 17.7396C114.762 14.6596 116.031 9.19901 116.842 3.28146C119.869 10.013 115.977 19.9996 114.114 25.1051C115.645 24.2714 116.142 22.4041 117.661 21.5588C116.19 29.5931 113.225 33.6317 110.022 39.2906C112.243 38.6919 113.414 37.0444 115.205 36.0172C114.014 40.1914 110.883 42.4251 108.113 45.0195C109.541 45.0009 110.631 43.4693 111.659 43.9285C110.509 47.5967 106.551 48.4585 104.839 51.5664C105.693 51.5106 106.842 51.7502 107.294 51.2938C106.914 54.1875 103.675 54.221 102.384 56.2041C102.903 56.3209 103.07 56.7919 103.748 56.7497C102.51 59.4217 98.8345 59.6567 96.928 61.6601C98.5193 62.069 99.6623 62.9263 100.474 64.1148C99.7348 65.1029 97.7549 64.8502 96.6554 65.4797C96.6336 66.5004 97.8315 66.3039 97.4737 67.6615C96.6445 68.7421 93.7281 67.7349 92.5634 68.4804C93.249 69.7039 94.8942 69.9685 95.2913 71.481C92.9999 72.4664 90.1288 70.5508 88.4713 70.9348C88.8934 72.3314 90.6238 72.4202 90.3805 74.4816C88.33 74.6183 87.0702 72.5234 85.7433 72.844C86.2614 74.1456 87.399 74.8267 87.3799 76.6635C85.7107 76.2423 84.8807 74.9806 83.2879 74.4816C83.5384 75.5956 84.3006 77.3445 83.8341 78.301C82.6136 78.339 82.5742 77.196 81.3787 77.2096C81.5562 78.387 80.9072 78.7384 80.5599 79.3915C78.6281 79.1016 77.7876 76.3999 76.1953 76.6635C76.4294 77.5564 76.9162 79.2221 76.4683 79.9376C75.007 80.4149 74.2688 78.0076 72.6494 77.7548C72.7785 78.7936 72.5335 79.4576 71.8306 79.6649C71.1496 79.1632 70.9548 78.176 69.9214 78.0274C69.3545 78.0981 69.8463 79.2266 69.3757 79.3915C68.0239 79.2882 68.206 77.6516 67.1934 77.2096C66.5268 77.3617 66.6119 78.2648 65.5563 78.0274C64.9907 76.7205 63.3513 75.2143 63.6466 73.9363C64.7878 74.795 64.6429 76.9406 66.3746 77.2096C67.3184 75.928 65.1827 75.7858 65.5563 74.209C69.2457 74.112 73.3205 71.4945 76.741 71.2083C75.3095 68.6633 81.966 65.9941 79.1959 63.0241C80.3308 61.142 83.7915 62.3073 84.9251 63.5696C83.2921 63.3839 82.3261 62.5314 80.5599 62.4784C80.7701 63.5062 80.2276 63.7824 80.2873 64.6609C81.1169 65.1174 83.2412 66.5249 84.1067 65.2062C83.6909 64.5197 81.395 64.2941 82.197 63.2969C82.9203 64.3069 85.2479 65.1491 86.8347 64.3884C86.8338 64.1148 87.0557 64.0632 87.1074 63.8421C86.9516 61.7507 83.4283 62.7402 83.0153 61.6601C83.2209 60.9559 85.0332 61.8594 84.9251 60.8418C84.5496 60.2168 83.5651 60.2011 83.2879 59.4778C84.3322 59.7101 85.4051 59.9913 85.4707 58.659C85.0976 57.9418 83.4165 58.5304 83.561 57.2951C85.5495 58.1047 87.3247 56.8222 87.6531 55.1127C83.9319 54.7735 82.0331 58.5734 80.5599 61.387C80.8588 57.1619 81.8007 52.3018 83.561 48.2932C86.4434 46.691 91.2221 44.1721 89.5627 39.8362C86.4262 40.6104 85.2932 43.3869 84.1067 46.1104C84.9409 45.763 84.9087 44.5485 85.7433 44.2011C85.5644 45.8785 83.3857 47.8167 82.197 49.3841C81.8289 48.1822 83.3894 47.5056 82.4701 46.656C81.8881 46.2471 81.6504 48.7944 80.8329 48.0205C82.1871 42.3725 83.6607 36.8443 88.1987 34.3805C88.8237 34.4826 88.5624 35.4714 89.017 35.7442C91.6382 31.5459 97.9324 31.0199 100.747 27.0147C101.638 26.8776 101.325 28.3713 102.111 27.5605C102.223 26.9032 101.613 26.9675 101.838 26.1965C105.002 23.2624 109.881 20.4677 110.022 17.467C108.811 18.5321 107.251 20.6934 105.657 20.4678C110.691 17.397 114.821 10.2129 112.205 2.73607C111.083 9.25266 107.377 13.1846 104.293 17.7396C101.635 19.8093 98.1426 21.0455 96.6554 24.287C93.4654 25.6438 91.1894 27.9144 89.2897 30.5613C93.023 28.5658 96.5376 26.3514 99.3834 23.4684C97.245 27.6047 91.9361 28.5702 89.2897 32.198C88.5457 32.2227 88.7404 31.7435 88.1987 32.198C87.37 34.4609 85.4064 35.5889 83.561 36.8354C85.2207 33.4928 89.1692 30.987 89.5627 27.2877C86.0762 30.0756 82.4755 32.7493 82.4701 39.0177Z" fill="#231F20"/>
<path d="M73.3466 15.9783L73.2069 13.0752L78.4076 7.59505H81.202L76.5136 12.6405L75.1164 14.1309L73.3466 15.9783ZM71.0956 18.4622V7.59505H73.595V18.4622H71.0956ZM78.5318 18.4622L74.6662 13.7272L76.3118 11.9419L81.4659 18.4622H78.5318Z" fill="#231F20"/>
<path d="M57.887 18.6476C57.0901 18.6476 56.3812 18.5182 55.7602 18.2595C55.1392 18.0007 54.6476 17.6488 54.2854 17.2038C53.9231 16.7588 53.742 16.2465 53.742 15.6669C53.742 15.1287 53.861 14.6474 54.0991 14.2231C54.3371 13.7884 54.7149 13.3848 55.2323 13.0122C55.7498 12.6293 56.407 12.2567 57.2039 11.8944C57.7835 11.6253 58.2389 11.3873 58.5701 11.1803C58.9013 10.9733 59.1342 10.7767 59.2687 10.5904C59.4032 10.3937 59.4705 10.1971 59.4705 10.0004C59.4705 9.73135 59.3774 9.51401 59.1911 9.34842C59.0151 9.18282 58.7512 9.10002 58.3993 9.10002C58.0267 9.10002 57.737 9.19317 57.53 9.37947C57.323 9.56576 57.2195 9.8038 57.2195 10.0936C57.2195 10.2488 57.2505 10.4041 57.3126 10.5593C57.3747 10.7042 57.4937 10.875 57.6697 11.0716C57.8456 11.2579 58.094 11.5011 58.4149 11.8013L64.1434 17.1107L62.8238 18.6476L56.5053 12.7793C56.1431 12.4481 55.8533 12.1376 55.636 11.8479C55.4186 11.5581 55.2582 11.2735 55.1547 10.994C55.0616 10.7146 55.015 10.4248 55.015 10.1246C55.015 9.59681 55.1547 9.13107 55.4342 8.72744C55.7136 8.3238 56.1069 8.01331 56.614 7.79597C57.1212 7.56828 57.7163 7.45443 58.3993 7.45443C59.0307 7.45443 59.574 7.55793 60.0294 7.76492C60.4951 7.96156 60.8574 8.24618 61.1161 8.61877C61.3852 8.99135 61.5197 9.43639 61.5197 9.95387C61.5197 10.4093 61.4059 10.8284 61.1782 11.2114C60.9505 11.5839 60.5934 11.9358 60.107 12.267C59.6309 12.5982 59.0048 12.9346 58.2286 13.2761C57.7007 13.5142 57.2816 13.747 56.9711 13.9747C56.6709 14.1921 56.4536 14.4146 56.3191 14.6423C56.1845 14.87 56.1172 15.1235 56.1172 15.403C56.1172 15.6617 56.1949 15.8946 56.3501 16.1016C56.5157 16.3086 56.7434 16.469 57.0332 16.5828C57.323 16.6967 57.6645 16.7536 58.0578 16.7536C58.6891 16.7536 59.2687 16.6087 59.7965 16.3189C60.3244 16.0188 60.7694 15.5789 61.1316 14.9993C61.5042 14.4094 61.7681 13.6953 61.9234 12.8569L63.8639 13.4624C63.6466 14.5181 63.2585 15.434 62.6996 16.2102C62.1407 16.9865 61.4525 17.5867 60.6348 18.0111C59.8172 18.4354 58.9013 18.6476 57.887 18.6476Z" fill="#231F20"/>
<path d="M39.9033 15.9783L39.7635 13.0752L44.9642 7.59505H47.7586L43.0702 12.6405L41.673 14.1309L39.9033 15.9783ZM37.6522 18.4622V7.59505H40.1517V18.4622H37.6522ZM45.0884 18.4622L41.2228 13.7272L42.8684 11.9419L48.0225 18.4622H45.0884Z" fill="#231F20"/>
</svg>
