<svg width="194" height="123" viewBox="0 0 194 123" fill="none" xmlns="http://www.w3.org/2000/svg">
<path d="M85.6533 85.9327C85.7485 86.861 85.3125 88.3201 86.2672 88.3883C86.9035 87.1361 88.7197 84.2962 87.8017 83.478C87.501 84.712 86.8887 85.6331 85.6533 85.9327ZM83.1981 88.695C83.7117 87.3674 85.5437 87.3582 85.3466 85.3193C84.9375 84.5663 84.4204 85.8726 84.1193 85.0126C84.1392 84.5154 85.4307 83.0848 84.1193 83.1713C84.1326 85.1868 80.708 87.0689 83.1981 88.695ZM78.288 89.6162C80.0467 87.7729 83.7097 85.6892 81.9704 82.2502C81.1797 83.1805 80.7085 85.7819 79.5159 85.3193C79.8643 84.2525 82.084 81.4901 80.4365 81.329C79.31 83.4791 77.6788 86.753 78.288 89.6162ZM73.3779 88.3883C75.5534 86.8792 79.3028 85.3131 78.5948 81.9425C78.0629 82.3317 77.7908 82.9798 76.7537 82.8636C76.9135 82.4092 77.2075 82.0903 77.3675 81.6357C76.8209 81.8192 76.0929 80.7371 75.833 81.6357C76.7873 84.2616 71.4369 84.7651 73.3779 88.3883ZM76.1402 78.26C75.8698 77.5071 75.8636 76.4911 74.9124 76.4188C74.294 77.7496 71.9286 78.9519 72.4569 80.409C73.1478 79.872 73.1641 78.6605 74.298 78.5667C73.0316 81.1793 69.4857 84.4685 70.309 87.1606C72.1323 85.5058 74.3902 84.2861 75.5258 81.9425C74.2828 81.4401 74.1136 83.5667 73.3779 82.5569C73.706 80.7371 76.0607 80.9429 75.5258 78.26C75.3373 77.8351 74.3449 78.2141 74.298 77.6467C75.1498 76.7907 75.2884 78.2141 76.1402 78.26ZM66.3195 80.409C65.9562 80.0554 65.2349 80.0615 64.4778 80.1023C63.9887 81.2486 62.8353 81.7326 62.6366 83.1713C67.3266 82.5406 69.3375 77.5967 72.4569 76.4188C69.7278 78.8041 67.7036 81.8956 66.0123 85.3193C69.958 83.7409 71.4135 79.6723 73.3779 76.112C70.1755 74.4207 68.4892 79.0711 66.3195 80.409ZM62.3299 77.6467C62.7161 76.2945 64.9399 76.7785 65.0917 75.1909C61.683 75.9766 59.2151 77.7037 57.4198 80.1023C63.4212 79.8343 65.6741 77.5723 69.0812 74.5775C66.3679 75.1369 65.4386 77.4816 62.3299 77.6467ZM54.6576 76.112C58.562 76.0815 63.1023 76.2558 65.3988 73.3497C63.1287 73.5403 62.519 74.5552 60.7954 74.2708C61.469 73.6147 62.3202 73.1358 62.9434 72.4297C64.215 73.3792 65.4137 71.6358 65.7055 70.5876C63.3814 72.8148 55.2429 71.7001 54.6576 76.112ZM51.5886 72.1219C52.9316 72.6212 54.5088 72.8851 55.8854 73.3497C57.2899 71.5829 60.7242 71.8458 62.6366 70.5876C59.5667 70.1811 56.8452 71.7479 54.9643 71.5085C56.4427 70.225 59.8988 70.9188 60.7954 69.0531C57.5472 68.6715 53.1363 69.7806 51.5886 72.1219ZM61.4088 69.9736C63.2347 70.1072 65.6582 70.7609 66.6261 69.3604C66.0825 69.2905 65.0891 69.6695 65.3988 68.7464C66.7194 68.8401 67.8754 68.7678 67.8534 67.5186C65.4641 68.0953 61.6482 67.2465 61.4088 69.9736ZM59.8744 66.2913C61.5917 66.5598 65.7413 68.4682 66.9334 66.2913C66.318 65.7813 64.6571 66.3167 64.1712 65.6773C64.4044 64.7852 66.7 65.9561 66.9334 65.0639C65.2053 62.7524 61.5933 65.0079 59.8744 66.2913ZM47.9057 64.1428C50.29 66.3162 56.564 70.476 59.261 67.5186C60.8587 67.3295 61.6147 69.3639 62.3299 67.5186C59.0144 66.9469 55.7508 66.3233 53.123 65.0639C54.2759 65.233 57.0296 66.2255 57.1126 64.7562C54.9418 63.2654 50.7185 63.4489 47.9057 64.1428ZM56.192 61.3805C57.6684 63.1927 62.334 64.8887 64.785 62.9149C64.242 61.2077 60.3237 62.8752 59.5677 61.3805C60.61 61.4639 62.0558 61.143 62.6366 61.6871C62.6957 58.2767 56.8492 59.4026 56.192 61.3805ZM44.2229 58.6186C46.0243 60.7151 48.9374 64.2406 52.5092 62.6083C51.7445 62.4523 50.6579 62.6185 50.6681 61.6871C51.8617 61.8237 53.0955 61.9194 54.0437 62.3016C53.2825 58.7485 47.7325 58.4062 44.2229 58.6186ZM54.0437 55.2423C54.9688 57.8039 57.5482 59.6217 60.7954 58.9253C60.6202 57.3617 58.2731 57.969 58.0333 56.4701C58.7985 56.2516 59.2947 57.8213 59.8744 56.7773C59.3817 56.3494 59.5479 55.2627 58.9544 54.9356C57.1264 54.9871 55.2445 54.096 54.0437 55.2423ZM64.785 57.0846C64.7672 57.271 64.7387 57.4473 64.4778 57.3912C62.8205 56.9002 62.1456 55.4267 59.8744 55.5495C61.1235 57.9455 62.2979 61.8359 65.3988 61.3805C65.295 60.3589 64.1456 60.3834 64.1712 59.2326C64.3428 58.7903 64.65 58.4836 65.0917 58.3114C66.7948 60.4959 68.475 62.703 71.2296 63.8361C71.9464 60.6763 70.1546 57.8874 68.4679 56.1635C67.2635 58.0699 70.5255 59.5616 69.6951 61.0738C68.8805 58.7169 67.1963 57.2303 64.785 56.4701C65.4926 55.7579 65.7744 57.0382 66.9334 56.7773C66.6766 55.0243 63.7447 54.531 64.1712 53.0944C65.5262 53.99 66.5747 55.1919 67.5468 56.4701C67.8545 53.0679 63.7793 51.459 60.4887 50.6392C61.2418 53.4663 62.7946 55.4941 64.785 57.0846ZM60.1816 54.3222C58.7506 52.7856 56.1839 52.3868 54.9643 50.6392C57.3129 51.462 58.6863 53.2599 61.1022 54.0156C60.6314 49.9846 56.5385 49.5765 52.8164 48.7974C53.4898 52.2171 56.3255 55.1068 60.1816 54.3222ZM62.3299 50.332C61.9326 49.0924 60.6181 48.77 59.261 48.4907C60.0242 50.0279 61.1674 49.2794 62.3299 50.332ZM56.192 48.7974C57.0337 49.5495 58.3348 48.8993 58.6471 48.1838C58.1137 47.7409 56.4763 48.0544 56.192 48.7974ZM59.8744 46.6495C57.9578 43.7945 55.1461 39.1318 50.6681 40.8184C51.715 43.8635 53.6274 46.0427 56.4987 47.2634C57.1534 45.9406 59.3374 46.665 59.8744 46.6495ZM50.3608 38.6702C50.3506 37.8415 49.1769 36.6083 48.5196 37.4424C49.1941 37.7909 49.5391 38.4687 50.3608 38.6702ZM50.3608 35.6009C50.3252 34.8181 50.3033 34.0217 49.4403 34.0663C49.2951 35.0302 49.8229 35.3206 50.3608 35.6009ZM50.3608 33.4526C50.3415 32.2447 49.3918 31.9668 48.5196 31.6114C48.8753 32.4834 49.1534 33.433 50.3608 33.4526ZM52.202 55.2423C51.5239 55.1185 51.7919 53.4439 52.8164 54.0156C52.9911 53.0994 51.6579 52.1366 52.202 51.8665C52.9183 51.6042 53.5245 52.94 53.7364 52.1738C51.9152 50.6632 47.972 50.1445 46.0646 47.8772C48.1202 48.2763 49.586 49.2662 51.5886 49.7186C52.1511 48.1079 53.6428 48.4681 54.9643 48.1838C53.1313 47.6647 51.503 46.9392 50.3608 45.729C49.5834 41.5823 43.5056 40.1133 41.154 36.5218C44.7456 37.7386 45.9785 41.3136 50.0541 42.0459C50.2834 40.1794 48.8003 40.0259 47.5991 39.5906C43.8164 37.0307 40.6211 33.8837 36.8577 31.3042C36.5791 29.8442 35.0263 29.6579 34.7094 28.2352C34.175 28.2583 33.7552 28.1666 33.4821 27.9285C33.241 27.5265 32.9253 25.66 32.2543 26.7008C33.1158 29.113 34.6054 30.8969 35.9371 32.8387C34.8927 32.9582 35.2534 31.9821 34.096 31.6114C33.6274 32.7791 35.122 33.0045 35.6304 33.7596C36.0431 34.3728 35.9892 35.6136 36.5506 36.5218C38.2954 39.3387 42.1076 40.5175 45.144 42.9667C42.8413 42.6792 40.0005 40.3594 38.085 38.6702C39.3826 40.7485 40.0576 43.4495 42.9957 43.8872C44.2433 46.9376 51.5948 45.5159 51.2819 49.1047C47.3357 45.5827 39.5017 45.9487 35.6304 42.3529C36.7146 45.5654 39.1997 47.3766 42.3818 48.4907C42.3084 48.9289 41.8765 49.0084 41.7683 49.4118C44.0252 50.1211 46.7503 50.3626 47.9057 52.1738C46.4217 52.0133 44.6213 50.5577 43.6095 50.946C46.2011 52.4479 50.0246 54.3492 52.202 55.2423ZM32.8682 19.3352C33.2788 23.0163 36.3437 24.0437 37.165 27.3148C36.0492 26.4869 35.5816 25.0107 34.4027 24.2455C35.5786 27.9807 38.303 30.1656 40.8472 32.5319C40.4571 34.9869 44.3854 35.4533 46.0646 36.8284C46.8624 35.5096 46.651 36.9966 47.5991 37.1353C47.9216 35.7893 46.5613 36.1274 46.6785 34.9872C47.0707 35.004 47.1034 35.3804 47.5991 35.2939C47.1528 30.5219 42.2106 28.613 41.154 25.473C43.4568 27.1617 45.848 30.3927 48.2129 30.9975C46.87 31.2242 48.16 29.9179 48.2129 30.0769C47.6628 28.4181 46.0808 28.5553 44.8373 27.6215C42.7481 26.0536 39.2792 22.3821 36.8577 19.3352C33.8331 15.5296 32.7724 11.1756 31.6404 7.0589C30.92 16.3244 34.7908 20.8231 38.3922 26.3939C35.9473 24.6443 34.9885 21.4087 32.8682 19.3352ZM49.1335 56.7773C49.0087 57.3688 47.9439 57.0194 48.2129 58.0047C51.8392 57.9588 53.7935 59.5845 56.4987 60.4603C56.5894 59.8347 57.3291 59.8581 57.4198 59.2326C55.3586 59.2162 54.2643 58.8024 54.3509 57.0846C49.6624 55.7915 44.2361 51.0713 39.0061 50.332C41.0622 53.8 44.8169 55.5694 49.1335 56.7773ZM64.4778 39.5906C64.9485 43.9478 66.5187 46.608 69.0812 49.4118C69.4694 47.7953 67.6782 47.0273 68.4679 45.4217C69.3227 47.5337 70.096 49.7268 71.2296 51.5598C70.549 46 68.6559 41.6529 64.4778 39.5906ZM50.6681 33.7596C51.8077 39.4741 57.131 41.0046 60.7954 44.1941C61.0212 44.6112 61.039 46.7759 61.716 45.729C61.5561 43.2595 59.0582 40.9414 57.4198 38.9768C59.4107 39.9527 60.5427 41.7869 62.6366 42.6596C63.4915 41.7685 61.6295 41.8638 62.0233 40.5114C63.0401 40.2342 63.3539 42.2163 63.8645 41.432C60.6121 37.9251 56.0565 34.1104 50.6681 33.7596ZM62.9434 30.6906C63.3861 34.8524 67.8279 37.6715 69.6951 41.432C67.6191 40.0297 65.4101 38.7606 64.4778 36.2148C63.8685 35.7035 64.0875 36.2425 63.2506 36.2148C60.2733 32.1334 54.301 31.0472 51.8953 26.3939C55.0967 29.6372 59.0506 32.1285 63.2506 34.3736C61.1134 31.3957 58.5529 28.8412 54.9643 27.3148C53.2912 23.668 49.3623 22.2774 46.3718 19.9488C42.9029 14.8243 38.733 10.4008 37.4717 3.06949C34.528 11.4811 39.1743 19.5634 44.8373 23.0182C43.044 23.2719 41.2895 20.8403 39.9266 19.6421C40.0856 23.0179 45.575 26.1621 49.1335 29.463C49.3867 30.3303 48.701 30.2581 48.8263 30.9975C49.7107 31.9097 49.3592 30.2292 50.3608 30.3836C53.5275 34.8894 60.6085 35.4812 63.5572 40.2044C64.0687 39.8974 63.7747 38.785 64.4778 38.6702C69.583 41.442 71.2409 47.6613 72.7641 54.0156C71.8445 54.8862 71.5771 52.0204 70.9224 52.4804C69.8883 53.4362 71.6438 54.1974 71.2296 55.5495C69.8923 53.7862 67.4413 51.6057 67.2401 49.7186C68.1789 50.1094 68.1428 51.4758 69.0812 51.8665C67.7465 48.8025 66.4718 45.679 62.9434 44.808C61.0766 49.686 66.4524 52.5197 69.6951 54.3222C71.6754 58.8321 72.735 64.2998 73.0713 69.0531C71.4141 65.8878 69.2778 61.6127 65.0917 61.9943C65.461 63.9175 67.4582 65.3604 69.6951 64.4495C69.8577 65.8394 67.9665 65.1771 67.5468 65.9841C67.6207 67.4829 68.8276 67.1665 70.0023 66.9052C69.6906 67.7188 68.583 67.7366 68.1607 68.4397C68.0389 69.5845 70.0777 68.5681 70.309 69.3604C69.8444 70.5754 65.8808 69.4623 65.7055 71.8152C65.7636 72.0638 66.0133 72.1219 66.0123 72.4297C67.7974 73.2855 70.416 72.338 71.2296 71.2018C72.1318 72.3236 69.5489 72.5774 69.0812 73.3497C70.0548 74.8333 72.4446 73.2499 73.3779 72.7364C73.4452 71.7479 72.8349 71.4372 73.0713 70.2809C71.0844 70.3406 69.9977 71.2996 68.1607 71.5085C69.4358 70.0884 73.3291 68.7775 74.6058 70.8948C71.4894 74.2362 78.9779 77.239 77.3675 80.1023C81.2155 80.4243 85.7995 83.369 89.95 83.478C90.3703 85.252 87.9677 85.412 89.0295 86.8539C90.9776 86.5512 90.8145 84.1373 92.0984 83.1713C92.4305 84.6091 90.5864 86.3036 89.95 87.7739C88.7625 88.0409 88.8583 87.025 88.1083 86.8539C86.9692 87.3511 87.174 89.1923 85.6533 89.3085C85.124 89.123 85.6772 87.8534 85.0394 87.7739C83.8768 87.941 83.6577 89.0516 82.8915 89.6162C82.1008 89.3828 81.8252 88.636 81.9704 87.4672C80.1486 87.7516 79.3182 90.4599 77.6742 89.9229C77.1704 89.1179 77.718 87.244 77.9813 86.2395C76.1901 85.9429 75.2446 88.9825 73.0713 89.3085C72.6805 88.5738 71.9505 88.1784 72.1502 86.8539C70.8053 86.8385 70.7609 88.1244 69.3879 88.0817C68.8631 87.0056 69.7207 85.038 70.0023 83.7847C68.2105 84.3462 67.2767 85.7656 65.3988 86.2395C65.3776 84.173 66.6572 83.4067 67.2401 81.9425C65.7474 81.5817 64.33 83.9387 62.0233 83.7847C61.7496 81.4657 63.6963 81.3658 64.1712 79.7946C62.3065 79.3625 59.0766 81.5176 56.4987 80.409C56.9456 78.7074 58.7964 78.4098 59.5677 77.0332C58.2574 76.1946 54.9765 77.3277 54.0437 76.112C53.6412 74.5847 54.9887 74.8058 54.9643 73.6575C53.7274 72.9493 51.5 73.2336 50.6681 72.1219C51.5815 70.7848 52.8674 69.8204 54.6576 69.3604C52.5127 67.1064 48.378 66.842 46.9852 63.8361C47.7483 63.8834 47.9354 63.3536 48.5196 63.2221C47.0677 60.9912 43.4231 60.9535 42.9957 57.698C43.5046 58.2115 44.7976 57.9419 45.7574 58.0047C43.8321 54.5082 39.3795 53.5386 38.085 49.4118C39.2415 48.8953 40.4683 50.6183 42.0751 50.6392C38.9582 47.7205 35.4359 45.2075 34.096 40.5114C36.1114 41.6671 37.4289 43.5206 39.9266 44.1941C36.3233 37.8277 32.9879 33.2843 31.3338 24.2455C33.0425 25.1964 33.6018 27.2973 35.3232 28.2352C33.2284 22.4914 28.8496 11.2562 32.2543 3.68307C33.1672 10.3404 34.5943 16.4837 38.6994 19.9488C37.3921 15.0426 33.045 4.78363 38.3922 0.000199149C38.6882 16.5926 52.4226 22.3821 61.716 30.9975C62.2836 30.9512 61.904 29.9582 62.3299 29.7697C66.0795 31.9538 68.6762 35.29 70.9224 38.9768C71.3136 38.9073 71.3249 38.0609 70.9224 38.0562C72.9664 38.6748 73.81 43.1467 73.9913 46.6495C74.5054 47.1914 75.02 46.377 76.1402 46.6495C74.1605 49.7915 74.8992 56.9205 75.2191 61.3805C75.4963 62.4147 75.9058 61.4171 76.447 61.9943C76.6945 62.8548 76.8479 63.3664 76.1402 62.9149C74.5756 63.1927 74.8105 65.2683 74.298 66.598C73.4232 65.3013 74.1218 62.9521 75.2191 62.6083C75.0113 62.0004 74.1992 61.2587 73.9913 62.3016C73.4483 61.4126 73.4768 59.9519 73.0713 58.9253C73.6969 59.0155 73.6724 59.7562 74.298 59.8464C74.1615 55.5511 73.5461 50.9841 74.9124 47.5701C73.4727 47.6652 74.1707 49.8979 72.7641 50.0253C72.4508 47.2694 73.4472 43.204 72.1502 41.432C71.3045 41.8139 72.5394 44.2764 70.9224 43.8872C70.9163 36.835 66.8656 33.8271 62.9434 30.6906Z" fill="#F9F9F9"/>
<path d="M83.2039 80.0078C91.7656 78.3072 102.747 78.5647 111.565 79.8301C111.675 79.6237 111.792 79.4304 111.906 79.248C112.086 78.9612 112.251 78.7114 112.402 78.4395L112.548 78.1768L112.848 78.1826C113.082 78.1867 113.242 78.0746 113.33 77.9092C113.422 77.7352 113.443 77.4787 113.31 77.2129L113.164 76.9199L113.373 76.6689C113.825 76.1254 114.217 75.5144 114.634 74.8721C115.043 74.2399 115.477 73.5789 115.992 72.9893L116.14 72.8193L116.366 72.8174C116.549 72.8164 116.682 72.7746 116.839 72.7012C117.011 71.7458 117.122 71.1235 117.536 70.2168H117.537C117.915 69.3891 118.287 68.5789 118.652 67.792C118.414 67.9103 118.18 68.0265 117.953 68.1396C117.264 68.4831 116.638 68.8219 116.127 69.2539L115.767 69.5576L115.442 69.2178C114.718 68.4603 113.753 67.9592 112.719 67.3213L112.463 67.1641L112.482 66.8643C112.531 66.1081 112.417 65.5153 112.266 64.918C112.178 64.5668 112.069 64.1947 111.982 63.7891C111.576 64.0571 111.128 64.2974 110.713 64.5254C109.991 64.9214 109.34 65.2956 108.894 65.7598L108.672 65.9922L108.369 65.8857C105.941 65.0355 103.015 64.6544 99.946 64.3584L99.1667 64.2832L99.5632 63.6074C99.9251 62.9902 99.8738 62.384 99.6013 61.8682C99.3188 61.3338 98.8019 60.9113 98.28 60.7344L98.0457 60.6543L97.9666 60.4199C97.8863 60.181 97.8449 59.9107 97.8728 59.584L97.905 59.2031L98.281 59.1348C98.7751 59.0441 99.1333 59.1371 99.4285 59.3135C99.511 59.3628 99.586 59.4198 99.6501 59.4688C99.7621 59.2777 99.8317 59.0065 99.8152 58.6875C99.8013 58.4197 99.7293 58.1979 99.6335 58.0332C99.5473 58.0966 99.4565 58.1493 99.366 58.1875C99.0556 58.3185 98.655 58.3492 98.2898 58.168L98.0984 58.0732L98.0349 57.8691C97.9496 57.5963 97.9998 57.3507 98.0994 57.1592C98.1212 57.1172 98.1454 57.0777 98.1707 57.041C98.0235 57.007 97.7872 56.9589 97.573 56.8789H96.6716C96.5733 56.9057 96.4754 56.9321 96.3816 56.9561C96.3575 56.9622 96.3338 56.9696 96.3103 56.9756C96.4481 57.1334 96.5694 57.3204 96.6531 57.5479L96.7683 57.8623L96.5203 58.0889C96.2889 58.3002 96.0188 58.4051 95.7332 58.3848C95.4713 58.3661 95.2598 58.2461 95.1169 58.1455C95.0536 58.1009 94.9924 58.0512 94.9382 58.0049C94.9283 58.0207 94.9172 58.037 94.907 58.0547C94.7884 58.2595 94.7141 58.4718 94.7029 58.5605C94.6705 58.8164 94.7306 59.1124 94.8503 59.4189C94.8666 59.4604 94.8854 59.5006 94.9031 59.541C95.0144 59.4125 95.1672 59.2838 95.3855 59.2129C95.6242 59.1354 95.8839 59.1439 96.1589 59.21L96.5105 59.2939L96.5408 59.6533C96.5756 60.0642 96.4611 60.3972 96.2468 60.6641C96.0529 60.9056 95.7923 61.0711 95.5906 61.1943C95.1326 61.4741 94.8637 61.6279 94.7537 61.9678C94.5759 62.5174 94.7163 62.9179 95.1404 63.6914L95.5212 64.3857L94.7302 64.4307C91.4056 64.6186 88.4703 65.1791 85.906 66.0957L85.6375 66.1924L85.4177 66.0088C84.8741 65.5554 84.2473 65.2551 83.5359 64.8096C83.2673 64.6413 82.9966 64.4552 82.741 64.2402C82.7028 64.5447 82.6449 64.8327 82.5828 65.1094C82.4231 65.8202 82.2574 66.4268 82.2849 67.1582L82.2976 67.4873L81.9998 67.6289C80.9134 68.1461 79.9953 68.7451 79.364 69.5938L79.0593 70.0029L78.656 69.6904C77.7483 68.9864 76.8425 68.3337 75.781 67.8545C76.0192 68.2959 76.2387 68.7679 76.4519 69.2246C76.6533 69.656 76.9006 70.0937 77.1501 70.5723C77.3595 70.9738 77.5675 71.4003 77.7 71.8135L77.7517 71.9893C77.8106 72.2099 77.8525 72.4375 77.8875 72.6016C77.9261 72.7831 77.9592 72.899 77.9978 72.9805C78.0307 73.0499 78.0544 73.0669 78.0701 73.0752C78.0938 73.0878 78.1704 73.1171 78.3591 73.1025L78.6482 73.0801L78.8113 73.3193C79.684 74.5971 80.5876 75.8794 81.4324 77.2158L81.5554 77.4111L81.4871 77.6318C81.3926 77.9346 81.4326 78.171 81.5134 78.3115C81.5861 78.4377 81.7141 78.5317 81.9343 78.5352L82.2644 78.54L82.3894 78.8457C82.4773 79.0602 82.6138 79.2363 82.8015 79.4658C82.9238 79.6154 83.0707 79.7951 83.2039 80.0078ZM104.431 75.1826C103.534 75.3791 102.553 75.3784 101.656 75.1699C100.762 74.962 99.9148 74.5382 99.3318 73.8555V73.8545C99.2794 73.7929 99.22 73.6991 99.1716 73.6172C99.1158 73.5228 99.0504 73.4031 98.9812 73.2676C98.8438 72.9983 98.6863 72.6509 98.571 72.2969C98.4607 71.958 98.367 71.5491 98.4158 71.1836C98.4413 70.9923 98.5103 70.7809 98.6677 70.6035C98.8307 70.4199 99.0487 70.317 99.2878 70.2822H99.2888C99.4966 70.2523 99.699 70.2905 99.8757 70.3975C100.043 70.4987 100.157 70.643 100.234 70.7773C100.383 71.0358 100.456 71.3611 100.502 71.6357C100.548 71.9184 100.576 72.2227 100.6 72.4473C100.613 72.5652 100.625 72.6606 100.638 72.7344C100.654 72.8195 100.663 72.8323 100.653 72.8125C100.813 73.1324 100.946 73.2168 101.095 73.2754C101.18 73.3086 101.278 73.3348 101.415 73.3672C101.445 72.5632 101.784 71.8586 102.121 71.251C102.353 70.8314 102.569 70.4858 102.757 70.1104C102.938 69.7477 103.06 69.418 103.097 69.0967C103.154 68.6062 103.077 68.2359 102.934 67.9629C102.792 67.6913 102.567 67.4836 102.272 67.3428C101.669 67.0548 100.765 67.0512 99.8289 67.4297L98.4871 67.9717L99.2078 66.7168C99.4282 66.3333 99.5798 65.981 99.4578 65.6641L99.1882 64.9648L99.9373 64.9844C103.032 65.0666 105.901 65.3988 108.392 66.1328L108.752 66.2393V68.6172L107.969 68.085C107.276 67.6119 106.504 67.6697 105.84 68.0801C105.204 68.4729 104.699 69.1763 104.54 69.9785L104.512 70.1396L104.487 70.3828C104.446 70.953 104.523 71.5537 104.552 72.2471C104.57 72.7001 104.566 73.1923 104.449 73.666C104.945 73.5895 105.303 73.4432 105.527 73.1533C105.579 73.0864 105.627 72.9772 105.674 72.7939C105.696 72.7051 105.717 72.6112 105.739 72.5049C105.761 72.4026 105.785 72.2878 105.814 72.1748C105.871 71.9545 105.96 71.6848 106.141 71.4561C106.338 71.2078 106.618 71.0402 106.982 70.9883L107.472 70.9189L107.547 71.4092C107.703 72.445 107.382 73.3096 106.771 73.9551C106.175 74.5857 105.325 74.9869 104.431 75.1826ZM91.5759 75.293C90.1531 75.3114 88.6363 74.863 87.7068 73.835L87.5291 73.6221C87.3642 73.4074 87.1385 73.0687 87.0242 72.6689C86.9061 72.2558 86.9011 71.746 87.2332 71.2686L87.4333 70.9814L87.7712 71.0703C88.4533 71.2509 88.6959 71.7835 88.8201 72.1953C88.8509 72.2976 88.877 72.4008 88.9001 72.4932C88.9241 72.5889 88.9445 72.6728 88.9675 72.7539C89.0145 72.919 89.0597 73.0285 89.1121 73.1035H89.113C89.3508 73.4451 89.6436 73.5714 90.2058 73.6787C90.121 73.2529 90.1102 72.8114 90.1169 72.3965C90.1278 71.7273 90.1782 71.1169 90.1355 70.5264L90.1111 70.2734C89.9978 69.3501 89.5584 68.6654 88.948 68.2949C88.3407 67.9264 87.4932 67.8259 86.4792 68.21L85.8025 68.4668V66.2803L86.196 66.1953C88.7888 65.6323 91.385 64.978 94.6316 64.9844L95.3601 64.9854L95.0964 65.665C95.0536 65.7755 95.0422 65.9539 95.0828 66.1387C95.102 66.2265 95.1302 66.3003 95.1589 66.3535C95.1802 66.3927 95.1959 66.4107 95.2009 66.416L94.741 67.2949C94.052 67.0428 93.2682 67.0385 92.6384 67.2412C92.0028 67.4459 91.6141 67.8238 91.5203 68.2695C91.3415 69.1208 91.7381 69.9203 92.2429 70.9336C92.6197 71.6898 93.0617 72.5782 93.0349 73.5615C93.4782 73.4452 93.7939 73.2354 94.0281 72.835C94.0299 72.826 94.0325 72.815 94.0349 72.8018C94.0464 72.7386 94.0596 72.652 94.0759 72.542C94.1077 72.3284 94.1487 72.0422 94.2029 71.7598C94.2561 71.4827 94.3281 71.1773 94.4294 70.9297C94.4796 70.8072 94.5485 70.6692 94.6472 70.5527C94.7337 70.4507 94.8752 70.328 95.0759 70.2891L95.1658 70.2783C95.3827 70.2654 95.6042 70.312 95.7917 70.4531C95.9748 70.591 96.0727 70.7788 96.1228 70.9502C96.217 71.2724 96.1782 71.6506 96.1179 71.96C96.0542 72.2871 95.9492 72.6196 95.8455 72.8906C95.7719 73.0828 95.6881 73.2724 95.6091 73.4141L95.532 73.5381L95.365 73.7529C94.4897 74.7883 92.9964 75.2746 91.5759 75.293ZM113.478 75.5635C112.602 76.1738 111.418 76.2654 110.449 76.0293C109.567 75.8144 108.654 75.2649 108.427 74.3506L108.392 74.1631C108.229 72.969 108.938 71.9788 109.813 71.5898L110.915 71.1006L110.483 72.2266C110.297 72.7126 110.078 73.3496 110.063 73.8682C110.056 74.1236 110.101 74.2883 110.166 74.3857C110.169 74.3907 110.173 74.3954 110.177 74.4004C110.376 73.8958 110.712 73.4843 111.04 73.1289C111.524 72.604 111.963 72.2156 112.273 71.7139V71.7129C112.582 71.2153 112.909 70.5172 112.929 69.9717C112.939 69.7146 112.878 69.5482 112.776 69.4385C112.671 69.326 112.446 69.192 111.959 69.1592L111.465 69.126L111.493 68.6318C111.509 68.3493 111.637 68.1655 111.719 68.0576C111.81 67.9393 111.794 67.9574 111.792 67.9648L111.952 67.3779L112.497 67.6484C113.555 68.1738 114.448 68.8524 115.278 69.5469L116.207 70.3242L115 70.4287C114.185 70.4992 113.668 71.1318 113.254 72.1807C113.051 72.6927 112.892 73.2567 112.736 73.8223C112.675 74.0425 112.613 74.2646 112.55 74.4824C112.686 74.3807 112.811 74.2516 112.937 74.0996C113.02 74.0003 113.099 73.8963 113.184 73.7852C113.267 73.6774 113.357 73.5612 113.451 73.4512C113.636 73.2345 113.874 72.9978 114.193 72.8594L115.335 72.3643L114.853 73.5117C114.596 74.1251 114.294 74.9181 113.618 75.459L113.478 75.5635ZM84.4011 76.2676C82.2482 76.9207 80.259 75.4129 79.8181 73.6523L79.5251 72.4824L80.5603 73.1016C80.8653 73.2841 81.1099 73.5443 81.3152 73.7832C81.5389 74.0436 81.7049 74.2636 81.9197 74.4883C82.0489 74.6235 82.1833 74.7442 82.3298 74.8457C82.0823 74.4165 81.8486 73.9178 81.6619 73.3281C81.5586 73.0021 81.4589 72.6104 81.3679 72.2988C81.2702 71.964 81.1686 71.6672 81.0398 71.4189C80.9121 71.1729 80.7693 70.9983 80.6023 70.8857C80.4417 70.7775 80.2227 70.7026 79.8953 70.7129L78.7068 70.75L79.5115 69.874C79.907 69.4438 80.3735 69.1031 80.823 68.7988C81.288 68.4841 81.7136 68.2222 82.115 67.9121L82.2849 67.7803L82.4968 67.8135C82.6727 67.8407 82.8083 67.9267 82.9041 68.0312C82.962 68.0945 83.0013 68.1639 83.0261 68.21L84.3337 68.5566L82.9646 69.1221C82.4772 69.3234 82.1506 69.4563 81.9519 69.6602C81.8691 69.7453 81.8153 69.8387 81.7908 69.9619C81.7648 70.0924 81.7659 70.2864 81.8445 70.5752C81.9943 71.1248 82.3412 71.63 82.7761 72.165L83.696 73.2607C84.0209 73.6628 84.3314 74.0994 84.5408 74.5742C84.5964 74.4625 84.6347 74.2932 84.6375 74.0547C84.6439 73.5029 84.482 72.9027 84.3982 72.415L84.2166 71.3584L85.1433 71.8984C86.1245 72.4706 86.3981 73.4609 86.1892 74.3418C85.9865 75.1961 85.3254 75.9873 84.4001 76.2676H84.4011Z" fill="#F9F9F9" stroke="#F9F9F9"/>
<path d="M106.901 83.4849C105.983 84.303 107.799 87.1429 108.435 88.3951C109.39 88.3269 108.954 86.8678 109.049 85.9395C107.814 85.6399 107.201 84.7188 106.901 83.4849ZM110.583 83.1782C109.272 83.0916 110.563 84.5222 110.583 85.0194C110.282 85.8793 109.765 84.5731 109.356 85.3261C109.159 87.365 110.991 87.3743 111.504 88.7018C113.995 87.0756 110.57 85.1936 110.583 83.1782ZM114.266 81.3359C112.619 81.4969 114.838 84.2593 115.187 85.3261C113.994 85.7887 113.523 83.1874 112.732 82.2571C110.993 85.6959 114.656 87.7797 116.414 89.623C117.024 86.7597 115.393 83.4859 114.266 81.3359ZM118.869 81.6426C118.61 80.7439 117.882 81.826 117.335 81.6426C117.495 82.097 117.789 82.416 117.949 82.8705C116.912 82.9866 116.64 82.3385 116.108 81.9493C115.4 85.32 119.149 86.8861 121.325 88.3951C123.266 84.7718 117.915 84.2684 118.869 81.6426ZM120.404 77.6535C120.358 78.221 119.365 77.8419 119.177 78.2668C118.642 80.9497 120.997 80.7439 121.325 82.5638C120.589 83.5735 120.42 81.447 119.177 81.9493C120.312 84.2928 122.57 85.5126 124.394 87.1674C125.217 84.4753 121.671 81.1861 120.404 78.5735C121.539 78.6673 121.555 79.8788 122.246 80.4158C122.774 78.9587 120.409 77.7563 119.79 76.4256C118.839 76.4979 118.833 77.5139 118.562 78.2668C119.414 78.221 119.553 76.7976 120.404 77.6535ZM121.325 76.1189C123.289 79.6792 124.744 83.7478 128.69 85.3261C126.999 81.9025 124.975 78.811 122.246 76.4256C125.365 77.6035 127.376 82.5474 132.066 83.1782C131.867 81.7395 130.714 81.2554 130.225 80.1091C129.468 80.0683 128.746 80.0622 128.383 80.4158C126.213 79.078 124.527 74.4275 121.325 76.1189ZM125.621 74.5844C129.029 77.5791 131.281 79.8411 137.283 80.1091C135.487 77.7105 133.02 75.9834 129.611 75.1978C129.763 76.7853 131.986 76.3014 132.373 77.6535C129.264 77.4883 128.335 75.1438 125.621 74.5844ZM128.997 70.5945C129.289 71.6427 130.488 73.3861 131.759 72.4365C132.382 73.1426 133.234 73.6215 133.907 74.2777C132.184 74.5619 131.574 73.5471 129.304 73.3565C131.6 76.2625 136.141 76.0884 140.045 76.1189C139.46 71.7068 131.321 72.8215 128.997 70.5945ZM133.907 69.0599C134.804 70.9256 138.26 70.2317 139.738 71.5153C137.857 71.7547 135.136 70.1879 132.066 70.5945C133.978 71.8525 137.413 71.5897 138.817 73.3565C140.194 72.8919 141.771 72.628 143.114 72.1287C141.566 69.7874 137.155 68.6783 133.907 69.0599ZM126.849 67.5254C126.827 68.7746 127.983 68.847 129.304 68.7531C129.613 69.6764 128.62 69.2973 128.076 69.3671C129.044 70.7677 131.468 70.114 133.294 69.9805C133.054 67.2534 129.238 68.102 126.849 67.5254ZM127.769 65.0708C128.003 65.9628 130.298 64.792 130.531 65.6841C130.045 66.3235 128.385 65.7881 127.769 66.2981C128.961 68.475 133.111 66.5665 134.828 66.2981C133.109 65.0146 129.497 62.7593 127.769 65.0708ZM137.59 64.763C137.673 66.2323 140.427 65.2399 141.579 65.0708C138.952 66.3302 135.688 66.9538 132.373 67.5254C133.088 69.3707 133.844 67.3363 135.441 67.5254C138.139 70.4828 144.413 66.323 146.797 64.1497C143.984 63.4557 139.761 63.2723 137.59 64.763ZM132.066 61.6939C132.647 61.1498 134.092 61.4708 135.135 61.3873C134.379 62.882 130.461 61.2145 129.918 62.9218C132.369 64.8955 137.034 63.1994 138.51 61.3873C137.853 59.4094 132.007 58.2835 132.066 61.6939ZM140.659 62.3084C141.607 61.9263 142.841 61.8305 144.035 61.6939C144.045 62.6253 142.958 62.4592 142.193 62.6151C145.765 64.2475 148.678 60.7219 150.48 58.6254C146.97 58.413 141.42 58.7553 140.659 62.3084ZM135.748 54.9425C135.155 55.2696 135.321 56.3562 134.828 56.7842C135.408 57.8281 135.904 56.2584 136.669 56.4769C136.429 57.9758 134.082 57.3686 133.907 58.9321C137.154 59.6286 139.734 57.8107 140.659 55.2492C139.458 54.1028 137.576 54.9939 135.748 54.9425ZM134.214 50.6461C130.923 51.4658 126.848 53.0747 127.156 56.4769C128.128 55.1986 129.176 53.9968 130.531 53.1012C130.958 54.5379 128.026 55.0311 127.769 56.7842C128.928 57.045 129.21 55.7647 129.918 56.4769C127.506 57.2371 125.822 58.7237 125.007 61.0806C124.177 59.5685 127.439 58.0768 126.235 56.1703C124.548 57.8943 122.756 60.6831 123.473 63.8429C126.227 62.7098 127.908 60.5028 129.611 58.3182C130.052 58.4904 130.36 58.7971 130.531 59.2394C130.557 60.3902 129.408 60.3657 129.304 61.3873C132.405 61.8427 133.579 57.9524 134.828 55.5564C132.557 55.4335 131.882 56.907 130.225 57.3981C129.964 57.4541 129.935 57.2778 129.918 57.0915C131.908 55.5008 133.461 53.4731 134.214 50.6461ZM141.886 48.8043C138.164 49.5833 134.071 49.9913 133.6 54.0223C136.016 53.2667 137.39 51.4688 139.738 50.6461C138.519 52.3936 135.952 52.7924 134.521 54.329C138.377 55.1136 141.213 52.2239 141.886 48.8043ZM135.441 48.4976C134.084 48.7768 132.77 49.0992 132.373 50.3388C133.535 49.2862 134.678 50.0347 135.441 48.4976ZM136.055 48.1905C136.368 48.9062 137.669 49.5563 138.51 48.8043C138.226 48.0612 136.589 47.7477 136.055 48.1905ZM138.204 47.2703C141.075 46.0495 142.988 43.8703 144.035 40.8251C139.556 39.1386 136.745 43.8013 134.828 46.6563C135.365 46.6718 137.549 45.9474 138.204 47.2703ZM146.183 37.4492C145.526 36.6152 144.352 37.8483 144.342 38.6769C145.163 38.4755 145.508 37.7976 146.183 37.4492ZM145.262 34.0731C144.399 34.0285 144.377 34.8249 144.342 35.6077C144.88 35.3275 145.408 35.0371 145.262 34.0731ZM146.183 31.6182C145.311 31.9737 144.361 32.2515 144.342 33.4594C145.549 33.4398 145.827 32.4902 146.183 31.6182ZM151.093 50.9528C150.081 50.5645 148.281 52.0202 146.797 52.1805C147.952 50.3694 150.677 50.1279 152.934 49.4187C152.826 49.0152 152.394 48.9358 152.321 48.4976C155.503 47.3834 157.988 45.5722 159.072 42.3597C155.201 45.9556 147.367 45.5896 143.421 49.1115C143.108 45.5227 150.459 46.9445 151.707 43.8939C154.645 43.4563 155.32 40.7554 156.618 38.6769C154.702 40.3661 151.861 42.686 149.559 42.9736C152.595 40.5243 156.407 39.3454 158.152 36.5284C158.713 35.6204 158.659 34.3796 159.072 33.7664C159.581 33.0113 161.075 32.7859 160.607 31.6182C159.449 31.9889 159.81 32.9651 158.765 32.8456C160.097 30.9037 161.587 29.1198 162.448 26.7076C161.777 25.6668 161.461 27.5333 161.22 27.9353C160.947 28.1735 160.528 28.2652 159.993 28.242C159.676 29.6647 158.123 29.8511 157.845 31.311C154.081 33.8905 150.886 37.0375 147.103 39.5974C145.902 40.0327 144.419 40.1863 144.648 42.0527C148.724 41.3204 149.957 37.7454 153.549 36.5284C151.197 40.1201 145.119 41.5891 144.342 45.7358C143.2 46.946 141.571 47.6714 139.738 48.1905C141.06 48.475 142.551 48.1148 143.114 49.7254C145.117 49.2731 146.582 48.2831 148.638 47.884C146.731 50.1513 142.787 50.67 140.966 52.1805C141.178 52.9468 141.784 51.611 142.501 51.8733C143.045 52.1433 141.711 53.1063 141.886 54.0223C142.911 53.4508 143.179 55.1253 142.501 55.2492C144.678 54.356 148.501 52.4547 151.093 50.9528ZM156.31 26.4007C159.912 20.8299 163.783 16.3313 163.062 7.06574C161.93 11.1825 160.869 15.5364 157.845 19.342C155.423 22.3889 151.955 26.0604 149.865 27.6283C148.622 28.5621 147.04 28.4249 146.49 30.0837C146.543 29.9247 147.833 31.231 146.49 31.0043C148.854 30.3996 151.246 27.1684 153.549 25.4798C152.492 28.6197 147.55 30.5288 147.103 35.3007C147.599 35.3873 147.632 35.0108 148.024 34.994C148.141 36.1342 146.781 35.7962 147.103 37.1422C148.052 37.0033 147.84 35.5165 148.638 36.8352C150.317 35.4602 154.246 34.9938 153.855 32.5385C156.4 30.1724 159.124 27.9875 160.3 24.2523C159.121 25.0175 158.653 26.4937 157.538 27.3216C158.359 24.0505 161.424 23.0231 161.834 19.342C159.714 21.4155 158.755 24.6511 156.31 26.4007ZM155.696 50.3388C150.466 51.0781 145.04 55.7984 140.352 57.0915C140.438 58.8093 139.344 59.223 137.283 59.2394C137.373 59.8649 138.113 59.8415 138.204 60.4671C140.909 59.5914 142.863 57.9657 146.49 58.0115C146.759 57.0262 145.694 57.3756 145.569 56.7842C149.886 55.5762 153.64 53.8068 155.696 50.3388ZM123.473 51.5666C124.606 49.7335 125.38 47.5406 126.235 45.4285C127.024 47.0341 125.233 47.8022 125.621 49.4187C128.184 46.6148 129.754 43.9546 130.225 39.5974C126.047 41.6597 124.154 46.0068 123.473 51.5666ZM130.838 41.4388C131.349 42.2232 131.662 40.2411 132.679 40.5183C133.073 41.8706 131.211 41.7754 132.066 42.6664C134.16 41.7936 135.292 39.9596 137.283 38.9837C135.644 40.9482 133.146 43.2663 132.987 45.7358C133.664 46.7827 133.681 44.6179 133.907 44.201C137.572 41.0114 142.895 39.4809 144.035 33.7664C138.646 34.1172 134.09 37.932 130.838 41.4388ZM123.78 43.8939C122.163 44.2833 123.398 41.8206 122.552 41.4388C121.255 43.2108 122.252 47.2761 121.938 50.0321C120.532 49.9048 121.23 47.672 119.79 47.577C121.156 50.9909 120.541 55.5579 120.404 59.8532C121.03 59.763 121.006 59.0222 121.631 58.9321C121.226 59.9587 121.254 61.4194 120.711 62.3084C120.503 61.2655 119.691 62.0073 119.483 62.6151C120.581 62.959 121.279 65.3081 120.404 66.6047C119.892 65.275 120.127 63.1994 118.562 62.9218C117.855 63.3732 118.008 62.8617 118.256 62.0012C118.797 61.424 119.206 62.4215 119.483 61.3873C119.803 56.9273 120.542 49.7982 118.562 46.6563C119.683 46.3838 120.197 47.1981 120.711 46.6563C120.893 43.1534 121.736 38.6816 123.78 38.063C123.378 38.0677 123.389 38.9142 123.78 38.9837C126.026 35.2969 128.623 31.9606 132.373 29.7765C132.798 29.965 132.419 30.9579 132.987 31.0043C142.28 22.3889 156.014 16.5995 156.31 0.00703509C161.658 4.79038 157.31 15.0495 156.003 19.9557C160.108 16.4905 161.535 10.3473 162.448 3.68991C165.853 11.263 161.474 22.4982 159.379 28.242C161.101 27.304 161.66 25.2032 163.369 24.2523C161.715 33.2911 158.379 37.8346 154.776 44.201C157.274 43.5274 158.591 41.674 160.607 40.5183C159.267 45.2143 155.744 47.7273 152.628 50.6461C154.234 50.6251 155.461 48.9021 156.618 49.4187C155.323 53.5455 150.87 54.515 148.945 58.0115C149.905 57.9488 151.198 58.2183 151.707 57.7048C151.279 60.9603 147.635 60.998 146.183 63.229C146.767 63.3605 146.954 63.8903 147.717 63.8429C146.324 66.8489 142.19 67.1132 140.045 69.3671C141.835 69.8271 143.121 70.7916 144.035 72.1287C143.203 73.2404 140.975 72.9561 139.738 73.6642C139.714 74.8126 141.061 74.5915 140.659 76.1189C139.726 77.3345 136.445 76.2014 135.135 77.0401C135.906 78.4166 137.757 78.7142 138.204 80.4158C135.626 81.5245 132.396 79.3693 130.531 79.8013C131.006 81.3726 132.953 81.4725 132.679 83.7916C130.372 83.9454 128.955 81.5886 127.462 81.9493C128.045 83.4136 129.325 84.1799 129.304 86.2463C127.426 85.7725 126.492 84.353 124.7 83.7916C124.982 85.0448 125.839 87.0124 125.315 88.0885C123.942 88.1313 123.897 86.8454 122.552 86.8607C122.752 88.1853 122.022 88.5806 121.631 89.3153C119.458 88.9892 118.512 85.9497 116.721 86.2463C116.984 87.2509 117.532 89.1247 117.028 89.9297C115.384 90.4667 114.554 87.7584 112.732 87.474C112.877 88.6427 112.602 89.3897 111.811 89.623C111.045 89.0585 110.826 87.9479 109.663 87.7807C109.025 87.8603 109.579 89.1299 109.049 89.3153C107.528 89.1991 107.733 87.3579 106.594 86.8607C105.844 87.0318 105.94 88.0477 104.753 87.7807C104.116 86.3104 102.272 84.6159 102.604 83.1782C103.888 84.1441 103.725 86.558 105.673 86.8607C106.735 85.4188 104.332 85.2589 104.753 83.4849C108.903 83.3758 113.487 80.4311 117.335 80.1091C115.725 77.2459 123.213 74.243 120.097 70.9017C121.374 68.7843 125.267 70.0952 126.542 71.5153C124.705 71.3064 123.618 70.3474 121.631 70.2878C121.868 71.444 121.257 71.7547 121.325 72.7431C122.258 73.2566 124.648 74.8401 125.621 73.3565C125.154 72.5842 122.571 72.3305 123.473 71.2086C124.287 72.3448 126.905 73.2924 128.69 72.4365C128.689 72.1287 128.939 72.0707 128.997 71.8219C128.822 69.469 124.858 70.5822 124.394 69.3671C124.625 68.5749 126.664 69.5913 126.542 68.4465C126.12 67.7434 125.012 67.7257 124.7 66.912C125.875 67.1734 127.082 67.4897 127.156 65.9908C126.736 65.1839 124.845 65.8462 125.007 64.4564C127.244 65.3673 129.242 63.9244 129.611 62.0012C125.425 61.6196 123.289 65.8946 121.631 69.0599C121.967 64.3066 123.027 58.8389 125.007 54.329C128.25 52.5266 133.626 49.6928 131.759 44.8148C128.231 45.6858 126.956 48.8093 125.621 51.8733C126.56 51.4826 126.524 50.1162 127.462 49.7254C127.261 51.6125 124.81 53.793 123.473 55.5564C123.059 54.2042 124.814 53.443 123.78 52.4872C123.125 52.0272 122.858 54.8929 121.938 54.0223C123.462 47.6682 125.12 41.4488 130.225 38.6769C130.928 38.7919 130.634 39.9043 131.145 40.2112C134.094 35.488 141.175 34.8962 144.342 30.3904C145.343 30.236 144.992 31.9165 145.876 31.0043C146.001 30.2648 145.316 30.3372 145.569 29.4698C149.128 26.1689 154.617 23.0248 154.776 19.6489C153.413 20.8471 151.659 23.2787 149.865 23.0249C155.528 19.5702 160.174 11.488 157.231 3.07632C155.969 10.4076 151.8 14.8311 148.331 19.9557C145.34 22.2841 141.411 23.6748 139.738 27.3216C136.15 28.848 133.589 31.4025 131.452 34.3803C135.652 32.1353 139.606 29.6441 142.807 26.4007C140.402 31.054 134.429 32.1402 131.452 36.2216C130.615 36.2494 130.834 35.7103 130.225 36.2216C129.292 38.7674 127.083 40.0365 125.007 41.4388C126.875 37.6784 131.316 34.8592 131.759 30.6974C127.837 33.8339 123.786 36.8418 123.78 43.8939Z" fill="#F9F9F9"/>
<path d="M113.513 17.9728L113.355 14.7068L119.206 8.5415H122.35L117.075 14.2178L115.504 15.8944L113.513 17.9728ZM110.98 20.7673V8.5415H113.792V20.7673H110.98ZM119.346 20.7673L114.997 15.4403L116.848 13.4318L122.647 20.7673H119.346Z" fill="#F9F9F9"/>
<path d="M96.125 20.9773C95.2285 20.9773 94.4309 20.8318 93.7323 20.5407C93.0337 20.2496 92.4807 19.8537 92.0732 19.353C91.6657 18.8524 91.4619 18.276 91.4619 17.624C91.4619 17.0185 91.5958 16.4771 91.8636 15.9997C92.1314 15.5106 92.5564 15.0565 93.1385 14.6374C93.7207 14.2066 94.46 13.7874 95.3565 13.3799C96.0085 13.0771 96.5208 12.8093 96.8934 12.5765C97.266 12.3436 97.528 12.1224 97.6793 11.9128C97.8307 11.6915 97.9064 11.4703 97.9064 11.2491C97.9064 10.9464 97.8016 10.7018 97.592 10.5155C97.3941 10.3292 97.0972 10.2361 96.7013 10.2361C96.2822 10.2361 95.9561 10.3409 95.7233 10.5505C95.4904 10.7601 95.374 11.0279 95.374 11.3539C95.374 11.5285 95.4089 11.7032 95.4788 11.8778C95.5486 12.0409 95.6825 12.233 95.8805 12.4542C96.0784 12.6638 96.3578 12.9374 96.7188 13.2751L103.163 19.2482L101.679 20.9773L94.5706 14.3754C94.1631 14.0028 93.8371 13.6535 93.5926 13.3275C93.3481 13.0014 93.1676 12.6813 93.0512 12.3669C92.9464 12.0525 92.894 11.7265 92.894 11.3888C92.894 10.795 93.0512 10.271 93.3656 9.81693C93.6799 9.36283 94.1224 9.01352 94.6929 8.769C95.2634 8.51285 95.9329 8.38477 96.7013 8.38477C97.4115 8.38477 98.0228 8.5012 98.5351 8.73407C99.059 8.9553 99.4665 9.2755 99.7576 9.69467C100.06 10.1138 100.212 10.6145 100.212 11.1967C100.212 11.709 100.084 12.1806 99.8275 12.6114C99.5713 13.0306 99.1696 13.4264 98.6224 13.799C98.0868 14.1716 97.3824 14.55 96.5092 14.9343C95.9154 15.2021 95.4438 15.4641 95.0946 15.7202C94.7569 15.9647 94.5124 16.2151 94.361 16.4712C94.2097 16.7274 94.134 17.0127 94.134 17.327C94.134 17.6181 94.2213 17.8801 94.396 18.113C94.5823 18.3459 94.8384 18.5263 95.1644 18.6544C95.4904 18.7825 95.8746 18.8465 96.3171 18.8465C97.0273 18.8465 97.6793 18.6835 98.2731 18.3575C98.8669 18.0198 99.3676 17.525 99.7751 16.8729C100.194 16.2093 100.491 15.4059 100.666 14.4627L102.849 15.1439C102.604 16.3315 102.168 17.362 101.539 18.2352C100.91 19.1085 100.136 19.7838 99.2162 20.2612C98.2964 20.7386 97.266 20.9773 96.125 20.9773Z" fill="#F9F9F9"/>
<path d="M75.8915 17.9728L75.7343 14.7068L81.585 8.5415H84.7286L79.4543 14.2178L77.8825 15.8944L75.8915 17.9728ZM73.3591 20.7673V8.5415H76.1709V20.7673H73.3591ZM81.7247 20.7673L77.376 15.4403L79.2272 13.4318L85.0255 20.7673H81.7247Z" fill="#F9F9F9"/>
<path d="M1.4325 118V106.48H2.9445L7.1205 115.144L11.2725 106.48H12.8005V117.992H11.2165V110.112L7.4965 118H6.7365L3.0085 110.112V118H1.4325ZM16.0419 118V106.48H23.4019V108.056H17.7139V111.288H22.4419V112.864H17.7139V116.424H23.4019V118H16.0419ZM26.3231 118V106.48H30.9791C31.0911 106.48 31.2298 106.485 31.3951 106.496C31.5605 106.501 31.7178 106.517 31.8671 106.544C32.5071 106.645 33.0405 106.864 33.4671 107.2C33.8991 107.536 34.2218 107.96 34.4351 108.472C34.6485 108.984 34.7551 109.549 34.7551 110.168C34.7551 110.792 34.6485 111.36 34.4351 111.872C34.2218 112.384 33.8991 112.808 33.4671 113.144C33.0405 113.48 32.5071 113.699 31.8671 113.8C31.7178 113.821 31.5578 113.837 31.3871 113.848C31.2218 113.859 31.0858 113.864 30.9791 113.864H27.9951V118H26.3231ZM27.9951 112.28H30.9151C31.0218 112.28 31.1391 112.275 31.2671 112.264C31.4005 112.253 31.5258 112.235 31.6431 112.208C31.9845 112.128 32.2591 111.981 32.4671 111.768C32.6751 111.549 32.8245 111.299 32.9151 111.016C33.0058 110.733 33.0511 110.451 33.0511 110.168C33.0511 109.885 33.0058 109.605 32.9151 109.328C32.8245 109.045 32.6751 108.797 32.4671 108.584C32.2591 108.365 31.9845 108.216 31.6431 108.136C31.5258 108.104 31.4005 108.083 31.2671 108.072C31.1391 108.061 31.0218 108.056 30.9151 108.056H27.9951V112.28ZM37.3544 118V106.48H44.7144V108.056H39.0264V111.288H43.7544V112.864H39.0264V116.424H44.7144V118H37.3544ZM46.6756 118L51.2676 112.104L47.0516 106.48H49.0756L52.9396 111.752V106.48H54.6116V111.752L58.4756 106.48H60.4996L56.2836 112.104L60.8756 118H58.7796L54.6116 112.6V118H52.9396V112.6L48.7636 118H46.6756ZM62.3513 118L66.0953 106.48H68.5033L72.2473 118H70.5113L67.0633 107.488H67.4953L64.0872 118H62.3513ZM64.2953 115.4V113.832H70.3113V115.4H64.2953ZM78.8856 118V106.48H80.3976L84.5736 115.144L88.7256 106.48H90.2536V117.992H88.6696V110.112L84.9496 118H84.1896L80.4616 110.112V118H78.8856ZM92.695 118L96.439 106.48H98.847L102.591 118H100.855L97.407 107.488H97.839L94.431 118H92.695ZM94.639 115.4V113.832H100.655V115.4H94.639ZM105.026 118V106.48H106.722V115.04L112.394 106.48H114.09V118H112.394V109.432L106.722 118H105.026ZM109.586 105.488C109.16 105.488 108.773 105.384 108.426 105.176C108.08 104.968 107.802 104.691 107.594 104.344C107.386 103.997 107.282 103.611 107.282 103.184H108.61C108.61 103.451 108.706 103.68 108.898 103.872C109.09 104.064 109.32 104.16 109.586 104.16C109.858 104.16 110.088 104.064 110.274 103.872C110.466 103.68 110.562 103.451 110.562 103.184H111.89C111.89 103.611 111.786 103.997 111.578 104.344C111.37 104.691 111.09 104.968 110.738 105.176C110.392 105.384 110.008 105.488 109.586 105.488ZM122.131 118.24C120.979 118.24 119.998 117.989 119.187 117.488C118.376 116.981 117.755 116.277 117.323 115.376C116.896 114.475 116.683 113.429 116.683 112.24C116.683 111.051 116.896 110.005 117.323 109.104C117.755 108.203 118.376 107.501 119.187 107C119.998 106.493 120.979 106.24 122.131 106.24C123.459 106.24 124.558 106.576 125.427 107.248C126.302 107.92 126.91 108.824 127.251 109.96L125.555 110.416C125.331 109.611 124.931 108.979 124.355 108.52C123.784 108.061 123.043 107.832 122.131 107.832C121.315 107.832 120.635 108.016 120.091 108.384C119.547 108.752 119.136 109.267 118.859 109.928C118.587 110.589 118.451 111.36 118.451 112.24C118.446 113.12 118.579 113.891 118.851 114.552C119.128 115.213 119.539 115.728 120.083 116.096C120.632 116.464 121.315 116.648 122.131 116.648C123.043 116.648 123.784 116.419 124.355 115.96C124.931 115.496 125.331 114.864 125.555 114.064L127.251 114.52C126.91 115.656 126.302 116.56 125.427 117.232C124.558 117.904 123.459 118.24 122.131 118.24ZM132.883 118V108.056H129.051V106.48H138.387V108.056H134.555V118H132.883ZM140.667 118V106.48H148.027V108.056H142.339V111.288H147.067V112.864H142.339V116.424H148.027V118H140.667ZM150.948 118V106.48H155.604C155.716 106.48 155.855 106.485 156.02 106.496C156.185 106.501 156.343 106.517 156.492 106.544C157.132 106.645 157.665 106.864 158.092 107.2C158.524 107.536 158.847 107.96 159.06 108.472C159.273 108.984 159.38 109.549 159.38 110.168C159.38 110.792 159.273 111.36 159.06 111.872C158.847 112.384 158.524 112.808 158.092 113.144C157.665 113.48 157.132 113.699 156.492 113.8C156.343 113.821 156.183 113.837 156.012 113.848C155.847 113.859 155.711 113.864 155.604 113.864H152.62V118H150.948ZM152.62 112.28H155.54C155.647 112.28 155.764 112.275 155.892 112.264C156.025 112.253 156.151 112.235 156.268 112.208C156.609 112.128 156.884 111.981 157.092 111.768C157.3 111.549 157.449 111.299 157.54 111.016C157.631 110.733 157.676 110.451 157.676 110.168C157.676 109.885 157.631 109.605 157.54 109.328C157.449 109.045 157.3 108.797 157.092 108.584C156.884 108.365 156.609 108.216 156.268 108.136C156.151 108.104 156.025 108.083 155.892 108.072C155.764 108.061 155.647 108.056 155.54 108.056H152.62V112.28ZM161.979 118V106.48H169.339V108.056H163.651V111.288H168.379V112.864H163.651V116.424H169.339V118H161.979ZM172.261 118V106.48H173.933V111.448H179.693V106.48H181.373V118H179.693V113.024H173.933V118H172.261ZM184.612 118V106.48H186.284V110.616H189.268C189.375 110.616 189.511 110.621 189.676 110.632C189.847 110.637 190.004 110.653 190.148 110.68C190.788 110.781 191.321 111 191.748 111.336C192.18 111.672 192.503 112.096 192.716 112.608C192.935 113.12 193.044 113.688 193.044 114.312C193.044 114.931 192.937 115.496 192.724 116.008C192.511 116.52 192.188 116.944 191.756 117.28C191.329 117.616 190.793 117.835 190.148 117.936C190.004 117.957 189.849 117.973 189.684 117.984C189.519 117.995 189.38 118 189.268 118H184.612ZM186.284 116.424H189.204C189.305 116.424 189.42 116.419 189.548 116.408C189.681 116.397 189.807 116.376 189.924 116.344C190.271 116.264 190.545 116.117 190.748 115.904C190.956 115.685 191.105 115.437 191.196 115.16C191.292 114.877 191.34 114.595 191.34 114.312C191.34 114.029 191.292 113.747 191.196 113.464C191.105 113.181 190.956 112.933 190.748 112.72C190.545 112.501 190.271 112.352 189.924 112.272C189.807 112.24 189.681 112.221 189.548 112.216C189.42 112.205 189.305 112.2 189.204 112.2H186.284V116.424Z" fill="white"/>
</svg>
