<svg width="20" height="31" viewBox="0 0 20 31" fill="none" xmlns="http://www.w3.org/2000/svg">
<path d="M14.5897 30.8605V26.3417H11.351L16.0703 18.8618V23.3806H19.309L14.5897 30.8605ZM1.44971 30.4749C1.03896 30.4749 0.694654 30.336 0.416793 30.0581C0.138931 29.7803 0 29.4359 0 29.0252V4.24117C0 3.83042 0.138931 3.48611 0.416793 3.20825C0.694654 2.93039 1.03896 2.79146 1.44971 2.79146H4.34913V0H10.2714V2.79146H13.174C13.5852 2.79146 13.9291 2.93039 14.2056 3.20825C14.4822 3.48611 14.6205 3.83042 14.6205 4.24117V15.3917C14.1928 15.4123 13.781 15.459 13.3852 15.532C12.9893 15.605 12.5992 15.7094 12.2146 15.8451V5.1819H2.40586V28.069H6.3448C6.50725 28.5296 6.69849 28.9579 6.91851 29.3537C7.13853 29.7495 7.40071 30.1233 7.70504 30.4749H1.44971Z" fill="#967437"/>
</svg>
