<svg width="24" height="24" viewBox="0 0 24 24" fill="none" xmlns="http://www.w3.org/2000/svg">
<path d="M8.86056 23.7499L8.3846 19.9422C8.04966 19.83 7.7063 19.673 7.35453 19.4711C7.00276 19.2691 6.68825 19.0528 6.411 18.822L2.88457 20.3124L0 15.3125L3.05047 13.0072C3.02162 12.8213 3.00119 12.6346 2.98917 12.4471C2.97715 12.2596 2.97114 12.0729 2.97114 11.887C2.97114 11.7091 2.97715 11.5284 2.98917 11.3449C3.00119 11.1614 3.02162 10.9607 3.05047 10.7427L0 8.43744L2.88457 3.46155L6.39898 4.93991C6.70027 4.70112 7.02199 4.48277 7.36415 4.28485C7.7063 4.08693 8.04244 3.92787 8.37258 3.80768L8.86056 0H14.6297L15.1057 3.8197C15.4807 3.95592 15.82 4.11498 16.1237 4.29687C16.4274 4.47876 16.7339 4.69311 17.0432 4.93991L20.6057 3.46155L23.4903 8.43744L20.3917 10.7788C20.4366 10.9807 20.461 11.1694 20.465 11.3449C20.469 11.5204 20.471 11.6971 20.471 11.875C20.471 12.0448 20.467 12.2175 20.459 12.393C20.451 12.5685 20.4222 12.7692 20.3725 12.9952L23.447 15.3125L20.5624 20.3124L17.0432 18.81C16.7339 19.0568 16.4182 19.2752 16.0961 19.4651C15.7739 19.655 15.4438 19.81 15.1057 19.9302L14.6297 23.7499H8.86056ZM10.4951 21.875H12.9519L13.4014 18.5264C14.0392 18.3597 14.6221 18.1229 15.1502 17.8161C15.6782 17.5092 16.1874 17.1145 16.6778 16.6322L19.7836 17.9375L21.0144 15.8125L18.3028 13.7692C18.407 13.4455 18.4779 13.1282 18.5156 12.8173C18.5532 12.5064 18.5721 12.1923 18.5721 11.875C18.5721 11.5496 18.5532 11.2355 18.5156 10.9326C18.4779 10.6298 18.407 10.3205 18.3028 10.0048L21.0384 7.93745L19.8076 5.81245L16.6658 7.13697C16.2475 6.68986 15.7463 6.29483 15.1622 5.95188C14.5781 5.60893 13.9871 5.36614 13.3894 5.22351L12.9951 1.87495H10.5144L10.1009 5.21149C9.46308 5.36213 8.87414 5.5929 8.33408 5.9038C7.79401 6.2147 7.27879 6.61534 6.7884 7.10572L3.68263 5.81245L2.45186 7.93745L5.15138 9.94947C5.04722 10.2459 4.9743 10.5544 4.93263 10.875C4.89097 11.1955 4.87013 11.5328 4.87013 11.887C4.87013 12.2123 4.89097 12.5312 4.93263 12.8437C4.9743 13.1562 5.04321 13.4647 5.13936 13.7692L2.45186 15.8125L3.68263 17.9375L6.77638 16.625C7.25074 17.1121 7.75795 17.5112 8.29802 17.8221C8.83808 18.133 9.43504 18.3717 10.0889 18.5384L10.4951 21.875ZM11.7596 15.6249C12.7996 15.6249 13.6846 15.2599 14.4146 14.53C15.1445 13.8 15.5095 12.915 15.5095 11.875C15.5095 10.8349 15.1445 9.9499 14.4146 9.21994C13.6846 8.48998 12.7996 8.125 11.7596 8.125C10.7067 8.125 9.81847 8.48998 9.09492 9.21994C8.37137 9.9499 8.0096 10.8349 8.0096 11.875C8.0096 12.915 8.37137 13.8 9.09492 14.53C9.81847 15.2599 10.7067 15.6249 11.7596 15.6249Z" fill="#967437"/>
</svg>
