<svg width="25" height="20" viewBox="0 0 25 20" fill="none" xmlns="http://www.w3.org/2000/svg">
<path d="M0 19.072V17.2595C0.572113 17.2275 1.0637 17.1177 1.47475 16.9302C1.88581 16.7427 2.30007 16.5456 2.71754 16.3389C3.13501 16.1321 3.59534 15.9462 4.09854 15.7812C4.60175 15.6161 5.21993 15.5336 5.9531 15.5336C6.68627 15.5336 7.30406 15.6221 7.80646 15.7992C8.30886 15.9763 8.78483 16.1742 9.23435 16.3929C9.68387 16.6117 10.1354 16.8148 10.5889 17.0023C11.0424 17.1898 11.5753 17.2836 12.1875 17.2836C12.7997 17.2836 13.3325 17.1898 13.786 17.0023C14.2396 16.8148 14.6911 16.6117 15.1406 16.3929C15.5901 16.1742 16.0713 15.9763 16.5841 15.7992C17.0969 15.6221 17.7199 15.5336 18.4531 15.5336C19.1863 15.5336 19.7992 15.6161 20.292 15.7812C20.7848 15.9462 21.2399 16.1321 21.6574 16.3389C22.0749 16.5456 22.4923 16.7427 22.9098 16.9302C23.3273 17.1177 23.8157 17.2275 24.375 17.2595V19.072C23.6875 19.0479 23.1021 18.9422 22.619 18.7547C22.1358 18.5672 21.6815 18.3701 21.256 18.1633C20.8305 17.9566 20.4054 17.7687 19.9807 17.5996C19.5561 17.4306 19.0416 17.346 18.4375 17.346C17.8541 17.346 17.3389 17.4346 16.8918 17.6116C16.4447 17.7887 15.9996 17.9866 15.5565 18.2054C15.1134 18.4241 14.6302 18.6273 14.1069 18.8148C13.5837 19.0023 12.9439 19.096 12.1875 19.096C11.4311 19.096 10.7912 19.0023 10.268 18.8148C9.74478 18.6273 9.2616 18.4241 8.81849 18.2054C8.37538 17.9866 7.93548 17.7887 7.49878 17.6116C7.06208 17.4346 6.54685 17.346 5.9531 17.346C5.35935 17.346 4.84493 17.4306 4.40983 17.5996C3.97474 17.7687 3.54445 17.9566 3.11897 18.1633C2.69349 18.3701 2.23916 18.5672 1.75599 18.7547C1.27282 18.9422 0.687492 19.0479 0 19.072ZM0 13.8941V12.0817C0.572113 12.0496 1.0637 11.9398 1.47475 11.7523C1.88581 11.5648 2.30007 11.3677 2.71754 11.161C3.13501 10.9543 3.59534 10.7684 4.09854 10.6033C4.60175 10.4382 5.21993 10.3557 5.9531 10.3557C6.68627 10.3557 7.30406 10.4443 7.80646 10.6213C8.30886 10.7984 8.78483 10.9963 9.23435 11.2151C9.68387 11.4338 10.1354 11.637 10.5889 11.8245C11.0424 12.012 11.5753 12.1057 12.1875 12.1057C12.7997 12.1057 13.3325 12.012 13.786 11.8245C14.2396 11.637 14.6911 11.4338 15.1406 11.2151C15.5901 10.9963 16.0713 10.7984 16.5841 10.6213C17.0969 10.4443 17.7147 10.3557 18.4375 10.3557C19.1811 10.3557 19.7992 10.4382 20.292 10.6033C20.7848 10.7684 21.2399 10.9543 21.6574 11.161C22.0749 11.3677 22.4923 11.5648 22.9098 11.7523C23.3273 11.9398 23.8157 12.0496 24.375 12.0817V13.8941C23.6875 13.8701 23.1021 13.7643 22.619 13.5768C22.1358 13.3893 21.6815 13.1922 21.256 12.9855C20.8305 12.7787 20.4054 12.5908 19.9807 12.4218C19.5561 12.2527 19.0416 12.1682 18.4375 12.1682C17.8413 12.1682 17.3197 12.2567 16.8726 12.4338C16.4255 12.6109 15.9803 12.8088 15.5372 13.0275C15.0941 13.2463 14.6142 13.4494 14.0973 13.6369C13.5805 13.8244 12.9439 13.9182 12.1875 13.9182C11.4311 13.9182 10.7912 13.8244 10.268 13.6369C9.74478 13.4494 9.2616 13.2463 8.81849 13.0275C8.37538 12.8088 7.93548 12.6109 7.49878 12.4338C7.06208 12.2567 6.54685 12.1682 5.9531 12.1682C5.35935 12.1682 4.84493 12.2527 4.40983 12.4218C3.97474 12.5908 3.54445 12.7787 3.11897 12.9855C2.69349 13.1922 2.23916 13.3893 1.75599 13.5768C1.27282 13.7643 0.687492 13.8701 0 13.8941ZM0 8.71627V6.90382C0.572113 6.87176 1.0637 6.76199 1.47475 6.57449C1.88581 6.38699 2.30007 6.18987 2.71754 5.98314C3.13501 5.77641 3.59534 5.59051 4.09854 5.42545C4.60175 5.26039 5.21993 5.17786 5.9531 5.17786C6.68627 5.17786 7.30406 5.2664 7.80646 5.44348C8.30886 5.62056 8.78483 5.81848 9.23435 6.03723C9.68387 6.25598 10.1354 6.45911 10.5889 6.64661C11.0424 6.83411 11.5753 6.92786 12.1875 6.92786C12.7997 6.92786 13.3325 6.83411 13.786 6.64661C14.2396 6.45911 14.6911 6.25598 15.1406 6.03723C15.5901 5.81848 16.0713 5.62056 16.5841 5.44348C17.0969 5.2664 17.7147 5.17786 18.4375 5.17786C19.1811 5.17786 19.7992 5.26039 20.292 5.42545C20.7848 5.59051 21.2399 5.77641 21.6574 5.98314C22.0749 6.18987 22.4923 6.38699 22.9098 6.57449C23.3273 6.76199 23.8157 6.87176 24.375 6.90382V8.71627C23.6875 8.69223 23.1021 8.58646 22.619 8.39896C22.1358 8.21146 21.6815 8.01435 21.256 7.80762C20.8305 7.60089 20.4054 7.41299 19.9807 7.24392C19.5561 7.07485 19.0416 6.99031 18.4375 6.99031C17.8541 6.99031 17.3389 7.07885 16.8918 7.25594C16.4447 7.43302 15.9996 7.63094 15.5565 7.84969C15.1134 8.06844 14.6302 8.27156 14.1069 8.45906C13.5837 8.64656 12.9439 8.74031 12.1875 8.74031C11.4311 8.74031 10.7912 8.64656 10.268 8.45906C9.74478 8.27156 9.2616 8.06844 8.81849 7.84969C8.37538 7.63094 7.93548 7.43302 7.49878 7.25594C7.06208 7.07885 6.54685 6.99031 5.9531 6.99031C5.35935 6.99031 4.84493 7.07485 4.40983 7.24392C3.97474 7.41299 3.54445 7.60089 3.11897 7.80762C2.69349 8.01435 2.23916 8.21146 1.75599 8.39896C1.27282 8.58646 0.687492 8.69223 0 8.71627ZM0 3.53841V1.72596C0.572113 1.69391 1.0637 1.58413 1.47475 1.39663C1.88581 1.20913 2.30007 1.01201 2.71754 0.805285C3.13501 0.598555 3.59534 0.412658 4.09854 0.247595C4.60175 0.0825316 5.21993 0 5.9531 0C6.68627 0 7.30406 0.0885417 7.80646 0.265625C8.30886 0.442708 8.78483 0.640625 9.23435 0.859375C9.68387 1.07812 10.1354 1.28125 10.5889 1.46875C11.0424 1.65625 11.5753 1.75 12.1875 1.75C12.7997 1.75 13.3325 1.65625 13.786 1.46875C14.2396 1.28125 14.6911 1.07812 15.1406 0.859375C15.5901 0.640625 16.0713 0.442708 16.5841 0.265625C17.0969 0.0885417 17.7147 0 18.4375 0C19.1811 0 19.7992 0.0825316 20.292 0.247595C20.7848 0.412658 21.2399 0.598555 21.6574 0.805285C22.0749 1.01201 22.4923 1.20913 22.9098 1.39663C23.3273 1.58413 23.8157 1.69391 24.375 1.72596V3.53841C23.6875 3.51437 23.1021 3.4086 22.619 3.2211C22.1358 3.0336 21.6815 2.83649 21.256 2.62976C20.8305 2.42303 20.4054 2.23513 19.9807 2.06606C19.5561 1.89699 19.0416 1.81245 18.4375 1.81245C17.8541 1.81245 17.3389 1.901 16.8918 2.07808C16.4447 2.25516 15.9996 2.45308 15.5565 2.67183C15.1134 2.89058 14.6302 3.0937 14.1069 3.2812C13.5837 3.4687 12.9439 3.56245 12.1875 3.56245C11.4311 3.56245 10.7912 3.4687 10.268 3.2812C9.74478 3.0937 9.2616 2.89058 8.81849 2.67183C8.37538 2.45308 7.93548 2.25516 7.49878 2.07808C7.06208 1.901 6.54685 1.81245 5.9531 1.81245C5.35935 1.81245 4.84493 1.89699 4.40983 2.06606C3.97474 2.23513 3.54445 2.42303 3.11897 2.62976C2.69349 2.83649 2.23916 3.0336 1.75599 3.2211C1.27282 3.4086 0.687492 3.51437 0 3.53841Z" fill="#967437"/>
</svg>
