<svg width="22" height="22" viewBox="0 0 22 22" fill="none" xmlns="http://www.w3.org/2000/svg">
<path d="M10.5504 21.2499C7.84372 21.2499 5.48475 20.3589 3.47354 18.5768C1.46233 16.7948 0.304487 14.5608 0 11.875H1.91341C2.22912 14.0336 3.20068 15.8233 4.82808 17.2439C6.45548 18.6646 8.36293 19.375 10.5504 19.375C12.9879 19.375 15.0556 18.526 16.7536 16.8281C18.4515 15.1302 19.3004 13.0625 19.3004 10.625C19.3004 8.18745 18.4515 6.11975 16.7536 4.42183C15.0556 2.72391 12.9879 1.87495 10.5504 1.87495C9.18505 1.87495 7.90541 2.17824 6.71151 2.7848C5.5176 3.39137 4.48956 4.2259 3.62738 5.28839H6.8966V7.16335H0.550526V0.817276H2.42548V3.77882C3.4399 2.58171 4.65464 1.65263 6.06969 0.991579C7.48475 0.330526 8.97833 0 10.5504 0C12.0248 0 13.4062 0.278845 14.6946 0.836535C15.9831 1.39422 17.1065 2.15223 18.0648 3.11056C19.0232 4.06889 19.7812 5.19229 20.3389 6.48074C20.8965 7.7692 21.1754 9.1506 21.1754 10.625C21.1754 12.0993 20.8965 13.4807 20.3389 14.7692C19.7812 16.0576 19.0232 17.181 18.0648 18.1393C17.1065 19.0977 15.9831 19.8557 14.6946 20.4134C13.4062 20.9711 12.0248 21.2499 10.5504 21.2499ZM14.3029 15.6586L9.64902 11.0048V4.37495H11.524V10.2452L15.6201 14.3413L14.3029 15.6586Z" fill="#967437"/>
</svg>
