<svg width="17" height="24" viewBox="0 0 17 24" fill="none" xmlns="http://www.w3.org/2000/svg">
<path d="M0 23.149V21.274H6.25V18.149H5.93748C4.29478 18.149 2.89452 17.5701 1.73671 16.4123C0.578904 15.2545 0 13.8542 0 12.2115C0 10.9984 0.340945 9.89461 1.02283 8.90022C1.70472 7.90584 2.61538 7.18109 3.7548 6.72596C3.85736 5.94551 4.22515 5.32852 4.85816 4.87499C5.49118 4.42146 6.18429 4.26281 6.9375 4.39904L6.17788 2.29326L7.36538 1.85576L6.92788 0.706718L8.84612 0L9.24516 1.1875L10.3846 0.77404L13.6538 9.69228L12.5144 10.1298L12.9519 11.3173L11.0336 12.024L10.6346 10.8365L9.4471 11.298L8.67306 9.11533C8.39261 9.43905 8.05327 9.68986 7.65503 9.86774C7.2568 10.0456 6.84133 10.1218 6.40864 10.0961C5.91825 10.0705 5.46913 9.92384 5.06128 9.65621C4.65342 9.38858 4.3237 9.04963 4.0721 8.63937C3.39741 8.98072 2.86255 9.4687 2.46751 10.1033C2.07247 10.7379 1.87495 11.4407 1.87495 12.2115C1.87495 13.34 2.26992 14.2992 3.05986 15.0891C3.84979 15.8791 4.809 16.274 5.93748 16.274H15.625V18.149H8.89415V21.274H16.3941V23.149H0ZM10.3557 9.34134L11.7211 8.80768L9.49998 2.66824L8.07207 3.17786L10.3557 9.34134ZM6.56163 8.60576C6.95643 8.60576 7.28764 8.47222 7.55527 8.20516C7.8229 7.93809 7.95672 7.60716 7.95672 7.21236C7.95672 6.81756 7.82318 6.48635 7.55612 6.21872C7.28905 5.95109 6.95812 5.81728 6.56332 5.81728C6.16852 5.81728 5.83731 5.95081 5.56968 6.21788C5.30205 6.48495 5.16824 6.81588 5.16824 7.21067C5.16824 7.60547 5.30177 7.93668 5.56884 8.20431C5.83591 8.47194 6.16684 8.60576 6.56163 8.60576Z" fill="#967437"/>
</svg>
