<svg width="26" height="25" viewBox="0 0 26 25" fill="none" xmlns="http://www.w3.org/2000/svg">
<path d="M8.92303 24.6633L6.69228 20.9037L2.45672 19.9759L2.87018 15.6153L0 12.3317L2.87018 9.04803L2.45672 4.68748L6.69228 3.7596L8.92303 0L12.9086 1.6923L16.8941 0L19.1249 3.7596L23.3605 4.68748L22.947 9.04803L25.8172 12.3317L22.947 15.6153L23.3605 19.9759L19.1249 20.9037L16.8941 24.6633L12.9086 22.971L8.92303 24.6633ZM9.72109 22.2692L12.9086 20.9182L16.1346 22.2692L17.9086 19.2692L21.3461 18.4807L21.0336 14.9567L23.3461 12.3317L21.0336 9.66821L21.3461 6.14417L17.9086 5.39417L16.0961 2.39417L12.9086 3.74513L9.68263 2.39417L7.90859 5.39417L4.47109 6.14417L4.78359 9.66821L2.47109 12.3317L4.78359 14.9567L4.47109 18.5192L7.90859 19.2692L9.72109 22.2692ZM11.5961 16.3364L18.2259 9.70667L16.9086 8.35094L11.5961 13.6634L8.90859 11.0144L7.59132 12.3317L11.5961 16.3364Z" fill="#967437"/>
</svg>
